<svg width="100" height="100" viewBox="0 0 100 100" fill="none" xmlns="http://www.w3.org/2000/svg">
<g clip-path="url(#clip0)">
<g filter="url(#filter0_bdi)">
<path d="M44.6105 73C41.103 73 37.9591 71.1615 35.1788 67.4846C32.3985 63.8076 29.5968 58.6128 26.7737 51.9002C20.9136 58.6983 16.7645 65.6888 14.3264 72.8717C10.819 70.6057 9.04383 68.2328 9.00105 65.753C8.95828 63.2732 10.2201 60.4513 12.7866 57.2874C15.353 54.1235 19.1385 50.1473 24.1431 45.3587C23.8864 44.6746 23.4159 43.4774 22.7315 41.7672C22.0471 40.057 21.4483 38.5606 20.935 37.2779C20.4217 35.9525 20.0368 35.0333 19.7801 34.5202C19.5662 34.0071 19.2241 33.1948 18.7535 32.0831C18.283 30.9715 17.8981 30.1378 17.5986 29.5819C17.2992 28.9834 16.9143 28.2138 16.4437 27.2732C16.016 26.3325 15.631 25.5629 15.2888 24.9644C14.2195 23.2114 13.3854 21.9287 12.7866 21.1164C15.2247 19.962 17.2137 19.3848 18.7535 19.3848C20.2934 19.3848 21.5125 19.791 22.4107 20.6033C23.3518 21.3729 24.3569 22.9335 25.4263 25.285C26.5384 27.5938 27.3297 29.3468 27.8003 30.5439C28.2708 31.7411 28.8696 33.4086 29.5968 35.5463C30.3667 37.6413 30.7944 38.7957 30.88 39.0095C35.2002 34.7767 38.5793 31.057 41.0174 27.8504C43.4556 24.6437 44.7388 21.6936 44.8671 19C46.5781 19.7268 47.8613 20.6675 48.7168 21.8219C49.5723 22.9762 50 24.0879 50 25.1568C50 26.1829 49.722 27.2945 49.1659 28.4917C48.6526 29.6461 47.7544 30.9287 46.4711 32.3397C45.2307 33.7506 44.0544 34.9905 42.9423 36.0594C41.8729 37.1283 40.2903 38.6247 38.1944 40.5487C36.0984 42.4727 34.4302 44.0333 33.1898 45.2304C37.9805 57.6295 43.1561 66.7791 48.7168 72.6793C47.6046 72.8931 46.2359 73 44.6105 73Z" fill="url(#paint0_radial)"/>
<path d="M14.7999 73.0325C17.141 66.1353 21.0797 59.4042 26.629 52.8398C29.3539 59.2135 32.0693 64.2012 34.78 67.7861C37.6225 71.5453 40.8995 73.5 44.6105 73.5C46.2551 73.5 47.6577 73.3921 48.8112 73.1703L49.7047 72.9986L49.0806 72.3364C43.6298 66.5527 38.5227 57.5742 33.7762 45.3599C34.985 44.1991 36.5701 42.7184 38.5325 40.917C40.6277 38.9937 42.2154 37.4927 43.2923 36.4165C44.4145 35.3376 45.5984 34.0894 46.8439 32.6729C48.1438 31.2432 49.0782 29.918 49.6211 28.6987C50.1982 27.4551 50.5 26.2723 50.5 25.1568C50.5 23.9492 50.0161 22.7354 49.1185 21.5242C48.1966 20.2801 46.832 19.2915 45.0626 18.5398L44.4018 18.2591L44.3677 18.9762C44.246 21.5301 43.0248 24.3841 40.6194 27.5477C38.3045 30.5923 35.1258 34.114 31.0769 38.1143C30.8631 37.5391 30.5273 36.6287 30.0682 35.3796C29.341 33.2418 28.7399 31.5678 28.2656 30.361C27.7884 29.1468 26.9912 27.3819 25.8791 25.073C24.8101 22.7231 23.7698 21.0739 22.7369 20.2242C21.7248 19.3137 20.3776 18.8848 18.7535 18.8848C17.1035 18.8848 15.0346 19.4988 12.5726 20.6645L12.0238 20.9243L12.3841 21.4131C12.9687 22.2061 13.7922 23.4713 14.8583 25.2186C15.1892 25.7982 15.5659 26.5507 15.9886 27.4801L15.9924 27.4886L15.9966 27.4968L17.1515 29.8056L17.1549 29.8124L17.1584 29.8191C17.4465 30.3539 17.8242 31.1703 18.2931 32.278C18.7636 33.3896 19.1053 34.2008 19.3186 34.7126L19.3252 34.7285L19.3329 34.7439C19.5778 35.2334 19.9553 36.1326 20.4688 37.4585L20.4687 37.4585L20.4708 37.4637L22.2673 41.953C22.858 43.429 23.288 44.5194 23.5583 45.2265C18.6654 49.9193 14.9426 53.8358 12.3982 56.9724C9.80191 60.1732 8.45537 63.1091 8.50113 65.7616C8.54831 68.4969 10.5039 70.9974 14.0551 73.2917L14.5938 73.6397L14.7999 73.0325Z" stroke="url(#paint1_radial)"/>
</g>
<g filter="url(#filter1_di)">
<path fill-rule="evenodd" clip-rule="evenodd" d="M79.0554 46.3333C79.0554 44.0409 78.7519 42.3789 78.145 41.3474C77.5537 40.3158 76.7367 39.8 75.6941 39.8C74.667 39.8 73.6866 40.283 72.7529 41.2491C71.8348 42.1988 71.1112 43.4023 70.5821 44.8596C70.0685 46.317 69.8118 47.7906 69.8118 49.2807C69.8118 51.3275 70.1308 53.0058 70.7688 54.3158C71.4224 55.6257 72.4028 56.2807 73.7099 56.2807C74.7993 56.2807 75.7563 55.7813 76.5811 54.7825C77.4214 53.7673 78.0439 52.5146 78.4485 51.0246C78.8531 49.5345 79.0554 47.9708 79.0554 46.3333ZM79.4755 55.3228C78.7752 56.1251 77.896 56.7719 76.8378 57.2632C75.7952 57.7544 74.6514 58 73.4065 58C72.1616 58 71.0645 57.7053 70.1152 57.1158C69.1815 56.5263 68.4346 55.7404 67.8744 54.7579C66.7539 52.793 66.1937 50.5006 66.1937 47.8807C66.1937 45.2608 66.8084 42.9275 68.0378 40.8807C69.2827 38.8339 70.94 37.5404 73.0097 37C73.1342 37.0327 73.2509 37.0982 73.3598 37.1965C73.4843 37.2947 73.5543 37.4012 73.5699 37.5158C71.5625 39.055 70.3486 41.1509 69.9285 43.8035C70.5821 41.8713 71.5625 40.3649 72.8696 39.2842C74.1924 38.1871 75.6085 37.6386 77.1179 37.6386C78.6274 37.6386 79.9112 38.3263 80.9694 39.7018C82.0432 41.0608 82.5801 43.0339 82.5801 45.6211C82.5801 48.1591 82.1288 50.4433 81.2262 52.4737C80.7594 53.5544 80.1758 54.5041 79.4755 55.3228ZM58.1661 39.2596C57.4658 39.2596 56.8823 39.4889 56.4154 39.9474C55.9486 40.3895 55.7152 41.0199 55.7152 41.8386C55.7152 42.6573 55.9097 43.3942 56.2987 44.0491C56.7033 44.6877 57.1935 45.2363 57.7693 45.6947C58.3606 46.1368 58.9987 46.6199 59.6834 47.1439C60.3836 47.6678 61.0217 48.1673 61.5974 48.6421C62.1888 49.1006 62.679 49.6737 63.068 50.3614C63.4726 51.0491 63.6749 51.7778 63.6749 52.5474C63.6749 54.0702 63.0836 55.3637 61.9009 56.4281C60.7182 57.476 59.1621 58 57.2324 58C55.3183 58 53.8011 57.5661 52.6807 56.6982C51.5602 55.8304 51 54.848 51 53.7509C51 52.6538 51.3112 51.8023 51.9337 51.1965C52.5562 50.5743 53.3576 50.2632 54.338 50.2632C54.6181 50.2632 54.8826 50.2959 55.1316 50.3614C54.6492 51.1146 54.408 51.9333 54.408 52.8175C54.408 53.6854 54.6648 54.4386 55.1783 55.0772C55.6918 55.6994 56.3687 56.0105 57.2091 56.0105C58.065 56.0105 58.7808 55.7813 59.3566 55.3228C59.9324 54.848 60.2202 54.2503 60.2202 53.5298C60.2202 52.793 60.0257 52.1462 59.6367 51.5895C59.2476 51.0327 58.7652 50.5579 58.1895 50.1649C57.6137 49.7556 56.9834 49.2971 56.2987 48.7895C55.614 48.2655 54.9838 47.7415 54.408 47.2175C53.8322 46.6936 53.3498 46.0304 52.9608 45.2281C52.5717 44.4094 52.3772 43.517 52.3772 42.5509C52.3772 40.9953 52.9141 39.7591 53.9878 38.8421C55.0616 37.9088 56.5088 37.4421 58.3295 37.4421C60.1502 37.4421 61.5274 37.876 62.4611 38.7439C63.4104 39.5953 63.885 40.5123 63.885 41.4947C63.885 42.4608 63.5893 43.2795 62.998 43.9509C62.4066 44.6058 61.6052 44.9333 60.5937 44.9333C60.2514 44.9333 59.9168 44.9006 59.59 44.8351C60.3525 43.9836 60.7338 43.0912 60.7338 42.1579C60.7338 41.2082 60.4848 40.4877 59.9868 39.9965C59.4888 39.5053 58.8819 39.2596 58.1661 39.2596ZM85.7023 54.1684C85.7023 54.7415 85.7412 55.1918 85.819 55.5193C85.1032 56.0105 84.6285 56.731 84.3951 57.6807C85.6089 57.4023 86.8538 57.2632 88.1299 57.2632C89.4059 57.2632 90.612 57.3287 91.748 57.4596C92.8995 57.607 93.5998 57.6807 93.8488 57.6807C94.6891 57.6807 95.3894 57.345 95.9496 56.6737C96.5098 56.0023 96.8599 55.0608 97 53.8491C95.226 54.4713 92.4949 54.7825 88.8068 54.7825C88.8846 52.8503 89.157 50.2058 89.6238 46.8491C90.1062 43.476 90.3474 41.4865 90.3474 40.8807C90.3474 40.2749 90.3319 39.8573 90.3007 39.6281C90.2852 39.3988 90.2151 39.1532 90.0907 38.8912C89.9662 38.6129 89.7872 38.4082 89.5538 38.2772C89.0091 37.9497 88.1455 37.7532 86.9628 37.6877C87.025 38.5392 87.0561 39.2105 87.0561 39.7018C87.0561 42.0105 86.7682 45.269 86.1925 49.4772C85.8657 52.0152 85.7023 53.5789 85.7023 54.1684ZM46.4545 46.38L44.4745 46.3C43.6212 46.3 42.9745 46.4667 42.5345 46.8C42.1079 47.1333 41.8945 47.8 41.8945 48.8C41.8945 49.2667 41.9012 49.5933 41.9145 49.78C42.5945 49.3533 43.3079 49.0733 44.0545 48.94C44.8145 48.8067 45.9612 48.74 47.4945 48.74C48.0545 48.74 48.4612 48.54 48.7145 48.14C48.9679 47.7267 49.0945 47.2667 49.0945 46.76C49.0945 46.24 49.0679 45.84 49.0145 45.56C48.4945 46.1067 47.6412 46.38 46.4545 46.38Z" fill="url(#paint2_radial)"/>
</g>
</g>
<defs>
<filter id="filter0_bdi" x="2" y="11.5182" width="57" height="70.8895" filterUnits="userSpaceOnUse" color-interpolation-filters="sRGB">
<feFlood flood-opacity="0" result="BackgroundImageFix"/>
<feGaussianBlur in="BackgroundImage" stdDeviation="3"/>
<feComposite in2="SourceAlpha" operator="in" result="effect1_backgroundBlur"/>
<feColorMatrix in="SourceAlpha" type="matrix" values="0 0 0 0 0 0 0 0 0 0 0 0 0 0 0 0 0 0 127 0"/>
<feOffset dx="2" dy="2"/>
<feGaussianBlur stdDeviation="3"/>
<feColorMatrix type="matrix" values="0 0 0 0 0.725146 0 0 0 0 0.60809 0 0 0 0 0.879167 0 0 0 0.25 0"/>
<feBlend mode="normal" in2="effect1_backgroundBlur" result="effect2_dropShadow"/>
<feBlend mode="normal" in="SourceGraphic" in2="effect2_dropShadow" result="shape"/>
<feColorMatrix in="SourceAlpha" type="matrix" values="0 0 0 0 0 0 0 0 0 0 0 0 0 0 0 0 0 0 127 0" result="hardAlpha"/>
<feOffset dx="2" dy="2"/>
<feGaussianBlur stdDeviation="2"/>
<feComposite in2="hardAlpha" operator="arithmetic" k2="-1" k3="1"/>
<feColorMatrix type="matrix" values="0 0 0 0 1 0 0 0 0 1 0 0 0 0 1 0 0 0 0.4 0"/>
<feBlend mode="normal" in2="shape" result="effect3_innerShadow"/>
</filter>
<filter id="filter1_di" x="38.8945" y="34" width="63.1055" height="29" filterUnits="userSpaceOnUse" color-interpolation-filters="sRGB">
<feFlood flood-opacity="0" result="BackgroundImageFix"/>
<feColorMatrix in="SourceAlpha" type="matrix" values="0 0 0 0 0 0 0 0 0 0 0 0 0 0 0 0 0 0 127 0"/>
<feOffset dx="1" dy="1"/>
<feGaussianBlur stdDeviation="2"/>
<feColorMatrix type="matrix" values="0 0 0 0 0.686275 0 0 0 0 0.243137 0 0 0 0 0.870588 0 0 0 0.2 0"/>
<feBlend mode="normal" in2="BackgroundImageFix" result="effect1_dropShadow"/>
<feBlend mode="normal" in="SourceGraphic" in2="effect1_dropShadow" result="shape"/>
<feColorMatrix in="SourceAlpha" type="matrix" values="0 0 0 0 0 0 0 0 0 0 0 0 0 0 0 0 0 0 127 0" result="hardAlpha"/>
<feOffset dx="1" dy="1"/>
<feGaussianBlur stdDeviation="2"/>
<feComposite in2="hardAlpha" operator="arithmetic" k2="-1" k3="1"/>
<feColorMatrix type="matrix" values="0 0 0 0 1 0 0 0 0 1 0 0 0 0 1 0 0 0 0.25 0"/>
<feBlend mode="normal" in2="shape" result="effect2_innerShadow"/>
</filter>
<radialGradient id="paint0_radial" cx="0" cy="0" r="1" gradientUnits="userSpaceOnUse" gradientTransform="translate(13.602 21.4923) rotate(61.7345) scale(62.7254 47.4731)">
<stop stop-color="#F0BB34"/>
<stop offset="0.665244" stop-color="#F41B50"/>
<stop offset="1" stop-color="#A33FF2"/>
</radialGradient>
<radialGradient id="paint1_radial" cx="0" cy="0" r="1" gradientUnits="userSpaceOnUse" gradientTransform="translate(12.2081 20.6033) rotate(58.2874) scale(64.0806 48.642)">
<stop stop-color="#F5C471"/>
<stop offset="0.538758" stop-color="#F4454A"/>
<stop offset="1" stop-color="#BF48CD"/>
</radialGradient>
<radialGradient id="paint2_radial" cx="0" cy="0" r="1" gradientUnits="userSpaceOnUse" gradientTransform="translate(46.5 37) rotate(23.54) scale(55.084 144.544)">
<stop stop-color="#F8BA1B"/>
<stop offset="0.520833" stop-color="#E3163B"/>
<stop offset="1" stop-color="#B13CDA"/>
</radialGradient>
<clipPath id="clip0">
<rect width="100" height="100" fill="white"/>
</clipPath>
</defs>
</svg>
