<svg width="205" height="179" viewBox="0 0 205 179" fill="none" xmlns="http://www.w3.org/2000/svg">
<g filter="url(#filter0_d)">
<path fill-rule="evenodd" clip-rule="evenodd" d="M161.989 60.9153C171.983 64.0825 179.055 72.7135 178.766 83.1932C178.607 88.9769 178.01 96.1257 176.546 104.429C174.697 114.911 172.181 123.192 169.949 129.168C167.136 136.702 160.392 141.679 152.362 142.124C150.264 142.24 147.907 142.314 145.295 142.315L143.263 148.798C142.816 150.227 141.016 150.675 139.95 149.624L131.964 141.748C125.987 141.255 119.224 140.395 111.702 139.004C93.3951 135.617 80.3332 131.134 72.0989 127.668C64.9436 124.657 60.157 118.122 59.6902 110.373C59.2889 103.71 59.4377 94.6365 61.4312 84.1308C63.0361 75.6728 65.2801 68.4669 67.4488 62.7778C71.0565 53.3143 80.3992 47.9208 90.5203 48.2894C100.292 48.6452 113.454 49.6182 127.028 52.0864C140.3 54.4999 152.739 57.9839 161.989 60.9153Z" fill="url(#paint0_radial)"/>
</g>
<g filter="url(#filter1_bdi)">
<mask id="path-2-inside-1" fill="white">
<path fill-rule="evenodd" clip-rule="evenodd" d="M57.6691 29.6373C47.1864 29.7782 37.9011 35.9583 35.0273 46.0404C33.2844 52.1548 31.5317 59.9969 30.3687 69.4691C28.9275 81.2066 28.9703 90.7346 29.4354 97.5966C29.9792 105.62 34.9704 112.347 42.4999 115.171C44.6975 115.995 47.2192 116.868 50.0709 117.749L50.4248 126.204C50.4874 127.699 52.1099 128.599 53.4111 127.859L64.3005 121.673C64.3866 121.624 64.4672 121.57 64.5423 121.512C70.7136 122.844 77.7677 124.048 85.7285 124.958C106.03 127.278 121.028 126.682 130.47 125.661C138.188 124.826 144.654 119.985 147.424 112.732C149.989 106.015 152.827 96.4374 154.118 84.6636C155.175 75.0236 155.069 66.5857 154.561 59.9306C153.791 49.8321 146.451 41.9558 136.674 39.3148C126.511 36.5696 112.33 33.2967 97.2011 31.5212C82.3895 29.7829 68.1324 29.4966 57.6691 29.6373Z"/>
</mask>
<path fill-rule="evenodd" clip-rule="evenodd" d="M57.6691 29.6373C47.1864 29.7782 37.9011 35.9583 35.0273 46.0404C33.2844 52.1548 31.5317 59.9969 30.3687 69.4691C28.9275 81.2066 28.9703 90.7346 29.4354 97.5966C29.9792 105.62 34.9704 112.347 42.4999 115.171C44.6975 115.995 47.2192 116.868 50.0709 117.749L50.4248 126.204C50.4874 127.699 52.1099 128.599 53.4111 127.859L64.3005 121.673C64.3866 121.624 64.4672 121.57 64.5423 121.512C70.7136 122.844 77.7677 124.048 85.7285 124.958C106.03 127.278 121.028 126.682 130.47 125.661C138.188 124.826 144.654 119.985 147.424 112.732C149.989 106.015 152.827 96.4374 154.118 84.6636C155.175 75.0236 155.069 66.5857 154.561 59.9306C153.791 49.8321 146.451 41.9558 136.674 39.3148C126.511 36.5696 112.33 33.2967 97.2011 31.5212C82.3895 29.7829 68.1324 29.4966 57.6691 29.6373Z" fill="url(#paint1_radial)" fill-opacity="0.34"/>
<path d="M35.0273 46.0404L34.0656 45.7663L35.0273 46.0404ZM57.6691 29.6373L57.6556 28.6374L57.6691 29.6373ZM30.3687 69.4691L31.3612 69.591L30.3687 69.4691ZM29.4354 97.5966L30.4332 97.529L29.4354 97.5966ZM42.4999 115.171L42.1488 116.107L42.4999 115.171ZM50.0709 117.749L51.07 117.708L51.0405 117.003L50.3662 116.794L50.0709 117.749ZM50.4248 126.204L51.424 126.162L50.4248 126.204ZM53.4111 127.859L53.905 128.729L53.4111 127.859ZM64.3005 121.673L64.7945 122.542L64.7945 122.542L64.3005 121.673ZM64.5423 121.512L64.7533 120.535L64.2996 120.437L63.932 120.72L64.5423 121.512ZM85.7285 124.958L85.842 123.964L85.7285 124.958ZM130.47 125.661L130.578 126.655L130.47 125.661ZM147.424 112.732L148.358 113.089L147.424 112.732ZM154.118 84.6636L155.112 84.7726L154.118 84.6636ZM154.561 59.9306L153.564 60.0066L153.564 60.0066L154.561 59.9306ZM136.674 39.3148L136.935 38.3494L136.674 39.3148ZM97.2011 31.5212L97.0845 32.5144L97.2011 31.5212ZM35.989 46.3145C38.725 36.7159 47.5774 30.773 57.6825 30.6372L57.6556 28.6374C46.7954 28.7834 37.0772 35.2007 34.0656 45.7663L35.989 46.3145ZM31.3612 69.591C32.5176 60.1733 34.2595 52.382 35.989 46.3145L34.0656 45.7663C32.3094 51.9275 30.5459 59.8206 29.3762 69.3472L31.3612 69.591ZM30.4332 97.529C29.972 90.7252 29.9284 81.2609 31.3612 69.591L29.3762 69.3472C27.9267 81.1523 27.9687 90.7439 28.4377 97.6642L30.4332 97.529ZM42.8511 114.235C35.69 111.549 30.9505 105.162 30.4332 97.529L28.4377 97.6642C29.008 106.078 34.2508 113.145 42.1488 116.107L42.8511 114.235ZM50.3662 116.794C47.5336 115.918 45.0304 115.052 42.8511 114.235L42.1488 116.107C44.3645 116.938 46.9049 117.817 49.7755 118.705L50.3662 116.794ZM49.0717 117.791L49.4257 126.246L51.424 126.162L51.07 117.708L49.0717 117.791ZM49.4257 126.246C49.5196 128.489 51.9532 129.838 53.905 128.729L52.9171 126.99C52.2665 127.36 51.4553 126.91 51.424 126.162L49.4257 126.246ZM53.905 128.729L64.7945 122.542L63.8066 120.803L52.9171 126.99L53.905 128.729ZM64.7945 122.542C64.921 122.47 65.0405 122.391 65.1527 122.304L63.932 120.72C63.894 120.749 63.8523 120.777 63.8065 120.803L64.7945 122.542ZM85.842 123.964C77.914 123.059 70.8924 121.859 64.7533 120.535L64.3314 122.49C70.5348 123.828 77.6214 125.038 85.6149 125.952L85.842 123.964ZM130.363 124.667C120.993 125.68 106.068 126.276 85.842 123.964L85.6149 125.952C105.991 128.28 121.064 127.684 130.578 126.655L130.363 124.667ZM146.49 112.376C143.858 119.266 137.72 123.871 130.363 124.667L130.578 126.655C138.657 125.781 145.45 120.704 148.358 113.089L146.49 112.376ZM153.124 84.5546C151.844 96.2296 149.03 105.724 146.49 112.376L148.358 113.089C150.948 106.307 153.81 96.6453 155.112 84.7726L153.124 84.5546ZM153.564 60.0066C154.068 66.6089 154.173 74.9842 153.124 84.5546L155.112 84.7726C156.176 75.0629 156.07 66.5625 155.558 59.8546L153.564 60.0066ZM136.413 40.2802C145.835 42.8251 152.83 50.3834 153.564 60.0066L155.558 59.8546C154.752 49.2808 147.068 41.0865 136.935 38.3494L136.413 40.2802ZM97.0845 32.5144C112.149 34.2824 126.279 37.5428 136.413 40.2802L136.935 38.3494C126.743 35.5964 112.511 32.3111 97.3176 30.528L97.0845 32.5144ZM57.6825 30.6372C68.1189 30.4969 82.3299 30.7828 97.0845 32.5144L97.3176 30.528C82.4492 28.7831 68.1459 28.4963 57.6556 28.6374L57.6825 30.6372Z" fill="url(#paint2_radial)" mask="url(#path-2-inside-1)"/>
</g>
<path d="M56.1923 74.0466C57.6029 74.17 58.649 74.6048 59.3306 75.3511C60.0251 76.0864 60.3128 77.1355 60.1935 78.4983L59.7025 84.1108L57.5866 83.9257L57.6886 82.7602C57.377 83.1545 56.9543 83.4428 56.4204 83.6249C55.8995 83.7962 55.2804 83.8504 54.5631 83.7877C53.8459 83.7249 53.2287 83.5505 52.7117 83.2643C52.1957 82.9662 51.8071 82.5889 51.5459 82.1324C51.2977 81.665 51.1976 81.1563 51.2458 80.6064C51.3211 79.7457 51.698 79.0861 52.3765 78.6275C53.0681 78.158 54.1012 77.9833 55.476 78.1036L57.9505 78.3201L57.9631 78.1767C58.0217 77.5072 57.8634 76.9754 57.4883 76.5812C57.1252 76.1881 56.5492 75.957 55.7602 75.8879C55.2222 75.8409 54.6829 75.878 54.1423 75.9994C53.6136 76.1218 53.1569 76.3167 52.7721 76.5842L52.0362 74.8755C52.5718 74.5369 53.2011 74.2969 53.9242 74.1553C54.6473 74.0138 55.4033 73.9776 56.1923 74.0466ZM55.1721 82.1967C55.7339 82.2459 56.241 82.1637 56.6934 81.9503C57.1587 81.726 57.5019 81.3827 57.7231 80.9202L57.8203 79.8084L55.5072 79.606C54.2161 79.4931 53.5334 79.861 53.4592 80.7097C53.4236 81.1162 53.5568 81.4531 53.8586 81.7204C54.1605 81.9877 54.5983 82.1465 55.1721 82.1967ZM72.2075 75.5562L67.2634 84.7723L64.9503 84.57L61.6817 74.6353L64.0128 74.8392L66.3682 82.2005L70.0557 75.3679L72.2075 75.5562ZM81.1998 75.313L80.8656 79.1324L86.9265 79.6626L86.7539 81.6351L80.693 81.1048L80.2726 85.9105L77.9415 85.7065L79.0397 73.1545L88.2027 73.9561L88.0317 75.9107L81.1998 75.313ZM93.3511 77.2976C94.7618 77.421 95.8078 77.8558 96.4894 78.6021C97.1839 79.3374 97.4716 80.3865 97.3524 81.7492L96.8613 87.3618L94.7454 87.1767L94.8474 86.0111C94.5358 86.4055 94.1131 86.6937 93.5792 86.8759C93.0583 87.0472 92.4392 87.1014 91.722 87.0387C91.0047 86.9759 90.3875 86.8014 89.8705 86.5153C89.3545 86.2172 88.9659 85.8399 88.7047 85.3834C88.4565 84.916 88.3565 84.4073 88.4046 83.8574C88.4799 82.9967 88.8568 82.337 89.5354 81.8784C90.2269 81.4089 91.2601 81.2343 92.6348 81.3546L95.1094 81.5711L95.1219 81.4276C95.1805 80.7582 95.0222 80.2264 94.6472 79.8322C94.2841 79.439 93.708 79.208 92.919 79.1389C92.3811 79.0919 91.8418 79.129 91.3011 79.2503C90.7725 79.3727 90.3157 79.5677 89.931 79.8351L89.1951 78.1265C89.7306 77.7879 90.36 77.5478 91.083 77.4063C91.8061 77.2648 92.5622 77.2286 93.3511 77.2976ZM92.3309 85.4477C92.8928 85.4968 93.3999 85.4147 93.8522 85.2013C94.3175 84.977 94.6607 84.6336 94.8819 84.1711L94.9792 83.0594L92.666 82.857C91.3749 82.7441 90.6923 83.112 90.618 83.9607C90.5825 84.3672 90.7156 84.7041 91.0174 84.9714C91.3193 85.2387 91.7571 85.3975 92.3309 85.4477ZM102.686 87.9979C101.909 87.9299 101.158 87.7618 100.435 87.4938C99.7116 87.2257 99.1424 86.9169 98.7273 86.5674L99.737 84.9392C100.142 85.2638 100.636 85.5419 101.218 85.7735C101.813 85.9942 102.403 86.1301 102.989 86.1814C104.328 86.2985 105.028 86.0044 105.09 85.2991C105.119 84.9644 104.966 84.7161 104.631 84.5543C104.308 84.3935 103.775 84.2204 103.032 84.035C102.254 83.8464 101.62 83.6525 101.132 83.4531C100.655 83.2548 100.248 82.9482 99.9114 82.5333C99.5873 82.1074 99.4555 81.5478 99.5162 80.8544C99.5957 79.9459 100.036 79.2556 100.836 78.7836C101.649 78.3006 102.701 78.1156 103.992 78.2285C104.65 78.2861 105.3 78.4213 105.944 78.6342C106.589 78.8352 107.11 79.0795 107.506 79.3672L106.496 80.9953C105.725 80.446 104.832 80.127 103.816 80.0381C103.158 79.9805 102.647 80.0382 102.283 80.2111C101.931 80.3731 101.741 80.6155 101.713 80.9382C101.682 81.2969 101.839 81.5696 102.184 81.7564C102.542 81.9322 103.098 82.1194 103.851 82.3178C104.606 82.5043 105.221 82.6967 105.698 82.895C106.174 83.0933 106.57 83.3929 106.884 83.7938C107.21 84.1957 107.344 84.7374 107.284 85.4188C107.206 86.3154 106.754 86.9987 105.93 87.4686C105.106 87.9386 104.025 88.115 102.686 87.9979ZM114.768 88.4044C114.486 88.5966 114.149 88.7297 113.757 88.8039C113.377 88.879 112.978 88.8983 112.56 88.8617C111.508 88.7697 110.719 88.4236 110.193 87.8235C109.667 87.2234 109.451 86.3974 109.543 85.3454L109.946 80.737L108.368 80.5989L108.525 78.8058L110.103 78.9438L110.294 76.7562L112.536 76.9523L112.344 79.1399L114.908 79.3643L114.751 81.1574L112.187 80.9331L111.789 85.4877C111.748 85.9539 111.83 86.3225 112.035 86.5934C112.242 86.8523 112.56 87.0006 112.99 87.0383C113.492 87.0822 113.922 86.9873 114.28 86.7536L114.768 88.4044ZM116.425 83.1107L121.356 83.5421L121.193 85.407L116.262 84.9756L116.425 83.1107ZM131.063 90.3541L128.074 85.2862L124.285 89.7611L121.631 89.5289L126.854 83.5352L122.981 76.9988L125.616 77.2294L128.436 81.9752L132 77.7879L134.528 78.0091L129.605 83.6856L133.753 90.5894L131.063 90.3541Z" fill="white"/>
<defs>
<filter id="filter0_d" x="40.5273" y="29.8306" width="163.476" height="145.04" filterUnits="userSpaceOnUse" color-interpolation-filters="sRGB">
<feFlood flood-opacity="0" result="BackgroundImageFix"/>
<feColorMatrix in="SourceAlpha" type="matrix" values="0 0 0 0 0 0 0 0 0 0 0 0 0 0 0 0 0 0 127 0"/>
<feOffset dx="4" dy="4"/>
<feGaussianBlur stdDeviation="8"/>
<feColorMatrix type="matrix" values="0 0 0 0 0.299272 0 0 0 0 0.171111 0 0 0 0 0.466667 0 0 0 1 0"/>
<feBlend mode="normal" in2="BackgroundImageFix" result="effect1_dropShadow"/>
<feBlend mode="normal" in="SourceGraphic" in2="effect1_dropShadow" result="shape"/>
</filter>
<filter id="filter1_bdi" x="-1.51562" y="-1.03247" width="200.539" height="179.263" filterUnits="userSpaceOnUse" color-interpolation-filters="sRGB">
<feFlood flood-opacity="0" result="BackgroundImageFix"/>
<feGaussianBlur in="BackgroundImage" stdDeviation="13"/>
<feComposite in2="SourceAlpha" operator="in" result="effect1_backgroundBlur"/>
<feColorMatrix in="SourceAlpha" type="matrix" values="0 0 0 0 0 0 0 0 0 0 0 0 0 0 0 0 0 0 127 0"/>
<feOffset dx="8" dy="8"/>
<feGaussianBlur stdDeviation="16"/>
<feColorMatrix type="matrix" values="0 0 0 0 0.345833 0 0 0 0 0.331424 0 0 0 0 0.331424 0 0 0 0.2 0"/>
<feBlend mode="normal" in2="effect1_backgroundBlur" result="effect2_dropShadow"/>
<feBlend mode="normal" in="SourceGraphic" in2="effect2_dropShadow" result="shape"/>
<feColorMatrix in="SourceAlpha" type="matrix" values="0 0 0 0 0 0 0 0 0 0 0 0 0 0 0 0 0 0 127 0" result="hardAlpha"/>
<feOffset dx="8" dy="8"/>
<feGaussianBlur stdDeviation="64"/>
<feComposite in2="hardAlpha" operator="arithmetic" k2="-1" k3="1"/>
<feColorMatrix type="matrix" values="0 0 0 0 1 0 0 0 0 1 0 0 0 0 1 0 0 0 0.3 0"/>
<feBlend mode="normal" in2="shape" result="effect3_innerShadow"/>
</filter>
<radialGradient id="paint0_radial" cx="0" cy="0" r="1" gradientUnits="userSpaceOnUse" gradientTransform="translate(161.607 139.115) rotate(-135.36) scale(121.116 142.642)">
<stop stop-color="#F3BE55" stop-opacity="0.96"/>
<stop offset="1" stop-color="#ED811E"/>
</radialGradient>
<radialGradient id="paint1_radial" cx="0" cy="0" r="1" gradientUnits="userSpaceOnUse" gradientTransform="translate(43.4595 34.9858) rotate(40.6653) scale(131.999 155.555)">
<stop stop-color="#F9CE9D"/>
<stop offset="1" stop-color="#FFE6C8"/>
</radialGradient>
<radialGradient id="paint2_radial" cx="0" cy="0" r="1" gradientUnits="userSpaceOnUse" gradientTransform="translate(44.0888 35.0087) rotate(40.7027) scale(128.433 151.357)">
<stop stop-color="white" stop-opacity="0.35"/>
<stop offset="1" stop-color="white" stop-opacity="0.3"/>
</radialGradient>
</defs>
</svg>
