<svg width="28" height="28" viewBox="0 0 28 28" fill="none" xmlns="http://www.w3.org/2000/svg">
<path fill-rule="evenodd" clip-rule="evenodd" d="M22.6954 26.2678C23.6717 27.2441 25.2546 27.2441 26.2309 26.2678C27.2072 25.2914 27.2072 23.7085 26.2309 22.7322L17.7695 14.2709L26.2725 5.76788C27.2488 4.79157 27.2488 3.20865 26.2725 2.23234C25.2962 1.25603 23.7133 1.25603 22.737 2.23234L14.234 10.7353L5.7248 2.22613C4.74849 1.24982 3.16557 1.24982 2.18926 2.22613C1.21295 3.20244 1.21295 4.78535 2.18926 5.76166L10.6985 14.2709L2.23089 22.7384C1.25458 23.7148 1.25458 25.2977 2.23089 26.274C3.2072 27.2503 4.79012 27.2503 5.76643 26.274L14.234 17.8064L22.6954 26.2678Z" fill="url(#paint0_radial)"/>
<path d="M17.7695 14.2709L17.416 13.9173L17.0624 14.2709L17.416 14.6244L17.7695 14.2709ZM26.2725 5.76788L25.919 5.41432L25.919 5.41432L26.2725 5.76788ZM26.2725 2.23234L26.6261 1.87879L26.6261 1.87879L26.2725 2.23234ZM22.737 2.23234L22.3834 1.87879L22.3834 1.87879L22.737 2.23234ZM14.234 10.7353L13.8804 11.0889L14.234 11.4424L14.5876 11.0889L14.234 10.7353ZM5.7248 2.22613L5.37124 2.57968L5.37124 2.57968L5.7248 2.22613ZM2.18926 2.22613L2.54282 2.57968L2.54282 2.57968L2.18926 2.22613ZM2.18926 5.76166L2.54282 5.40811L2.18926 5.76166ZM10.6985 14.2709L11.052 14.6244L11.4056 14.2709L11.052 13.9173L10.6985 14.2709ZM2.23089 22.7384L1.87734 22.3849L1.87734 22.3849L2.23089 22.7384ZM2.23089 26.274L1.87734 26.6275L1.87734 26.6275L2.23089 26.274ZM5.76643 26.274L5.41287 25.9204L5.41287 25.9204L5.76643 26.274ZM14.234 17.8064L14.5876 17.4528L14.234 17.0993L13.8804 17.4528L14.234 17.8064ZM25.8773 25.9142C25.0963 26.6953 23.83 26.6953 23.0489 25.9142L22.3418 26.6213C23.5134 27.7929 25.4129 27.7929 26.5844 26.6213L25.8773 25.9142ZM25.8773 23.0858C26.6584 23.8668 26.6584 25.1332 25.8773 25.9142L26.5844 26.6213C27.756 25.4497 27.756 23.5502 26.5844 22.3787L25.8773 23.0858ZM17.416 14.6244L25.8773 23.0858L26.5844 22.3787L18.1231 13.9173L17.416 14.6244ZM25.919 5.41432L17.416 13.9173L18.1231 14.6244L26.6261 6.12143L25.919 5.41432ZM25.919 2.5859C26.7 3.36695 26.7 4.63328 25.919 5.41432L26.6261 6.12143C27.7977 4.94986 27.7977 3.05036 26.6261 1.87879L25.919 2.5859ZM23.0905 2.5859C23.8716 1.80485 25.1379 1.80485 25.919 2.5859L26.6261 1.87879C25.4545 0.707217 23.555 0.707218 22.3834 1.87879L23.0905 2.5859ZM14.5876 11.0889L23.0905 2.5859L22.3834 1.87879L13.8804 10.3818L14.5876 11.0889ZM5.37124 2.57968L13.8804 11.0889L14.5876 10.3818L6.07835 1.87258L5.37124 2.57968ZM2.54282 2.57968C3.32387 1.79863 4.5902 1.79863 5.37124 2.57968L6.07835 1.87258C4.90678 0.701004 3.00728 0.701003 1.83571 1.87258L2.54282 2.57968ZM2.54282 5.40811C1.76177 4.62706 1.76177 3.36073 2.54282 2.57968L1.83571 1.87258C0.664138 3.04415 0.664139 4.94364 1.83571 6.11522L2.54282 5.40811ZM11.052 13.9173L2.54282 5.40811L1.83571 6.11522L10.3449 14.6244L11.052 13.9173ZM2.58445 23.092L11.052 14.6244L10.3449 13.9173L1.87734 22.3849L2.58445 23.092ZM2.58445 25.9204C1.8034 25.1394 1.8034 23.873 2.58445 23.092L1.87734 22.3849C0.705768 23.5565 0.705768 25.456 1.87734 26.6275L2.58445 25.9204ZM5.41287 25.9204C4.63183 26.7015 3.3655 26.7015 2.58445 25.9204L1.87734 26.6275C3.04891 27.7991 4.94841 27.7991 6.11998 26.6275L5.41287 25.9204ZM13.8804 17.4528L5.41287 25.9204L6.11998 26.6275L14.5876 18.16L13.8804 17.4528ZM23.0489 25.9142L14.5876 17.4528L13.8804 18.16L22.3418 26.6213L23.0489 25.9142Z" fill="url(#paint1_radial)"/>
<defs>
<radialGradient id="paint0_radial" cx="0" cy="0" r="1" gradientUnits="userSpaceOnUse" gradientTransform="translate(2.5 2.5) rotate(45.5907) scale(34.2965 34.3441)">
<stop stop-color="#F5A46E"/>
<stop offset="0.5" stop-color="#F4384E"/>
<stop offset="1" stop-color="#D23B97"/>
</radialGradient>
<radialGradient id="paint1_radial" cx="0" cy="0" r="1" gradientUnits="userSpaceOnUse" gradientTransform="translate(2 2.5) rotate(45) scale(33.9411 33.9882)">
<stop stop-color="#F48749"/>
<stop offset="0.489583" stop-color="#ED2B60"/>
<stop offset="1" stop-color="#B840D0"/>
</radialGradient>
</defs>
</svg>
