<svg width="1440" height="780" viewBox="0 0 1440 780" fill="none" xmlns="http://www.w3.org/2000/svg">
<path d="M0 -2C0 -2 390 -2 714 -2C1038 -2 1440 -2 1440 -2V742C918 884 490.549 575.833 0 558V-2Z" fill="#1A0733"/>
<path d="M0 -2C0 -2 390 -2 714 -2C1038 -2 1440 -2 1440 -2V742C918 884 490.549 575.833 0 558V-2Z" fill="url(#paint0_radial)"/>
<path d="M0 -2C0 -2 390 -2 714 -2C1038 -2 1440 -2 1440 -2V742C918 884 490.549 575.833 0 558V-2Z" fill="url(#paint1_radial)"/>
<defs>
<radialGradient id="paint0_radial" cx="0" cy="0" r="1" gradientUnits="userSpaceOnUse" gradientTransform="translate(1424 6.77424) rotate(135.212) scale(772.139 1321.15)">
<stop stop-color="#33135C"/>
<stop offset="1" stop-color="#1A0733" stop-opacity="0"/>
</radialGradient>
<radialGradient id="paint1_radial" cx="0" cy="0" r="1" gradientUnits="userSpaceOnUse" gradientTransform="translate(230 204.618) rotate(36.4191) scale(437.432 417.14)">
<stop stop-color="#260E45"/>
<stop offset="1" stop-color="#1A0733" stop-opacity="0"/>
</radialGradient>
</defs>
</svg>
