<svg width="437" height="369" viewBox="0 0 437 369" fill="none" xmlns="http://www.w3.org/2000/svg">
<path d="M63.9997 62.5C63.9997 62.5 52.9997 29.5 103 21.5M353 142C353 142 359.5 121 325.5 105M169 311C169 311 205.5 347.5 262 354C318.5 360.5 341 339 341 339" stroke="#B29D81" stroke-width="3" stroke-dasharray="8 8"/>
<g filter="url(#filter0_d)">
<path d="M284.082 304.203L278.518 326.368L256.737 297.562C212.137 267.545 150.955 261.892 131.094 226.252C111.233 190.611 135.202 128.701 173.803 95.4103C209.108 64.9621 258.818 105.395 288.035 111.428L288.742 111.573C318.245 117.662 379.685 130.342 387.16 176.517C394.695 223.064 367.736 265.7 341.465 290.733C322.232 309.058 284.082 304.203 284.082 304.203Z" fill="url(#paint0_radial)"/>
</g>
<path d="M307.117 96.543C306.331 96.9042 306.057 98.9819 307.466 100.233M316.39 94.2309C316.914 94.4666 317.838 95.8354 317.585 97.3055M321.875 89.8953C321.962 88.5247 322.635 87.8602 324.193 87.7389M317.585 97.3055C317.371 98.5428 316.418 99.8282 312.747 100.805C309.641 101.632 308.354 101.022 307.466 100.233M317.585 97.3055C317.585 97.3055 321.719 96.1376 322.557 96.0657C323.396 95.9939 326.969 96.5845 328.059 92.9402C328.575 91.2155 327.859 89.8679 327.078 89.003C326.208 88.0402 325.186 87.6616 324.193 87.7389M324.193 87.7389C324.193 87.7389 322.798 83.8643 318.98 84.007C317.757 84.0527 316.97 84.377 316.464 84.7969M315.589 87.0109C315.589 87.0109 315.391 85.6885 316.464 84.7969M316.464 84.7969C316.464 84.7969 314.394 83.1267 310.694 85.1285C309.701 85.6661 309.016 86.3831 308.651 87.122M309.55 90.2704C308.323 89.6483 308.041 88.3548 308.651 87.122M308.651 87.122C308.651 87.122 306.252 86.7758 304.355 89.8118C302.459 92.8478 303.392 94.7735 303.392 94.7735C303.392 94.7735 302.128 96.5727 303.567 98.9118C305.007 101.251 307.466 100.233 307.466 100.233M310.635 96.3403C310.635 96.3403 310.16 94.4352 312.073 94.093M314.248 90.2185C314.248 90.2185 316.064 88.916 317.614 90.553M323.6 93.3775C323.6 93.3775 323.22 91.8534 324.833 91.4513" stroke="#F3A447" stroke-width="2" stroke-linecap="round"/>
<path d="M122.837 11.772L121.837 11.7764L121.845 13.5621L123.363 12.6224L122.837 11.772ZM118.206 4.8743L118.557 3.93807L118.206 4.8743ZM131.141 12.0444L131.749 11.2503L131.141 12.0444ZM114.53 26.758L113.735 27.3639L114.001 27.7132L114.438 27.7537L114.53 26.758ZM122.837 11.772C123.837 11.7677 123.837 11.7672 123.837 11.7668C123.837 11.7666 123.837 11.7661 123.837 11.7657C123.837 11.765 123.837 11.7642 123.837 11.7633C123.837 11.7615 123.837 11.7593 123.837 11.7569C123.837 11.752 123.837 11.7459 123.837 11.7385C123.836 11.7238 123.836 11.7042 123.835 11.6799C123.834 11.6314 123.831 11.5641 123.825 11.4803C123.814 11.3129 123.792 11.0783 123.751 10.7941C123.669 10.228 123.507 9.45212 123.183 8.61201C122.532 6.92584 121.206 4.93238 118.557 3.93807L117.854 5.81053C119.814 6.54611 120.804 8.00152 121.317 9.33175C121.574 9.99984 121.706 10.6241 121.772 11.0809C121.805 11.3082 121.821 11.491 121.829 11.6129C121.833 11.6738 121.835 11.7193 121.836 11.7473C121.837 11.7612 121.837 11.7708 121.837 11.7758C121.837 11.7783 121.837 11.7796 121.837 11.7797C121.837 11.7797 121.837 11.7795 121.837 11.7789C121.837 11.7787 121.837 11.7783 121.837 11.7779C121.837 11.7777 121.837 11.7773 121.837 11.7772C121.837 11.7768 121.837 11.7764 122.837 11.772ZM122.837 11.772C123.363 12.6224 123.363 12.6226 123.363 12.6228C123.363 12.6229 123.362 12.6231 123.362 12.6232C123.362 12.6234 123.361 12.6236 123.361 12.6237C123.361 12.624 123.36 12.6241 123.361 12.6241C123.361 12.6241 123.362 12.6234 123.364 12.6221C123.368 12.6196 123.376 12.6147 123.388 12.6076C123.413 12.5936 123.452 12.5712 123.506 12.5424C123.614 12.4846 123.777 12.4017 123.988 12.3091C124.41 12.1232 125.009 11.9037 125.712 11.7682C127.112 11.4984 128.871 11.5663 130.533 12.8385L131.749 11.2503C129.502 9.53061 127.108 9.46235 125.334 9.80434C124.45 9.97473 123.706 10.2482 123.182 10.4786C122.919 10.5943 122.709 10.7004 122.561 10.7797C122.487 10.8194 122.428 10.8525 122.386 10.8768C122.365 10.889 122.348 10.899 122.336 10.9066C122.329 10.9103 122.324 10.9135 122.32 10.9161C122.318 10.9173 122.316 10.9184 122.315 10.9194C122.314 10.9198 122.313 10.9203 122.313 10.9207C122.312 10.9209 122.312 10.9211 122.312 10.9212C122.311 10.9215 122.311 10.9217 122.837 11.772ZM130.533 12.8385C132.119 14.0521 132.838 16.3333 132.439 18.685C132.045 21.0066 130.58 23.2193 128.031 24.2398L128.775 26.0965C132.058 24.7815 133.917 21.9283 134.411 19.0199C134.9 16.1415 134.072 13.0286 131.749 11.2503L130.533 12.8385ZM128.031 24.2398C125.273 25.3446 121.938 25.7357 119.241 25.8396C117.903 25.8912 116.742 25.8714 115.917 25.8388C115.505 25.8225 115.178 25.803 114.955 25.7878C114.844 25.7802 114.759 25.7736 114.703 25.7691C114.675 25.7668 114.654 25.765 114.64 25.7638C114.633 25.7632 114.629 25.7628 114.626 25.7625C114.624 25.7624 114.623 25.7623 114.623 25.7623C114.622 25.7622 114.622 25.7622 114.622 25.7622C114.622 25.7622 114.622 25.7622 114.622 25.7622C114.622 25.7622 114.623 25.7623 114.53 26.758C114.438 27.7537 114.438 27.7537 114.438 27.7538C114.438 27.7538 114.439 27.7538 114.439 27.7538C114.439 27.7539 114.44 27.7539 114.441 27.754C114.442 27.7541 114.444 27.7543 114.447 27.7545C114.451 27.7549 114.458 27.7555 114.467 27.7563C114.484 27.7578 114.509 27.7599 114.541 27.7625C114.606 27.7677 114.699 27.7749 114.819 27.7831C115.059 27.7996 115.405 27.8201 115.838 27.8372C116.704 27.8714 117.918 27.8921 119.318 27.8381C122.1 27.731 125.702 27.3271 128.775 26.0965L128.031 24.2398ZM107.543 14.3273C108.127 17.5853 109.694 20.854 111.077 23.2698C111.773 24.4863 112.434 25.5049 112.922 26.2206C113.166 26.5787 113.367 26.8617 113.508 27.0564C113.578 27.1539 113.634 27.2293 113.673 27.2811C113.692 27.3069 113.707 27.3269 113.717 27.3408C113.723 27.3478 113.727 27.3532 113.73 27.357C113.731 27.359 113.732 27.3605 113.733 27.3617C113.733 27.3622 113.734 27.3627 113.734 27.3631C113.734 27.3633 113.734 27.3635 113.735 27.3636C113.735 27.3638 113.735 27.3639 114.53 26.758C115.326 26.152 115.326 26.1522 115.326 26.1522C115.326 26.1522 115.326 26.1523 115.326 26.1523C115.326 26.1523 115.326 26.1522 115.326 26.152C115.325 26.1516 115.325 26.1508 115.324 26.1496C115.322 26.1472 115.319 26.1433 115.315 26.1379C115.307 26.1271 115.294 26.1103 115.277 26.0876C115.244 26.0423 115.193 25.9736 115.128 25.8833C114.997 25.7026 114.807 25.4353 114.575 25.0945C114.11 24.4124 113.478 23.4384 112.813 22.276C111.471 19.9338 110.036 16.8988 109.511 13.974L107.543 14.3273ZM118.557 3.93807C115.818 2.90985 112.739 3.85789 110.558 5.79786C108.353 7.75804 106.918 10.8462 107.543 14.3273L109.511 13.974C109.026 11.2722 110.127 8.85725 111.886 7.29251C113.669 5.70756 115.985 5.10887 117.854 5.81053L118.557 3.93807Z" fill="#F3A447"/>
<path d="M353.696 313.06L352.782 312.653C352.558 313.157 352.784 313.747 353.287 313.973L353.696 313.06ZM353.696 313.06L354.61 313.466C354.718 313.224 354.725 312.949 354.63 312.701C354.535 312.454 354.345 312.254 354.103 312.146L353.696 313.06ZM353.196 312.837L352.789 313.751L353.196 312.837ZM341.468 316.303L342.308 316.846L341.468 316.303ZM340.848 326.964L341.806 326.679L341.806 326.679L340.848 326.964ZM341.459 329.779L340.459 329.779L340.459 329.779L341.459 329.779ZM340.867 332.461L339.956 332.049L340.867 332.461ZM340.623 333.002L339.71 332.595L340.623 333.002ZM340.289 333.752L339.376 333.345C339.151 333.85 339.378 334.441 339.883 334.666L340.289 333.752ZM343.257 335.073L344.171 335.48C344.395 334.975 344.168 334.384 343.664 334.16L343.257 335.073ZM343.257 335.074L342.343 334.667C342.119 335.171 342.346 335.763 342.85 335.987L343.257 335.074ZM346.757 336.632L346.35 337.546C346.592 337.653 346.868 337.661 347.115 337.566C347.363 337.471 347.563 337.281 347.67 337.039L346.757 336.632ZM347.33 335.339L348.246 335.74L348.246 335.74L347.33 335.339ZM348.927 333.105L349.596 333.847L348.927 333.105ZM351.428 331.675L351.858 332.578L351.428 331.675ZM358.936 324.08L359.901 324.341L359.901 324.341L358.936 324.08ZM354.61 313.467L354.61 313.466L352.783 312.653L352.782 312.653L354.61 313.467ZM354.103 312.146L353.603 311.923L352.789 313.751L353.289 313.973L354.103 312.146ZM353.603 311.923C351.877 311.155 349.639 310.554 347.301 310.948C344.919 311.349 342.567 312.76 340.628 315.76L342.308 316.846C343.977 314.263 345.865 313.217 347.633 312.92C349.443 312.615 351.265 313.072 352.789 313.751L353.603 311.923ZM340.628 315.76C337.76 320.196 339.053 324.437 339.889 327.249L341.806 326.679C340.96 323.832 339.984 320.44 342.308 316.846L340.628 315.76ZM339.889 327.249C340.234 328.41 340.459 329.202 340.459 329.779L342.459 329.78C342.46 328.843 342.118 327.726 341.806 326.679L339.889 327.249ZM340.459 329.779C340.459 330.483 340.444 330.738 340.393 330.957C340.341 331.185 340.244 331.41 339.956 332.049L341.778 332.873C342.037 332.299 342.236 331.87 342.343 331.404C342.451 330.929 342.459 330.449 342.459 329.78L340.459 329.779ZM339.956 332.049C339.884 332.208 339.802 332.389 339.71 332.595L341.537 333.409C341.626 333.208 341.706 333.032 341.778 332.873L339.956 332.049ZM339.71 332.595L339.376 333.345L341.203 334.159L341.537 333.409L339.71 332.595ZM339.883 334.666L342.85 335.987L343.664 334.16L340.696 332.838L339.883 334.666ZM344.17 335.48L344.171 335.48L342.343 334.667L342.343 334.667L344.17 335.48ZM347.164 335.718L343.664 334.16L342.85 335.987L346.35 337.546L347.164 335.718ZM346.177 335.475L345.843 336.225L347.67 337.039L348.004 336.289L346.177 335.475ZM346.414 334.937C346.344 335.098 346.267 335.275 346.177 335.475L348.004 336.289C348.096 336.082 348.176 335.9 348.246 335.74L346.414 334.937ZM348.257 332.362C347.76 332.81 347.408 333.136 347.128 333.535C346.853 333.926 346.667 334.361 346.414 334.937L348.246 335.74C348.528 335.098 348.63 334.876 348.764 334.685C348.894 334.5 349.073 334.319 349.596 333.847L348.257 332.362ZM350.998 330.772C350.012 331.241 348.953 331.735 348.257 332.362L349.596 333.847C350.025 333.461 350.763 333.099 351.858 332.578L350.998 330.772ZM357.97 323.82C356.854 327.951 353.68 329.496 350.998 330.772L351.858 332.578C354.507 331.318 358.523 329.441 359.901 324.341L357.97 323.82ZM353.287 313.973C354.807 314.654 356.357 315.703 357.334 317.251C358.289 318.762 358.77 320.86 357.97 323.82L359.901 324.341C360.83 320.904 360.312 318.219 359.025 316.183C357.762 314.182 355.828 312.92 354.105 312.148L353.287 313.973Z" fill="#F3A447"/>
<path d="M354.248 322.766C354.106 323.299 354.424 323.847 354.958 323.989C355.491 324.13 356.039 323.813 356.181 323.279L354.248 322.766ZM353.64 316.027C353.194 315.701 352.568 315.799 352.243 316.246C351.917 316.692 352.015 317.317 352.462 317.643L353.64 316.027ZM356.181 323.279C356.513 322.029 356.594 320.72 356.208 319.447C355.819 318.162 354.982 317.005 353.64 316.027L352.462 317.643C353.504 318.403 354.048 319.215 354.294 320.027C354.543 320.85 354.513 321.765 354.248 322.766L356.181 323.279Z" fill="#F3A447"/>
<path d="M339.422 336.961L344.922 339.41M338.591 340.188L343.111 342.2" stroke="#F3A447" stroke-width="2" stroke-linecap="round"/>
<path fill-rule="evenodd" clip-rule="evenodd" d="M163.021 275.689C164.053 277.01 163.819 278.917 162.498 279.949C161.178 280.98 159.271 280.746 158.239 279.426C157.207 278.105 157.441 276.198 158.762 275.166C160.082 274.134 161.989 274.369 163.021 275.689ZM165.149 281.558C167.044 279.422 167.206 276.173 165.385 273.842C163.333 271.216 159.541 270.75 156.915 272.802C154.289 274.854 153.823 278.646 155.875 281.273C156.384 281.924 157 282.442 157.678 282.823L154.515 291.364C152.933 291.127 151.261 291.514 149.901 292.577C147.275 294.628 146.809 298.421 148.861 301.047C150.913 303.673 154.705 304.139 157.332 302.087C158.613 301.086 159.38 299.67 159.591 298.178L168.884 297.06C169.081 297.867 169.448 298.646 169.993 299.343C172.044 301.969 175.837 302.434 178.463 300.383C181.089 298.331 181.555 294.538 179.503 291.912C177.682 289.581 174.49 288.952 171.959 290.275L165.149 281.558ZM169.722 292.284L162.658 283.243C161.988 283.482 161.289 283.597 160.593 283.592L157.28 292.535C157.68 292.841 158.047 293.202 158.372 293.617C158.756 294.108 159.052 294.641 159.262 295.196L168.927 294.033C169.095 293.418 169.361 292.826 169.722 292.284ZM156.008 295.464C157.039 296.784 156.805 298.691 155.485 299.723C154.164 300.755 152.257 300.521 151.225 299.2C150.193 297.879 150.428 295.972 151.748 294.941C153.069 293.909 154.976 294.143 156.008 295.464ZM176.616 298.019C177.937 296.987 178.171 295.08 177.139 293.759C176.107 292.438 174.2 292.204 172.88 293.236C171.559 294.268 171.325 296.175 172.357 297.496C173.388 298.816 175.295 299.05 176.616 298.019Z" fill="#F3A345"/>
<g filter="url(#filter1_bdi)">
<mask id="path-9-inside-1" fill="white">
<path fill-rule="evenodd" clip-rule="evenodd" d="M104.419 59.5589C70.6283 60.926 41.6495 82.6575 36.1538 116.026C34.5951 125.49 33.2744 136.175 32.4458 148.026C31.1934 165.935 31.4244 181.364 32.297 194.004C34.0837 219.883 51.4338 240.799 76.5192 247.407C76.9921 247.532 77.4695 247.656 77.9514 247.781L79.6033 269.262C79.8328 272.246 83.1384 273.93 85.6877 272.362L113.809 255.06C126.277 256.976 140.326 258.555 155.981 259.518C190.707 261.653 217.994 260.192 237.706 257.871C262.577 254.944 282.859 238.205 289.134 213.961C292.491 200.989 295.447 184.952 296.498 166.49C297.22 153.798 297.053 142.128 296.392 131.748C294.318 99.1434 269.113 74.7677 236.997 68.7774C217.625 65.1643 194.3 61.7192 169.922 60.1455C146.422 58.6285 123.661 58.7804 104.419 59.5589Z"/>
</mask>
<path fill-rule="evenodd" clip-rule="evenodd" d="M104.419 59.5589C70.6283 60.926 41.6495 82.6575 36.1538 116.026C34.5951 125.49 33.2744 136.175 32.4458 148.026C31.1934 165.935 31.4244 181.364 32.297 194.004C34.0837 219.883 51.4338 240.799 76.5192 247.407C76.9921 247.532 77.4695 247.656 77.9514 247.781L79.6033 269.262C79.8328 272.246 83.1384 273.93 85.6877 272.362L113.809 255.06C126.277 256.976 140.326 258.555 155.981 259.518C190.707 261.653 217.994 260.192 237.706 257.871C262.577 254.944 282.859 238.205 289.134 213.961C292.491 200.989 295.447 184.952 296.498 166.49C297.22 153.798 297.053 142.128 296.392 131.748C294.318 99.1434 269.113 74.7677 236.997 68.7774C217.625 65.1643 194.3 61.7192 169.922 60.1455C146.422 58.6285 123.661 58.7804 104.419 59.5589Z" fill="url(#paint1_radial)" fill-opacity="0.7"/>
<path d="M36.1538 116.026L37.1405 116.189L36.1538 116.026ZM104.419 59.5589L104.379 58.5597L104.419 59.5589ZM32.297 194.004L31.2994 194.073L31.2994 194.073L32.297 194.004ZM76.5192 247.407L76.2645 248.374L76.2645 248.374L76.5192 247.407ZM77.9514 247.781L78.9485 247.704L78.8937 246.991L78.2015 246.812L77.9514 247.781ZM79.6033 269.262L78.6063 269.338L78.6063 269.338L79.6033 269.262ZM85.6877 272.362L86.2117 273.214L86.2117 273.214L85.6877 272.362ZM113.809 255.06L113.961 254.071L113.598 254.015L113.285 254.208L113.809 255.06ZM155.981 259.518L156.042 258.52L156.042 258.52L155.981 259.518ZM237.706 257.871L237.823 258.865L237.823 258.865L237.706 257.871ZM289.134 213.961L288.166 213.71L288.166 213.71L289.134 213.961ZM296.498 166.49L295.499 166.433L295.499 166.433L296.498 166.49ZM296.392 131.748L297.39 131.684L297.39 131.684L296.392 131.748ZM236.997 68.7774L237.18 67.7944L237.18 67.7944L236.997 68.7774ZM169.922 60.1455L169.987 59.1476L169.922 60.1455ZM37.1405 116.189C42.5465 83.365 71.0601 61.9093 104.459 60.558L104.379 58.5597C70.1966 59.9426 40.7526 81.95 35.1671 115.864L37.1405 116.189ZM33.4433 148.095C34.2698 136.277 35.5867 125.623 37.1405 116.189L35.1671 115.864C33.6035 125.358 32.2791 136.073 31.4482 147.956L33.4433 148.095ZM33.2946 193.935C32.425 181.339 32.1944 165.956 33.4433 148.095L31.4482 147.956C30.1925 165.914 30.4237 181.39 31.2994 194.073L33.2946 193.935ZM76.7739 246.44C52.1019 239.941 35.0517 219.385 33.2946 193.935L31.2994 194.073C33.1157 220.381 50.7658 241.657 76.2645 248.374L76.7739 246.44ZM78.2015 246.812C77.7212 246.688 77.2453 246.564 76.7739 246.44L76.2645 248.374C76.7389 248.499 77.2179 248.624 77.7013 248.749L78.2015 246.812ZM76.9544 247.857L78.6063 269.338L80.6004 269.185L78.9485 247.704L76.9544 247.857ZM78.6063 269.338C78.8932 273.069 83.0252 275.174 86.2117 273.214L85.1636 271.51C83.2517 272.686 80.7725 271.423 80.6004 269.185L78.6063 269.338ZM86.2117 273.214L114.333 255.911L113.285 254.208L85.1636 271.51L86.2117 273.214ZM156.042 258.52C140.417 257.559 126.399 255.983 113.961 254.071L113.657 256.048C126.155 257.969 140.234 259.552 155.919 260.516L156.042 258.52ZM237.589 256.878C217.935 259.192 190.708 260.651 156.042 258.52L155.919 260.516C190.706 262.655 218.052 261.192 237.823 258.865L237.589 256.878ZM288.166 213.71C282.001 237.531 262.075 253.996 237.589 256.878L237.823 258.865C263.078 255.892 283.718 238.879 290.102 214.212L288.166 213.71ZM295.499 166.433C294.453 184.822 291.509 200.794 288.166 213.71L290.102 214.212C293.474 201.184 296.442 185.082 297.496 166.547L295.499 166.433ZM295.394 131.811C296.053 142.155 296.219 153.785 295.499 166.433L297.496 166.547C298.221 153.812 298.053 142.101 297.39 131.684L295.394 131.811ZM236.813 69.7604C268.556 75.681 293.353 99.7365 295.394 131.811L297.39 131.684C295.282 98.5502 269.67 73.8544 237.18 67.7944L236.813 69.7604ZM169.858 61.1435C194.185 62.7139 217.469 66.1525 236.813 69.7604L237.18 67.7944C217.781 64.1761 194.414 60.7245 169.987 59.1476L169.858 61.1435ZM104.459 60.558C123.677 59.7805 146.401 59.6292 169.858 61.1435L169.987 59.1476C146.443 57.6277 123.646 57.7802 104.379 58.5597L104.459 60.558Z" fill="url(#paint2_radial)" mask="url(#path-9-inside-1)"/>
</g>
<path d="M103.17 101.187L102.969 105.015L109.045 105.334L108.941 107.311L102.865 106.993L102.613 111.81L100.276 111.688L100.935 99.1049L110.121 99.5863L110.018 101.546L103.17 101.187ZM115.55 112.614C114.579 112.563 113.715 112.308 112.958 111.848C112.201 111.387 111.621 110.774 111.216 110.008C110.824 109.23 110.653 108.368 110.703 107.421C110.752 106.475 111.012 105.641 111.483 104.921C111.965 104.201 112.607 103.652 113.408 103.273C114.209 102.895 115.094 102.731 116.065 102.782C117.048 102.833 117.918 103.089 118.674 103.549C119.431 104.01 120.006 104.623 120.399 105.388C120.803 106.154 120.98 107.011 120.931 107.957C120.881 108.904 120.615 109.743 120.132 110.475C119.662 111.195 119.026 111.745 118.225 112.124C117.424 112.502 116.532 112.666 115.55 112.614ZM115.651 110.691C116.477 110.734 117.175 110.494 117.743 109.971C118.311 109.448 118.619 108.738 118.666 107.839C118.713 106.94 118.481 106.201 117.971 105.621C117.461 105.042 116.792 104.73 115.965 104.687C115.138 104.644 114.441 104.884 113.873 105.407C113.317 105.93 113.015 106.641 112.968 107.54C112.921 108.439 113.146 109.178 113.645 109.757C114.155 110.336 114.824 110.648 115.651 110.691ZM125.397 104.785C126.096 103.812 127.261 103.369 128.891 103.454L128.779 105.593C128.589 105.547 128.416 105.52 128.26 105.512C127.386 105.466 126.689 105.688 126.171 106.177C125.653 106.655 125.369 107.373 125.319 108.332L125.075 112.987L122.828 112.87L123.331 103.271L125.47 103.383L125.397 104.785ZM140.301 100.411L139.602 113.749L137.445 113.636L137.51 112.395C137.114 112.831 136.635 113.148 136.072 113.347C135.521 113.547 134.916 113.629 134.256 113.595C133.334 113.546 132.512 113.299 131.79 112.853C131.08 112.407 130.535 111.801 130.155 111.036C129.775 110.26 129.61 109.386 129.661 108.415C129.712 107.444 129.967 106.599 130.425 105.878C130.883 105.157 131.489 104.611 132.241 104.242C133.005 103.874 133.849 103.714 134.772 103.762C135.407 103.795 135.982 103.934 136.498 104.177C137.014 104.42 137.447 104.767 137.796 105.218L138.054 100.293L140.301 100.411ZM134.627 111.685C135.166 111.714 135.658 111.619 136.102 111.402C136.546 111.173 136.906 110.838 137.182 110.395C137.457 109.953 137.611 109.432 137.642 108.833C137.674 108.234 137.575 107.7 137.348 107.232C137.12 106.763 136.797 106.398 136.378 106.135C135.96 105.861 135.481 105.71 134.942 105.682C134.402 105.653 133.91 105.754 133.466 105.983C133.022 106.2 132.662 106.529 132.387 106.972C132.111 107.414 131.958 107.935 131.926 108.534C131.895 109.133 131.993 109.667 132.221 110.135C132.449 110.604 132.772 110.975 133.19 111.25C133.609 111.512 134.088 111.657 134.627 111.685ZM143.044 104.304L145.291 104.422L144.788 114.02L142.541 113.903L143.044 104.304ZM144.26 102.781C143.852 102.76 143.517 102.616 143.255 102.35C142.993 102.072 142.872 101.741 142.892 101.358C142.912 100.974 143.067 100.664 143.355 100.427C143.645 100.178 143.993 100.064 144.401 100.085C144.808 100.106 145.143 100.25 145.406 100.516C145.669 100.77 145.79 101.083 145.771 101.455C145.75 101.85 145.595 102.178 145.305 102.44C145.027 102.689 144.679 102.803 144.26 102.781ZM162.196 105.307L157.576 114.691L155.257 114.569L151.644 104.755L153.981 104.877L156.592 112.152L160.039 105.194L162.196 105.307ZM163.6 105.381L165.847 105.499L165.344 115.098L163.097 114.98L163.6 105.381ZM164.815 103.859C164.408 103.837 164.073 103.694 163.81 103.427C163.549 103.149 163.428 102.819 163.448 102.435C163.468 102.052 163.622 101.741 163.911 101.504C164.201 101.255 164.549 101.141 164.957 101.162C165.364 101.184 165.699 101.327 165.961 101.593C166.224 101.848 166.346 102.16 166.327 102.532C166.306 102.927 166.151 103.256 165.861 103.517C165.583 103.767 165.235 103.881 164.815 103.859ZM182.751 106.385L178.132 115.768L175.813 115.646L172.2 105.832L174.537 105.954L177.148 113.229L180.594 106.272L182.751 106.385ZM184.156 106.458L186.403 106.576L185.9 116.175L183.653 116.057L184.156 106.458ZM185.371 104.936C184.964 104.915 184.629 104.771 184.366 104.505C184.104 104.227 183.984 103.896 184.004 103.512C184.024 103.129 184.178 102.819 184.467 102.581C184.756 102.332 185.105 102.218 185.512 102.24C185.92 102.261 186.255 102.405 186.517 102.671C186.78 102.925 186.902 103.238 186.883 103.609C186.862 104.005 186.706 104.333 186.416 104.594C186.139 104.844 185.79 104.958 185.371 104.936ZM189.548 102.992L191.795 103.11L191.096 116.447L188.849 116.33L189.548 102.992ZM209.113 104.017L208.414 117.355L206.257 117.242L206.322 116.002C205.926 116.437 205.447 116.755 204.884 116.954C204.333 117.153 203.727 117.235 203.068 117.201C202.146 117.153 201.323 116.905 200.602 116.459C199.892 116.013 199.347 115.408 198.967 114.643C198.587 113.866 198.422 112.992 198.473 112.021C198.524 111.051 198.779 110.205 199.237 109.484C199.695 108.763 200.301 108.218 201.053 107.849C201.817 107.48 202.661 107.32 203.584 107.368C204.219 107.402 204.794 107.54 205.31 107.783C205.826 108.027 206.259 108.374 206.608 108.825L206.866 103.899L209.113 104.017ZM203.439 115.292C203.978 115.32 204.47 115.226 204.914 115.008C205.358 114.779 205.718 114.444 205.994 114.002C206.269 113.559 206.423 113.039 206.454 112.44C206.486 111.84 206.387 111.307 206.16 110.838C205.932 110.369 205.608 110.004 205.19 109.742C204.771 109.467 204.293 109.316 203.753 109.288C203.214 109.26 202.722 109.36 202.278 109.589C201.834 109.806 201.474 110.136 201.198 110.578C200.923 111.02 200.769 111.541 200.738 112.14C200.707 112.739 200.805 113.273 201.033 113.742C201.26 114.21 201.583 114.582 202.002 114.856C202.42 115.118 202.899 115.263 203.439 115.292ZM220.625 113.236C220.617 113.392 220.593 113.613 220.554 113.9L213.023 113.505C213.118 114.219 213.43 114.8 213.959 115.248C214.501 115.685 215.185 115.925 216.012 115.969C217.066 116.024 217.954 115.722 218.673 115.063L219.805 116.51C219.346 117.003 218.781 117.363 218.108 117.593C217.435 117.822 216.685 117.915 215.858 117.871C214.804 117.816 213.886 117.558 213.105 117.096C212.324 116.635 211.731 116.021 211.327 115.254C210.935 114.477 210.764 113.615 210.814 112.668C210.863 111.733 211.116 110.905 211.575 110.184C212.046 109.452 212.669 108.896 213.446 108.516C214.223 108.136 215.085 107.971 216.032 108.021C216.967 108.07 217.788 108.323 218.498 108.781C219.219 109.227 219.764 109.839 220.132 110.615C220.512 111.38 220.677 112.254 220.625 113.236ZM215.938 109.818C215.219 109.781 214.596 109.964 214.07 110.369C213.557 110.763 213.228 111.311 213.083 112.012L218.53 112.297C218.47 111.597 218.206 111.019 217.737 110.562C217.269 110.104 216.669 109.857 215.938 109.818ZM223.234 104.757L225.481 104.875L224.782 118.213L222.535 118.095L223.234 104.757ZM237.003 114.095C236.995 114.25 236.971 114.472 236.932 114.758L229.401 114.363C229.495 115.077 229.807 115.658 230.337 116.107C230.879 116.543 231.563 116.784 232.39 116.827C233.444 116.882 234.331 116.58 235.051 115.921L236.183 117.368C235.724 117.861 235.159 118.222 234.486 118.451C233.813 118.68 233.063 118.773 232.236 118.73C231.182 118.674 230.264 118.416 229.483 117.954C228.702 117.493 228.109 116.879 227.705 116.113C227.313 115.335 227.142 114.473 227.191 113.526C227.24 112.592 227.494 111.764 227.952 111.043C228.423 110.31 229.047 109.754 229.824 109.374C230.601 108.995 231.463 108.829 232.41 108.879C233.345 108.928 234.166 109.181 234.875 109.639C235.597 110.086 236.142 110.697 236.51 111.473C236.89 112.238 237.055 113.112 237.003 114.095ZM232.316 110.677C231.597 110.639 230.974 110.823 230.448 111.228C229.935 111.621 229.606 112.169 229.461 112.87L234.907 113.156C234.848 112.456 234.584 111.877 234.115 111.42C233.646 110.963 233.047 110.715 232.316 110.677ZM62.0803 143.21C61.8054 143.412 61.4733 143.557 61.0842 143.644C60.707 143.733 60.3088 143.766 59.8893 143.744C58.8348 143.689 58.0344 143.37 57.488 142.789C56.9417 142.207 56.6962 141.39 56.7514 140.335L56.9936 135.715L55.4117 135.632L55.5059 133.835L57.0878 133.918L57.2027 131.725L59.4496 131.843L59.3347 134.036L61.9051 134.17L61.8109 135.968L59.2405 135.833L59.0012 140.399C58.9767 140.866 59.0717 141.232 59.2862 141.495C59.5013 141.747 59.8246 141.884 60.256 141.907C60.7593 141.933 61.1856 141.823 61.535 141.577L62.0803 143.21ZM72.8577 139.539C72.8495 139.695 72.8259 139.916 72.7869 140.202L65.2552 139.807C65.35 140.521 65.662 141.102 66.1913 141.551C66.7331 141.988 67.4175 142.228 68.2444 142.271C69.2989 142.326 70.1859 142.024 70.9054 141.365L72.0372 142.812C71.5788 143.305 71.0132 143.666 70.3403 143.895C69.6673 144.124 68.9175 144.217 68.0906 144.174C67.036 144.118 66.1183 143.86 65.3374 143.399C64.5565 142.937 63.9638 142.323 63.5593 141.557C63.1675 140.779 62.9964 139.917 63.046 138.971C63.095 138.036 63.3486 137.208 63.807 136.487C64.278 135.755 64.9019 135.198 65.6789 134.819C66.4558 134.439 67.3177 134.274 68.2644 134.323C69.1991 134.372 70.0209 134.626 70.73 135.083C71.4516 135.53 71.9963 136.141 72.3642 136.917C72.7447 137.682 72.9092 138.556 72.8577 139.539ZM68.1702 136.121C67.4511 136.083 66.8287 136.267 66.3028 136.672C65.7894 137.065 65.4603 137.613 65.3154 138.314L70.762 138.6C70.7025 137.9 70.4384 137.321 69.9697 136.864C69.501 136.407 68.9011 136.159 68.1702 136.121ZM78.9016 140.486L77.147 141.981L77.0142 144.515L74.7673 144.397L75.4663 131.06L77.7132 131.177L77.2912 139.23L82.1729 135.16L84.8692 135.302L80.6497 139.118L84.7436 144.92L82.0114 144.777L78.9016 140.486ZM92.0624 135.57C93.2728 135.634 94.2249 136.038 94.9189 136.784C95.6128 137.529 95.9233 138.597 95.8505 139.987L95.5622 145.487L93.3153 145.369L93.5885 140.157C93.6325 139.318 93.4677 138.678 93.0942 138.238C92.7214 137.786 92.1695 137.541 91.4385 137.502C90.6116 137.459 89.9453 137.677 89.4396 138.155C88.9345 138.621 88.6575 139.321 88.6085 140.256L88.3541 145.109L86.1072 144.992L86.6103 135.393L88.7493 135.505L88.6843 136.745C89.079 136.321 89.564 136.01 90.1391 135.812C90.7143 135.614 91.3554 135.533 92.0624 135.57ZM102.808 145.993C101.837 145.942 100.973 145.687 100.216 145.226C99.4595 144.766 98.8788 144.153 98.4743 143.387C98.0825 142.609 97.9113 141.747 97.961 140.8C98.0106 139.854 98.2706 139.02 98.7409 138.3C99.2232 137.58 99.8649 137.031 100.666 136.652C101.467 136.274 102.352 136.11 103.323 136.161C104.306 136.212 105.176 136.468 105.933 136.928C106.689 137.388 107.264 138.001 107.657 138.767C108.061 139.533 108.239 140.39 108.189 141.336C108.139 142.283 107.873 143.122 107.39 143.854C106.92 144.574 106.284 145.124 105.483 145.502C104.682 145.881 103.79 146.045 102.808 145.993ZM102.909 144.07C103.735 144.113 104.433 143.873 105.001 143.35C105.569 142.827 105.877 142.116 105.924 141.218C105.971 140.319 105.74 139.58 105.229 139C104.719 138.421 104.05 138.109 103.223 138.066C102.396 138.023 101.699 138.262 101.131 138.785C100.575 139.309 100.273 140.02 100.226 140.919C100.179 141.818 100.404 142.557 100.903 143.136C101.413 143.715 102.082 144.026 102.909 144.07ZM110.785 132.911L113.032 133.028L112.333 146.366L110.086 146.248L110.785 132.911ZM119.589 146.873C118.619 146.822 117.755 146.566 116.998 146.106C116.241 145.646 115.66 145.032 115.256 144.266C114.864 143.489 114.693 142.627 114.743 141.68C114.792 140.733 115.052 139.9 115.523 139.179C116.005 138.459 116.647 137.91 117.447 137.532C118.248 137.153 119.134 136.989 120.105 137.04C121.087 137.092 121.957 137.347 122.714 137.808C123.471 138.268 124.046 138.881 124.438 139.646C124.843 140.413 125.02 141.269 124.971 142.216C124.921 143.163 124.655 144.002 124.172 144.734C123.701 145.454 123.066 146.003 122.265 146.382C121.464 146.761 120.572 146.924 119.589 146.873ZM119.69 144.949C120.517 144.993 121.215 144.753 121.783 144.23C122.351 143.707 122.659 142.996 122.706 142.097C122.753 141.198 122.521 140.459 122.011 139.88C121.5 139.3 120.832 138.989 120.005 138.945C119.178 138.902 118.481 139.142 117.912 139.665C117.356 140.189 117.055 140.9 117.008 141.799C116.96 142.697 117.186 143.436 117.684 144.015C118.195 144.595 118.863 144.906 119.69 144.949ZM136.898 138.028L136.471 146.171C136.294 149.551 134.48 151.15 131.028 150.969C130.106 150.921 129.237 150.755 128.423 150.472C127.608 150.201 126.942 149.829 126.426 149.358L127.522 147.721C127.923 148.09 128.436 148.394 129.06 148.631C129.696 148.88 130.343 149.022 131.002 149.057C132.057 149.112 132.842 148.913 133.359 148.459C133.875 148.006 134.159 147.288 134.211 146.305L134.237 145.802C133.832 146.201 133.348 146.494 132.785 146.681C132.223 146.868 131.612 146.944 130.953 146.909C130.042 146.862 129.225 146.627 128.502 146.204C127.792 145.77 127.24 145.189 126.845 144.459C126.463 143.73 126.296 142.91 126.343 141.999C126.391 141.089 126.643 140.297 127.099 139.624C127.567 138.939 128.177 138.424 128.928 138.079C129.691 137.735 130.528 137.586 131.439 137.634C132.134 137.671 132.757 137.817 133.308 138.075C133.872 138.332 134.333 138.705 134.692 139.192L134.759 137.916L136.898 138.028ZM131.394 145.022C132.245 145.066 132.953 144.851 133.519 144.376C134.097 143.89 134.408 143.239 134.45 142.424C134.492 141.621 134.251 140.954 133.726 140.422C133.213 139.89 132.531 139.602 131.68 139.557C130.818 139.512 130.097 139.727 129.52 140.201C128.954 140.676 128.65 141.315 128.608 142.118C128.566 142.933 128.8 143.612 129.313 144.156C129.837 144.688 130.531 144.977 131.394 145.022ZM139.852 138.183L142.099 138.301L141.596 147.9L139.349 147.782L139.852 138.183ZM141.067 136.661C140.66 136.639 140.325 136.496 140.062 136.229C139.8 135.951 139.68 135.621 139.7 135.237C139.72 134.854 139.874 134.543 140.163 134.306C140.452 134.057 140.801 133.943 141.208 133.964C141.616 133.986 141.951 134.129 142.213 134.396C142.476 134.65 142.598 134.962 142.578 135.334C142.558 135.729 142.402 136.058 142.112 136.319C141.835 136.569 141.486 136.683 141.067 136.661ZM153.817 143.782C153.809 143.937 153.785 144.159 153.746 144.445L146.214 144.05C146.309 144.764 146.621 145.345 147.15 145.794C147.692 146.231 148.377 146.471 149.204 146.514C150.258 146.569 151.145 146.267 151.865 145.608L152.996 147.055C152.538 147.548 151.972 147.909 151.299 148.138C150.627 148.367 149.877 148.46 149.05 148.417C147.995 148.361 147.078 148.103 146.297 147.641C145.516 147.18 144.923 146.566 144.519 145.8C144.127 145.022 143.956 144.16 144.005 143.213C144.054 142.279 144.308 141.451 144.766 140.73C145.237 139.997 145.861 139.441 146.638 139.062C147.415 138.682 148.277 138.517 149.224 138.566C150.158 138.615 150.98 138.869 151.689 139.326C152.411 139.773 152.956 140.384 153.323 141.16C153.704 141.925 153.868 142.799 153.817 143.782ZM149.129 140.364C148.41 140.326 147.788 140.51 147.262 140.915C146.749 141.308 146.42 141.856 146.275 142.557L151.721 142.843C151.662 142.143 151.398 141.564 150.929 141.107C150.46 140.65 149.86 140.402 149.129 140.364ZM161.682 139.219C162.892 139.282 163.844 139.687 164.538 140.432C165.232 141.178 165.543 142.245 165.47 143.635L165.182 149.136L162.935 149.018L163.208 143.805C163.252 142.966 163.087 142.327 162.714 141.887C162.341 141.435 161.789 141.189 161.058 141.151C160.231 141.108 159.565 141.325 159.059 141.803C158.554 142.27 158.277 142.97 158.228 143.905L157.973 148.758L155.727 148.64L156.23 139.041L158.369 139.154L158.304 140.394C158.698 139.97 159.183 139.659 159.758 139.461C160.334 139.263 160.975 139.182 161.682 139.219ZM177.392 145.017C177.384 145.173 177.36 145.394 177.321 145.68L169.79 145.286C169.884 146 170.196 146.581 170.726 147.029C171.267 147.466 171.952 147.706 172.779 147.75C173.833 147.805 174.72 147.503 175.44 146.844L176.572 148.291C176.113 148.783 175.547 149.144 174.875 149.373C174.202 149.603 173.452 149.695 172.625 149.652C171.57 149.597 170.653 149.338 169.872 148.877C169.091 148.415 168.498 147.802 168.094 147.035C167.702 146.258 167.531 145.396 167.58 144.449C167.629 143.514 167.883 142.686 168.341 141.965C168.812 141.233 169.436 140.677 170.213 140.297C170.99 139.917 171.852 139.752 172.799 139.802C173.733 139.851 174.555 140.104 175.264 140.562C175.986 141.008 176.531 141.619 176.898 142.396C177.279 143.161 177.443 144.035 177.392 145.017ZM172.704 141.599C171.985 141.562 171.363 141.745 170.837 142.15C170.324 142.544 169.995 143.091 169.85 143.793L175.296 144.078C175.237 143.378 174.973 142.8 174.504 142.342C174.035 141.885 173.435 141.638 172.704 141.599ZM193.76 141.008L189.141 150.391L186.822 150.27L183.209 140.455L185.545 140.578L188.156 147.852L191.603 140.895L193.76 141.008ZM195.164 141.082L197.411 141.2L196.908 150.799L194.661 150.681L195.164 141.082ZM196.38 139.559C195.972 139.538 195.637 139.394 195.375 139.128C195.113 138.85 194.992 138.519 195.012 138.136C195.032 137.752 195.187 137.442 195.476 137.205C195.765 136.956 196.114 136.842 196.521 136.863C196.929 136.885 197.263 137.028 197.526 137.294C197.789 137.548 197.911 137.861 197.891 138.233C197.871 138.628 197.715 138.957 197.425 139.218C197.148 139.468 196.799 139.581 196.38 139.559ZM210.655 141.786C211.589 141.835 212.411 142.082 213.121 142.528C213.843 142.974 214.394 143.58 214.774 144.345C215.155 145.11 215.32 145.978 215.269 146.948C215.218 147.919 214.963 148.771 214.504 149.504C214.046 150.225 213.434 150.769 212.67 151.138C211.917 151.507 211.074 151.667 210.139 151.618C209.48 151.584 208.881 151.438 208.342 151.181C207.814 150.926 207.377 150.56 207.029 150.085L206.964 151.326L204.825 151.213L205.524 137.876L207.771 137.994L207.514 142.901C207.919 142.501 208.385 142.207 208.912 142.019C209.451 141.831 210.031 141.753 210.655 141.786ZM209.988 149.682C210.815 149.725 211.507 149.485 212.063 148.961C212.631 148.438 212.939 147.727 212.986 146.829C213.033 145.93 212.801 145.191 212.291 144.611C211.793 144.032 211.13 143.721 210.303 143.678C209.764 143.65 209.272 143.75 208.827 143.979C208.383 144.196 208.024 144.526 207.748 144.968C207.472 145.41 207.319 145.931 207.288 146.53C207.256 147.129 207.354 147.663 207.582 148.132C207.81 148.6 208.133 148.972 208.551 149.246C208.97 149.508 209.449 149.653 209.988 149.682ZM219.717 143.775C220.417 142.802 221.581 142.358 223.211 142.444L223.099 144.583C222.909 144.537 222.736 144.51 222.581 144.502C221.706 144.456 221.009 144.678 220.491 145.167C219.973 145.645 219.689 146.363 219.639 147.321L219.395 151.977L217.148 151.859L217.651 142.26L219.79 142.373L219.717 143.775ZM233.793 147.973C233.785 148.129 233.761 148.35 233.722 148.636L226.191 148.242C226.285 148.956 226.597 149.537 227.127 149.985C227.669 150.422 228.353 150.662 229.18 150.705C230.234 150.761 231.121 150.459 231.841 149.799L232.973 151.247C232.514 151.739 231.949 152.1 231.276 152.329C230.603 152.558 229.853 152.651 229.026 152.608C227.971 152.553 227.054 152.294 226.273 151.833C225.492 151.371 224.899 150.757 224.495 149.991C224.103 149.214 223.932 148.351 223.981 147.405C224.03 146.47 224.284 145.642 224.742 144.921C225.213 144.189 225.837 143.633 226.614 143.253C227.391 142.873 228.253 142.708 229.2 142.758C230.134 142.807 230.956 143.06 231.665 143.518C232.387 143.964 232.932 144.575 233.3 145.352C233.68 146.117 233.845 146.99 233.793 147.973ZM229.106 144.555C228.387 144.517 227.764 144.701 227.238 145.106C226.725 145.5 226.396 146.047 226.251 146.749L231.697 147.034C231.638 146.334 231.374 145.755 230.905 145.298C230.436 144.841 229.837 144.593 229.106 144.555ZM241.658 143.41C242.868 143.474 243.82 143.878 244.514 144.624C245.208 145.369 245.519 146.437 245.446 147.827L245.158 153.327L242.911 153.209L243.184 147.997C243.228 147.158 243.063 146.518 242.69 146.078C242.317 145.626 241.765 145.381 241.034 145.342C240.207 145.299 239.541 145.517 239.035 145.995C238.53 146.461 238.253 147.161 238.204 148.096L237.95 152.949L235.703 152.832L236.206 143.233L238.345 143.345L238.28 144.585C238.675 144.161 239.159 143.85 239.735 143.652C240.31 143.454 240.951 143.373 241.658 143.41ZM253.963 144.055C255.174 144.119 256.126 144.523 256.82 145.268C257.514 146.014 257.824 147.082 257.751 148.472L257.463 153.972L255.216 153.854L255.489 148.641C255.533 147.803 255.369 147.163 254.995 146.723C254.622 146.271 254.07 146.026 253.339 145.987C252.512 145.944 251.846 146.161 251.34 146.64C250.835 147.106 250.558 147.806 250.509 148.741L250.255 153.594L248.008 153.477L248.511 143.878L250.65 143.99L250.585 145.23C250.98 144.806 251.465 144.495 252.04 144.297C252.615 144.099 253.256 144.018 253.963 144.055ZM269.674 149.853C269.665 150.009 269.642 150.23 269.603 150.517L262.071 150.122C262.166 150.836 262.478 151.417 263.007 151.865C263.549 152.302 264.233 152.542 265.06 152.586C266.115 152.641 267.002 152.339 267.721 151.68L268.853 153.127C268.395 153.62 267.829 153.981 267.156 154.21C266.483 154.439 265.733 154.532 264.906 154.488C263.852 154.433 262.934 154.175 262.153 153.713C261.372 153.252 260.78 152.638 260.375 151.872C259.983 151.094 259.812 150.232 259.862 149.285C259.911 148.35 260.164 147.523 260.623 146.802C261.094 146.069 261.718 145.513 262.495 145.133C263.272 144.753 264.133 144.588 265.08 144.638C266.015 144.687 266.837 144.94 267.546 145.398C268.267 145.844 268.812 146.456 269.18 147.232C269.561 147.997 269.725 148.871 269.674 149.853ZM264.986 146.435C264.267 146.398 263.645 146.581 263.119 146.987C262.605 147.38 262.276 147.928 262.131 148.629L267.578 148.915C267.518 148.214 267.254 147.636 266.786 147.179C266.317 146.722 265.717 146.474 264.986 146.435ZM274.152 146.627C274.852 145.655 276.016 145.211 277.646 145.297L277.534 147.436C277.344 147.39 277.171 147.362 277.016 147.354C276.141 147.308 275.444 147.53 274.926 148.02C274.408 148.497 274.124 149.216 274.074 150.174L273.83 154.83L271.583 154.712L272.086 145.113L274.225 145.225L274.152 146.627ZM80.9308 167.087C79.9841 167.037 79.4837 167.528 79.4297 168.559L79.3996 169.134L82.0419 169.272L81.9477 171.07L79.3773 170.935L78.9722 178.664L76.7253 178.547L77.1303 170.817L75.5485 170.734L75.6427 168.937L77.2246 169.02L77.2566 168.409C77.3106 167.378 77.6526 166.585 78.2825 166.029C78.9131 165.461 79.7736 165.206 80.8641 165.263C81.727 165.308 82.3949 165.518 82.868 165.891L82.1504 167.548C81.7807 167.264 81.3742 167.11 80.9308 167.087ZM87.2222 179.223C86.2515 179.172 85.3877 178.917 84.6307 178.456C83.8738 177.996 83.2931 177.383 82.8886 176.617C82.4968 175.839 82.3257 174.977 82.3753 174.03C82.4249 173.083 82.6849 172.25 83.1552 171.53C83.6376 170.81 84.2792 170.261 85.0801 169.882C85.881 169.503 86.7668 169.34 87.7375 169.39C88.7201 169.442 89.5899 169.698 90.3469 170.158C91.1038 170.618 91.6785 171.231 92.071 171.997C92.4754 172.763 92.6529 173.62 92.6033 174.566C92.5536 175.513 92.2874 176.352 91.8044 177.084C91.3341 177.804 90.6984 178.354 89.8975 178.732C89.0966 179.111 88.2048 179.274 87.2222 179.223ZM87.323 177.3C88.1498 177.343 88.8473 177.103 89.4155 176.58C89.9836 176.057 90.2913 175.346 90.3384 174.448C90.3855 173.549 90.1538 172.81 89.6435 172.23C89.1331 171.651 88.4645 171.339 87.6376 171.296C86.8107 171.253 86.1132 171.492 85.5451 172.015C84.9889 172.539 84.6873 173.25 84.6402 174.149C84.5931 175.048 84.8187 175.786 85.3171 176.365C85.8275 176.945 86.4961 177.256 87.323 177.3ZM97.069 171.394C97.7688 170.421 98.9337 169.977 100.563 170.063L100.451 172.202C100.261 172.156 100.089 172.129 99.9329 172.12C99.0581 172.075 98.3615 172.296 97.8432 172.786C97.3255 173.264 97.0415 173.982 96.9912 174.94L96.7473 179.596L94.5003 179.478L95.0034 169.879L97.1425 169.992L97.069 171.394ZM119.64 171.062C120.851 171.126 121.791 171.53 122.461 172.274C123.132 173.006 123.43 174.073 123.357 175.475L123.068 180.975L120.821 180.858L121.095 175.645C121.139 174.806 120.986 174.167 120.636 173.728C120.287 173.277 119.765 173.034 119.07 172.997C118.315 172.958 117.697 173.178 117.215 173.657C116.734 174.125 116.469 174.82 116.421 175.742L116.166 180.614L113.919 180.496L114.192 175.283C114.236 174.444 114.083 173.805 113.734 173.366C113.385 172.916 112.863 172.672 112.168 172.636C111.401 172.595 110.777 172.809 110.296 173.276C109.827 173.744 109.568 174.446 109.519 175.381L109.263 180.252L107.016 180.134L107.519 170.535L109.658 170.647L109.594 171.87C109.977 171.457 110.443 171.151 110.994 170.952C111.546 170.752 112.151 170.67 112.81 170.704C113.529 170.742 114.157 170.913 114.694 171.218C115.243 171.511 115.666 171.93 115.962 172.474C116.383 171.991 116.913 171.628 117.551 171.386C118.189 171.131 118.885 171.023 119.64 171.062ZM135.3 176.858C135.292 177.014 135.268 177.235 135.229 177.521L127.697 177.126C127.792 177.84 128.104 178.421 128.633 178.87C129.175 179.307 129.86 179.547 130.686 179.59C131.741 179.645 132.628 179.343 133.347 178.684L134.479 180.131C134.021 180.624 133.455 180.985 132.782 181.214C132.109 181.443 131.359 181.536 130.533 181.493C129.478 181.438 128.56 181.179 127.779 180.718C126.998 180.256 126.406 179.642 126.001 178.876C125.61 178.098 125.438 177.236 125.488 176.29C125.537 175.355 125.791 174.527 126.249 173.806C126.72 173.074 127.344 172.518 128.121 172.138C128.898 171.758 129.76 171.593 130.706 171.642C131.641 171.691 132.463 171.945 133.172 172.402C133.894 172.849 134.438 173.46 134.806 174.237C135.187 175.001 135.351 175.875 135.3 176.858ZM130.612 173.44C129.893 173.402 129.271 173.586 128.745 173.991C128.231 174.385 127.902 174.932 127.757 175.634L133.204 175.919C133.145 175.219 132.88 174.64 132.412 174.183C131.943 173.726 131.343 173.478 130.612 173.44ZM147.309 168.872L146.61 182.209L144.453 182.096L144.518 180.856C144.123 181.292 143.644 181.609 143.081 181.808C142.529 182.007 141.924 182.09 141.265 182.055C140.342 182.007 139.52 181.76 138.799 181.313C138.089 180.867 137.544 180.262 137.163 179.497C136.784 178.72 136.619 177.846 136.67 176.876C136.721 175.905 136.975 175.059 137.434 174.338C137.892 173.617 138.497 173.072 139.25 172.703C140.014 172.334 140.858 172.174 141.78 172.223C142.416 172.256 142.991 172.394 143.507 172.638C144.023 172.881 144.455 173.228 144.804 173.679L145.062 168.754L147.309 168.872ZM141.636 180.146C142.175 180.174 142.666 180.08 143.11 179.863C143.555 179.634 143.915 179.298 144.191 178.856C144.466 178.414 144.62 177.893 144.651 177.294C144.682 176.695 144.584 176.161 144.356 175.692C144.129 175.224 143.805 174.858 143.386 174.596C142.968 174.322 142.489 174.171 141.95 174.142C141.411 174.114 140.919 174.214 140.474 174.443C140.03 174.66 139.671 174.99 139.395 175.432C139.12 175.874 138.966 176.395 138.935 176.994C138.903 177.594 139.002 178.127 139.229 178.596C139.457 179.065 139.78 179.436 140.198 179.71C140.617 179.972 141.096 180.118 141.636 180.146ZM158.693 173.109C160.107 173.183 161.168 173.581 161.875 174.303C162.595 175.014 162.919 176.052 162.847 177.418L162.553 183.045L160.431 182.934L160.493 181.765C160.195 182.17 159.783 182.473 159.255 182.674C158.741 182.863 158.124 182.939 157.405 182.901C156.686 182.863 156.063 182.711 155.536 182.443C155.01 182.163 154.609 181.799 154.332 181.352C154.068 180.894 153.95 180.389 153.979 179.838C154.024 178.975 154.378 178.302 155.04 177.82C155.714 177.327 156.741 177.116 158.119 177.189L160.6 177.319L160.607 177.175C160.642 176.504 160.466 175.978 160.077 175.597C159.7 175.217 159.117 175.006 158.326 174.964C157.786 174.936 157.249 174.992 156.713 175.132C156.189 175.273 155.739 175.484 155.364 175.764L154.569 174.083C155.092 173.725 155.713 173.464 156.43 173.297C157.148 173.13 157.902 173.068 158.693 173.109ZM157.958 181.29C158.521 181.319 159.025 181.22 159.47 180.991C159.927 180.75 160.258 180.395 160.463 179.925L160.521 178.811L158.203 178.689C156.908 178.621 156.239 179.013 156.194 179.864C156.173 180.271 156.318 180.603 156.629 180.86C156.94 181.116 157.383 181.26 157.958 181.29ZM166.135 169.858L168.382 169.976L167.683 183.314L165.436 183.196L166.135 169.858ZM171.331 170.13L173.578 170.248L172.879 183.586L170.632 183.468L171.331 170.13ZM185.101 179.468C185.092 179.624 185.069 179.845 185.03 180.131L177.498 179.736C177.593 180.45 177.905 181.031 178.434 181.48C178.976 181.917 179.66 182.157 180.487 182.2C181.542 182.255 182.429 181.953 183.148 181.294L184.28 182.741C183.822 183.234 183.256 183.595 182.583 183.824C181.91 184.053 181.16 184.146 180.333 184.103C179.279 184.047 178.361 183.789 177.58 183.328C176.799 182.866 176.207 182.252 175.802 181.486C175.41 180.708 175.239 179.846 175.289 178.9C175.338 177.965 175.591 177.137 176.05 176.416C176.521 175.684 177.145 175.128 177.922 174.748C178.699 174.368 179.56 174.203 180.507 174.252C181.442 174.301 182.264 174.555 182.973 175.012C183.694 175.459 184.239 176.07 184.607 176.846C184.988 177.611 185.152 178.485 185.101 179.468ZM180.413 176.05C179.694 176.012 179.071 176.196 178.546 176.601C178.032 176.995 177.703 177.542 177.558 178.243L183.005 178.529C182.945 177.829 182.681 177.25 182.213 176.793C181.744 176.336 181.144 176.088 180.413 176.05ZM194.937 184.868C194.158 184.827 193.403 184.686 192.67 184.443C191.938 184.2 191.358 183.911 190.931 183.577L191.884 181.914C192.3 182.224 192.803 182.485 193.393 182.696C193.995 182.896 194.59 183.011 195.177 183.042C196.519 183.112 197.209 182.794 197.246 182.087C197.264 181.752 197.102 181.509 196.761 181.359C196.433 181.209 195.894 181.055 195.145 180.896C194.361 180.734 193.721 180.563 193.226 180.38C192.743 180.199 192.325 179.907 191.974 179.504C191.635 179.089 191.484 178.535 191.52 177.84C191.568 176.929 191.984 176.224 192.767 175.724C193.563 175.213 194.608 174.991 195.902 175.059C196.561 175.094 197.216 175.206 197.867 175.396C198.519 175.575 199.047 175.801 199.454 176.074L198.501 177.737C197.712 177.215 196.807 176.927 195.789 176.874C195.13 176.839 194.621 176.915 194.263 177.1C193.917 177.274 193.736 177.523 193.719 177.847C193.7 178.206 193.866 178.473 194.218 178.648C194.582 178.811 195.144 178.979 195.904 179.151C196.664 179.311 197.286 179.482 197.77 179.663C198.253 179.845 198.658 180.13 198.986 180.52C199.326 180.91 199.479 181.447 199.443 182.13C199.396 183.029 198.968 183.728 198.161 184.226C197.354 184.724 196.279 184.938 194.937 184.868ZM205.536 185.424C204.566 185.373 203.702 185.117 202.945 184.657C202.188 184.197 201.607 183.583 201.203 182.817C200.811 182.04 200.64 181.177 200.689 180.231C200.739 179.284 200.999 178.451 201.469 177.73C201.952 177.01 202.593 176.461 203.394 176.083C204.195 175.704 205.081 175.54 206.052 175.591C207.034 175.643 207.904 175.898 208.661 176.359C209.418 176.819 209.993 177.432 210.385 178.197C210.79 178.964 210.967 179.82 210.917 180.767C210.868 181.714 210.602 182.553 210.119 183.284C209.648 184.005 209.013 184.554 208.212 184.933C207.411 185.312 206.519 185.475 205.536 185.424ZM205.637 183.5C206.464 183.544 207.162 183.304 207.73 182.781C208.298 182.258 208.605 181.547 208.653 180.648C208.7 179.749 208.468 179.01 207.958 178.431C207.447 177.851 206.779 177.54 205.952 177.496C205.125 177.453 204.427 177.693 203.859 178.216C203.303 178.74 203.001 179.451 202.954 180.349C202.907 181.248 203.133 181.987 203.631 182.566C204.142 183.145 204.81 183.457 205.637 183.5ZM225.439 176.607C226.649 176.671 227.589 177.074 228.259 177.818C228.93 178.55 229.228 179.618 229.155 181.02L228.867 186.52L226.62 186.402L226.893 181.189C226.937 180.351 226.784 179.712 226.434 179.273C226.086 178.822 225.564 178.578 224.869 178.542C224.114 178.502 223.495 178.722 223.014 179.202C222.532 179.669 222.268 180.364 222.219 181.287L221.964 186.158L219.717 186.041L219.99 180.828C220.034 179.989 219.881 179.35 219.532 178.911C219.183 178.46 218.661 178.217 217.966 178.18C217.199 178.14 216.575 178.354 216.094 178.821C215.625 179.289 215.366 179.991 215.317 180.925L215.061 185.797L212.815 185.679L213.318 176.08L215.457 176.192L215.393 177.414C215.775 177.002 216.241 176.696 216.793 176.496C217.344 176.297 217.949 176.215 218.608 176.249C219.327 176.287 219.955 176.458 220.492 176.762C221.041 177.056 221.464 177.474 221.76 178.018C222.182 177.536 222.711 177.173 223.349 176.93C223.987 176.675 224.684 176.568 225.439 176.607ZM245.978 182.658C245.97 182.814 245.946 183.035 245.907 183.322L238.375 182.927C238.47 183.641 238.782 184.222 239.311 184.67C239.853 185.107 240.538 185.347 241.365 185.391C242.419 185.446 243.306 185.144 244.026 184.485L245.157 185.932C244.699 186.425 244.133 186.785 243.46 187.015C242.788 187.244 242.038 187.337 241.211 187.293C240.156 187.238 239.239 186.98 238.458 186.518C237.677 186.057 237.084 185.443 236.68 184.676C236.288 183.899 236.117 183.037 236.166 182.09C236.215 181.155 236.469 180.327 236.927 179.606C237.398 178.874 238.022 178.318 238.799 177.938C239.576 177.558 240.438 177.393 241.385 177.443C242.319 177.492 243.141 177.745 243.85 178.203C244.572 178.649 245.117 179.261 245.484 180.037C245.865 180.802 246.029 181.676 245.978 182.658ZM241.29 179.24C240.571 179.203 239.949 179.386 239.423 179.791C238.91 180.185 238.581 180.733 238.436 181.434L243.882 181.719C243.823 181.019 243.559 180.441 243.09 179.984C242.621 179.526 242.021 179.279 241.29 179.24ZM250.456 179.432C251.156 178.46 252.321 178.016 253.951 178.101L253.838 180.24C253.649 180.194 253.476 180.167 253.32 180.159C252.445 180.113 251.749 180.335 251.23 180.825C250.713 181.302 250.429 182.02 250.378 182.979L250.134 187.635L247.888 187.517L248.391 177.918L250.53 178.03L250.456 179.432ZM114.824 204.965L117.071 205.083L116.568 214.681L114.321 214.564L114.824 204.965ZM116.04 203.442C115.632 203.421 115.297 203.277 115.035 203.011C114.773 202.733 114.652 202.402 114.672 202.019C114.692 201.635 114.847 201.325 115.136 201.088C115.425 200.839 115.773 200.725 116.181 200.746C116.588 200.767 116.923 200.911 117.186 201.177C117.449 201.431 117.571 201.744 117.551 202.116C117.53 202.511 117.375 202.839 117.085 203.101C116.807 203.35 116.459 203.464 116.04 203.442ZM125.472 205.415C126.683 205.478 127.635 205.883 128.329 206.628C129.023 207.373 129.333 208.441 129.26 209.831L128.972 215.331L126.725 215.214L126.998 210.001C127.042 209.162 126.878 208.523 126.504 208.082C126.131 207.63 125.579 207.385 124.848 207.347C124.022 207.303 123.355 207.521 122.85 207.999C122.344 208.465 122.067 209.166 122.018 210.1L121.764 214.954L119.517 214.836L120.02 205.237L122.159 205.349L122.094 206.59C122.489 206.166 122.974 205.855 123.549 205.656C124.124 205.458 124.765 205.378 125.472 205.415ZM137.62 215.262C137.345 215.464 137.013 215.609 136.624 215.696C136.247 215.785 135.848 215.818 135.429 215.796C134.374 215.741 133.574 215.422 133.028 214.841C132.481 214.26 132.236 213.442 132.291 212.387L132.533 207.767L130.951 207.685L131.046 205.887L132.627 205.97L132.742 203.777L134.989 203.895L134.874 206.088L137.445 206.222L137.351 208.02L134.78 207.885L134.541 212.451C134.516 212.918 134.611 213.284 134.826 213.547C135.041 213.799 135.364 213.936 135.796 213.959C136.299 213.985 136.725 213.875 137.075 213.629L137.62 215.262ZM148.397 211.591C148.389 211.747 148.366 211.968 148.327 212.254L140.795 211.859C140.89 212.573 141.202 213.155 141.731 213.603C142.273 214.04 142.957 214.28 143.784 214.323C144.839 214.379 145.726 214.077 146.445 213.417L147.577 214.865C147.118 215.357 146.553 215.718 145.88 215.947C145.207 216.176 144.457 216.269 143.63 216.226C142.576 216.171 141.658 215.912 140.877 215.451C140.096 214.989 139.503 214.375 139.099 213.609C138.707 212.832 138.536 211.969 138.586 211.023C138.635 210.088 138.888 209.26 139.347 208.539C139.818 207.807 140.442 207.251 141.219 206.871C141.995 206.491 142.857 206.326 143.804 206.375C144.739 206.424 145.561 206.678 146.27 207.136C146.991 207.582 147.536 208.193 147.904 208.97C148.284 209.735 148.449 210.608 148.397 211.591ZM143.71 208.173C142.991 208.135 142.368 208.319 141.842 208.724C141.329 209.118 141 209.665 140.855 210.367L146.302 210.652C146.242 209.952 145.978 209.373 145.509 208.916C145.041 208.459 144.441 208.211 143.71 208.173ZM152.876 208.365C153.575 207.392 154.74 206.949 156.37 207.034L156.258 209.173C156.068 209.127 155.895 209.1 155.739 209.092C154.865 209.046 154.168 209.268 153.65 209.757C153.132 210.235 152.848 210.953 152.798 211.912L152.554 216.567L150.307 216.45L150.81 206.851L152.949 206.963L152.876 208.365ZM166.952 212.563C166.944 212.719 166.92 212.94 166.881 213.227L159.349 212.832C159.444 213.546 159.756 214.127 160.286 214.575C160.827 215.012 161.512 215.252 162.339 215.296C163.393 215.351 164.28 215.049 165 214.39L166.131 215.837C165.673 216.33 165.107 216.691 164.435 216.92C163.762 217.149 163.012 217.242 162.185 217.198C161.13 217.143 160.213 216.885 159.432 216.423C158.651 215.962 158.058 215.348 157.654 214.582C157.262 213.804 157.091 212.942 157.14 211.995C157.189 211.06 157.443 210.233 157.901 209.512C158.372 208.779 158.996 208.223 159.773 207.843C160.55 207.463 161.412 207.298 162.359 207.348C163.293 207.397 164.115 207.65 164.824 208.108C165.546 208.554 166.091 209.166 166.458 209.942C166.839 210.707 167.003 211.581 166.952 212.563ZM162.264 209.145C161.545 209.108 160.923 209.291 160.397 209.696C159.884 210.09 159.555 210.638 159.41 211.339L164.856 211.624C164.797 210.924 164.533 210.346 164.064 209.889C163.595 209.431 162.995 209.184 162.264 209.145ZM171.821 217.703C171.042 217.662 170.286 217.521 169.554 217.278C168.822 217.035 168.242 216.747 167.815 216.412L168.767 214.749C169.184 215.06 169.687 215.32 170.276 215.531C170.879 215.731 171.474 215.847 172.061 215.877C173.403 215.948 174.093 215.629 174.13 214.922C174.147 214.587 173.986 214.344 173.645 214.194C173.316 214.045 172.778 213.89 172.029 213.731C171.244 213.569 170.605 213.398 170.109 213.216C169.626 213.034 169.209 212.742 168.858 212.339C168.519 211.925 168.368 211.37 168.404 210.675C168.452 209.764 168.867 209.059 169.65 208.559C170.446 208.048 171.491 207.826 172.786 207.894C173.445 207.929 174.1 208.041 174.751 208.232C175.402 208.41 175.931 208.636 176.337 208.91L175.385 210.572C174.595 210.05 173.691 209.762 172.672 209.709C172.013 209.674 171.505 209.75 171.147 209.935C170.801 210.109 170.62 210.358 170.603 210.682C170.584 211.041 170.75 211.308 171.101 211.483C171.465 211.646 172.027 211.814 172.787 211.986C173.548 212.146 174.17 212.317 174.653 212.498C175.136 212.68 175.542 212.966 175.87 213.355C176.21 213.746 176.362 214.282 176.326 214.965C176.279 215.864 175.852 216.563 175.045 217.061C174.238 217.56 173.163 217.774 171.821 217.703ZM181.072 218.188C180.293 218.147 179.537 218.006 178.805 217.763C178.073 217.52 177.493 217.231 177.066 216.897L178.018 215.234C178.435 215.544 178.938 215.805 179.527 216.016C180.13 216.216 180.725 216.331 181.312 216.362C182.654 216.432 183.344 216.114 183.381 215.407C183.398 215.072 183.237 214.829 182.896 214.679C182.567 214.529 182.029 214.375 181.28 214.216C180.495 214.054 179.856 213.883 179.36 213.7C178.877 213.519 178.46 213.227 178.109 212.824C177.77 212.409 177.619 211.855 177.655 211.16C177.703 210.249 178.118 209.544 178.901 209.044C179.697 208.533 180.742 208.311 182.037 208.379C182.696 208.414 183.351 208.526 184.002 208.716C184.653 208.895 185.182 209.121 185.588 209.394L184.636 211.057C183.846 210.535 182.942 210.247 181.923 210.194C181.264 210.159 180.756 210.235 180.397 210.42C180.052 210.594 179.871 210.843 179.854 211.167C179.835 211.526 180.001 211.793 180.352 211.968C180.716 212.131 181.278 212.299 182.038 212.471C182.799 212.631 183.421 212.802 183.904 212.983C184.387 213.165 184.793 213.45 185.121 213.84C185.461 214.23 185.613 214.767 185.577 215.45C185.53 216.349 185.103 217.048 184.296 217.546C183.489 218.044 182.414 218.258 181.072 218.188ZM196.636 214.119C196.628 214.275 196.604 214.496 196.565 214.782L189.033 214.388C189.128 215.101 189.44 215.683 189.969 216.131C190.511 216.568 191.196 216.808 192.022 216.851C193.077 216.907 193.964 216.605 194.684 215.945L195.815 217.393C195.357 217.885 194.791 218.246 194.118 218.475C193.445 218.704 192.696 218.797 191.869 218.754C190.814 218.699 189.896 218.44 189.116 217.979C188.335 217.517 187.742 216.903 187.337 216.137C186.946 215.36 186.774 214.497 186.824 213.551C186.873 212.616 187.127 211.788 187.585 211.067C188.056 210.335 188.68 209.779 189.457 209.399C190.234 209.019 191.096 208.854 192.042 208.904C192.977 208.953 193.799 209.206 194.508 209.664C195.23 210.11 195.774 210.721 196.142 211.498C196.523 212.263 196.687 213.136 196.636 214.119ZM191.948 210.701C191.229 210.663 190.607 210.847 190.081 211.252C189.568 211.646 189.238 212.193 189.094 212.895L194.54 213.18C194.481 212.48 194.217 211.901 193.748 211.444C193.279 210.987 192.679 210.739 191.948 210.701ZM201.114 210.893C201.814 209.92 202.979 209.477 204.609 209.562L204.496 211.701C204.307 211.655 204.134 211.628 203.978 211.62C203.103 211.574 202.407 211.796 201.888 212.285C201.371 212.763 201.087 213.481 201.036 214.44L200.792 219.095L198.545 218.978L199.048 209.379L201.188 209.491L201.114 210.893ZM212.154 219.168C211.879 219.37 211.547 219.515 211.158 219.603C210.781 219.691 210.383 219.724 209.963 219.702C208.909 219.647 208.108 219.329 207.562 218.747C207.016 218.166 206.77 217.348 206.826 216.293L207.068 211.674L205.486 211.591L205.58 209.793L207.162 209.876L207.277 207.683L209.524 207.801L209.409 209.994L211.979 210.129L211.885 211.926L209.315 211.791L209.075 216.357C209.051 216.825 209.146 217.19 209.36 217.454C209.575 217.705 209.899 217.842 210.33 217.865C210.833 217.891 211.26 217.781 211.609 217.535L212.154 219.168Z" fill="#1A0733"/>
<defs>
<filter id="filter0_d" x="80.4668" y="35.4882" width="355.859" height="333.306" filterUnits="userSpaceOnUse" color-interpolation-filters="sRGB">
<feFlood flood-opacity="0" result="BackgroundImageFix"/>
<feColorMatrix in="SourceAlpha" type="matrix" values="0 0 0 0 0 0 0 0 0 0 0 0 0 0 0 0 0 0 127 0"/>
<feOffset dx="4" dy="4"/>
<feGaussianBlur stdDeviation="8"/>
<feColorMatrix type="matrix" values="0 0 0 0 0.173927 0 0 0 0 0.0527778 0 0 0 0 0.333333 0 0 0 1 0"/>
<feBlend mode="normal" in2="BackgroundImageFix" result="effect1_dropShadow"/>
<feBlend mode="normal" in="SourceGraphic" in2="effect1_dropShadow" result="shape"/>
</filter>
<filter id="filter1_bdi" x="-2" y="25" width="345.303" height="302.268" filterUnits="userSpaceOnUse" color-interpolation-filters="sRGB">
<feFlood flood-opacity="0" result="BackgroundImageFix"/>
<feGaussianBlur in="BackgroundImage" stdDeviation="13"/>
<feComposite in2="SourceAlpha" operator="in" result="effect1_backgroundBlur"/>
<feColorMatrix in="SourceAlpha" type="matrix" values="0 0 0 0 0 0 0 0 0 0 0 0 0 0 0 0 0 0 127 0"/>
<feOffset dx="8" dy="8"/>
<feGaussianBlur stdDeviation="16"/>
<feColorMatrix type="matrix" values="0 0 0 0 0.345833 0 0 0 0 0.331424 0 0 0 0 0.331424 0 0 0 0.2 0"/>
<feBlend mode="normal" in2="effect1_backgroundBlur" result="effect2_dropShadow"/>
<feBlend mode="normal" in="SourceGraphic" in2="effect2_dropShadow" result="shape"/>
<feColorMatrix in="SourceAlpha" type="matrix" values="0 0 0 0 0 0 0 0 0 0 0 0 0 0 0 0 0 0 127 0" result="hardAlpha"/>
<feOffset dx="8" dy="8"/>
<feGaussianBlur stdDeviation="64"/>
<feComposite in2="hardAlpha" operator="arithmetic" k2="-1" k3="1"/>
<feColorMatrix type="matrix" values="0 0 0 0 1 0 0 0 0 1 0 0 0 0 1 0 0 0 0.3 0"/>
<feBlend mode="normal" in2="shape" result="effect3_innerShadow"/>
</filter>
<radialGradient id="paint0_radial" cx="0" cy="0" r="1" gradientUnits="userSpaceOnUse" gradientTransform="translate(377.817 152.382) rotate(163.026) scale(256.647 320.756)">
<stop stop-color="#F19A2D"/>
<stop offset="1" stop-color="#F3A64D"/>
</radialGradient>
<radialGradient id="paint1_radial" cx="0" cy="0" r="1" gradientUnits="userSpaceOnUse" gradientTransform="translate(57.874 71.8982) rotate(39.0922) scale(281.697 333.798)">
<stop stop-color="#F9CE9D"/>
<stop offset="1" stop-color="#FFE6C8"/>
</radialGradient>
<radialGradient id="paint2_radial" cx="0" cy="0" r="1" gradientUnits="userSpaceOnUse" gradientTransform="translate(59.2108 71.8986) rotate(39.1298) scale(274.09 324.787)">
<stop stop-color="white" stop-opacity="0.35"/>
<stop offset="1" stop-color="white" stop-opacity="0.3"/>
</radialGradient>
</defs>
</svg>
