<svg width="433" height="369" viewBox="0 0 433 369" fill="none" xmlns="http://www.w3.org/2000/svg">
<path d="M59.9997 62.5C59.9997 62.5 48.9997 29.5 98.9997 21.5M349 142C349 142 355.5 121 321.5 105M165 311C165 311 201.5 347.5 258 354C314.5 360.5 337 339 337 339" stroke="#B29D81" stroke-width="3" stroke-dasharray="8 8"/>
<g filter="url(#filter0_d)">
<path d="M280.082 304.203L274.518 326.368L252.737 297.562C208.137 267.545 146.955 261.892 127.094 226.252C107.233 190.611 131.202 128.701 169.803 95.4103C205.108 64.9621 254.818 105.395 284.035 111.428L284.742 111.573C314.245 117.662 375.685 130.342 383.16 176.517C390.695 223.064 363.736 265.7 337.465 290.733C318.232 309.058 280.082 304.203 280.082 304.203Z" fill="url(#paint0_radial)"/>
</g>
<g filter="url(#filter1_bdi)">
<path d="M66.7239 238.6L61.2234 262.6L96.2234 245.6C153.723 238.6 215.223 263.1 251.724 238.6C288.224 214.1 295.497 142.941 274.724 92.1C255.724 45.5999 188.224 60.1 157.225 51.6L156.475 51.3944C125.173 42.8082 59.9874 24.9277 30.2251 65.6C0.223124 106.6 5.24831 160.717 18.2247 197.6C27.724 224.6 66.7239 238.6 66.7239 238.6Z" fill="url(#paint1_radial)"/>
</g>
<path d="M84.1696 91.1867L83.9689 95.0154L90.0446 95.3338L89.941 97.3111L83.8653 96.9927L83.6128 101.81L81.2761 101.688L81.9355 89.1049L91.1209 89.5863L91.0182 91.5456L84.1696 91.1867ZM96.5498 102.614C95.5791 102.563 94.7153 102.308 93.9583 101.848C93.2014 101.387 92.6207 100.774 92.2162 100.008C91.8244 99.2303 91.6533 98.3682 91.7029 97.4215C91.7525 96.4748 92.0125 95.6412 92.4828 94.9209C92.9651 94.2011 93.6068 93.6519 94.4077 93.2733C95.2086 92.8947 96.0944 92.7309 97.0651 92.7817C98.0477 92.8332 98.9175 93.0891 99.6745 93.5494C100.431 94.0096 101.006 94.6225 101.399 95.3881C101.803 96.1543 101.98 97.0108 101.931 97.9575C101.881 98.9042 101.615 99.7434 101.132 100.475C100.662 101.195 100.026 101.745 99.2251 102.124C98.4242 102.502 97.5324 102.666 96.5498 102.614ZM96.6506 100.691C97.4774 100.734 98.1749 100.494 98.7431 99.9714C99.3112 99.4484 99.6188 98.7376 99.666 97.8388C99.7131 96.94 99.4814 96.2009 98.971 95.6214C98.4607 95.0419 97.7921 94.7305 96.9652 94.6871C96.1383 94.6438 95.4408 94.8836 94.8727 95.4066C94.3165 95.9302 94.0149 96.6414 93.9678 97.5402C93.9207 98.4389 94.1463 99.1777 94.6447 99.7566C95.1551 100.336 95.8237 100.648 96.6506 100.691ZM106.397 94.7849C107.096 93.8121 108.261 93.3685 109.891 93.4539L109.779 95.593C109.589 95.547 109.416 95.5199 109.26 95.5117C108.386 95.4659 107.689 95.6877 107.171 96.1773C106.653 96.6548 106.369 97.373 106.319 98.3316L106.075 102.987L103.828 102.87L104.331 93.2707L106.47 93.3828L106.397 94.7849ZM121.301 90.4109L120.602 103.749L118.445 103.636L118.51 102.395C118.114 102.831 117.635 103.148 117.072 103.347C116.521 103.547 115.916 103.629 115.256 103.595C114.334 103.546 113.512 103.299 112.79 102.853C112.08 102.407 111.535 101.801 111.155 101.036C110.775 100.26 110.61 99.3857 110.661 98.415C110.712 97.4444 110.967 96.5985 111.425 95.8775C111.883 95.1565 112.489 94.6115 113.241 94.2423C114.005 93.8738 114.849 93.7138 115.772 93.7621C116.407 93.7954 116.982 93.9337 117.498 94.177C118.014 94.4204 118.447 94.7675 118.796 95.2184L119.054 90.2931L121.301 90.4109ZM115.627 101.685C116.166 101.714 116.658 101.619 117.102 101.402C117.546 101.173 117.906 100.838 118.182 100.395C118.457 99.9532 118.611 99.4325 118.642 98.8333C118.674 98.2341 118.575 97.7002 118.348 97.2317C118.12 96.7631 117.797 96.3977 117.378 96.1354C116.96 95.8612 116.481 95.7099 115.942 95.6816C115.402 95.6534 114.91 95.7538 114.466 95.9828C114.022 96.1999 113.662 96.5295 113.387 96.9717C113.111 97.4139 112.958 97.9345 112.926 98.5337C112.895 99.1329 112.993 99.6668 113.221 100.135C113.449 100.604 113.772 100.975 114.19 101.25C114.609 101.512 115.088 101.657 115.627 101.685ZM124.044 94.3038L126.291 94.4216L125.788 104.02L123.541 103.903L124.044 94.3038ZM125.26 92.7813C124.852 92.76 124.517 92.6162 124.255 92.3501C123.993 92.0721 123.872 91.7413 123.892 91.3578C123.912 90.9743 124.067 90.664 124.355 90.4268C124.645 90.1776 124.993 90.0637 125.401 90.085C125.808 90.1064 126.143 90.2501 126.406 90.5162C126.669 90.7703 126.79 91.0831 126.771 91.4546C126.75 91.8501 126.595 92.1784 126.305 92.4396C126.027 92.6894 125.679 92.8033 125.26 92.7813ZM143.196 95.3075L138.576 104.691L136.257 104.569L132.644 94.7545L134.981 94.877L137.592 102.152L141.039 95.1944L143.196 95.3075ZM144.6 95.3811L146.847 95.4988L146.344 105.098L144.097 104.98L144.6 95.3811ZM145.815 93.8586C145.408 93.8372 145.073 93.6935 144.81 93.4274C144.549 93.1493 144.428 92.8186 144.448 92.4351C144.468 92.0516 144.622 91.7413 144.911 91.5041C145.201 91.2549 145.549 91.1409 145.957 91.1623C146.364 91.1837 146.699 91.3274 146.961 91.5935C147.224 91.8476 147.346 92.1604 147.327 92.5319C147.306 92.9273 147.151 93.2557 146.861 93.5168C146.583 93.7667 146.235 93.8806 145.815 93.8586ZM163.751 96.3848L159.132 105.768L156.813 105.646L153.2 95.8318L155.537 95.9543L158.148 103.229L161.594 96.2717L163.751 96.3848ZM165.156 96.4584L167.403 96.5761L166.9 106.175L164.653 106.057L165.156 96.4584ZM166.371 94.9359C165.964 94.9145 165.629 94.7708 165.366 94.5047C165.104 94.2266 164.984 93.8958 165.004 93.5124C165.024 93.1289 165.178 92.8186 165.467 92.5813C165.756 92.3322 166.105 92.2182 166.512 92.2396C166.92 92.2609 167.255 92.4047 167.517 92.6708C167.78 92.9249 167.902 93.2377 167.883 93.6092C167.862 94.0046 167.706 94.3329 167.416 94.5941C167.139 94.8439 166.79 94.9579 166.371 94.9359ZM170.548 92.9918L172.795 93.1096L172.096 106.447L169.849 106.33L170.548 92.9918ZM190.113 94.0172L189.414 107.355L187.257 107.242L187.322 106.002C186.926 106.437 186.447 106.755 185.884 106.954C185.333 107.153 184.727 107.235 184.068 107.201C183.146 107.153 182.323 106.905 181.602 106.459C180.892 106.013 180.347 105.408 179.967 104.643C179.587 103.866 179.422 102.992 179.473 102.021C179.524 101.051 179.779 100.205 180.237 99.4838C180.695 98.7628 181.301 98.2177 182.053 97.8486C182.817 97.4801 183.661 97.32 184.584 97.3684C185.219 97.4017 185.794 97.54 186.31 97.7833C186.826 98.0267 187.259 98.3738 187.608 98.8246L187.866 93.8994L190.113 94.0172ZM184.439 105.292C184.978 105.32 185.47 105.226 185.914 105.008C186.358 104.779 186.718 104.444 186.994 104.002C187.269 103.559 187.423 103.039 187.454 102.44C187.486 101.84 187.387 101.307 187.16 100.838C186.932 100.369 186.608 100.004 186.19 99.7417C185.771 99.4674 185.293 99.3162 184.753 99.2879C184.214 99.2596 183.722 99.36 183.278 99.5891C182.834 99.8061 182.474 100.136 182.198 100.578C181.923 101.02 181.769 101.541 181.738 102.14C181.707 102.739 181.805 103.273 182.033 103.742C182.26 104.21 182.583 104.582 183.002 104.856C183.42 105.118 183.899 105.263 184.439 105.292ZM201.625 103.236C201.617 103.392 201.593 103.613 201.554 103.9L194.023 103.505C194.118 104.219 194.43 104.8 194.959 105.248C195.501 105.685 196.185 105.925 197.012 105.969C198.066 106.024 198.954 105.722 199.673 105.063L200.805 106.51C200.346 107.003 199.781 107.363 199.108 107.593C198.435 107.822 197.685 107.915 196.858 107.871C195.804 107.816 194.886 107.558 194.105 107.096C193.324 106.635 192.731 106.021 192.327 105.254C191.935 104.477 191.764 103.615 191.814 102.668C191.863 101.733 192.116 100.905 192.575 100.184C193.046 99.4521 193.669 98.896 194.446 98.5161C195.223 98.1363 196.085 97.9712 197.032 98.0208C197.967 98.0698 198.788 98.3231 199.498 98.7809C200.219 99.2272 200.764 99.8386 201.132 100.615C201.512 101.38 201.677 102.254 201.625 103.236ZM196.938 99.8183C196.219 99.7806 195.596 99.9643 195.07 100.369C194.557 100.763 194.228 101.311 194.083 102.012L199.53 102.297C199.47 101.597 199.206 101.019 198.737 100.562C198.269 100.104 197.669 99.8566 196.938 99.8183ZM204.234 94.7572L206.481 94.875L205.782 108.213L203.535 108.095L204.234 94.7572ZM218.003 104.095C217.995 104.25 217.971 104.472 217.932 104.758L210.401 104.363C210.495 105.077 210.807 105.658 211.337 106.107C211.879 106.543 212.563 106.784 213.39 106.827C214.444 106.882 215.331 106.58 216.051 105.921L217.183 107.368C216.724 107.861 216.159 108.222 215.486 108.451C214.813 108.68 214.063 108.773 213.236 108.73C212.182 108.674 211.264 108.416 210.483 107.954C209.702 107.493 209.109 106.879 208.705 106.113C208.313 105.335 208.142 104.473 208.191 103.526C208.24 102.592 208.494 101.764 208.952 101.043C209.423 100.31 210.047 99.7543 210.824 99.3745C211.601 98.9946 212.463 98.8295 213.41 98.8791C214.345 98.9281 215.166 99.1815 215.875 99.6392C216.597 100.086 217.142 100.697 217.51 101.473C217.89 102.238 218.055 103.112 218.003 104.095ZM213.316 100.677C212.597 100.639 211.974 100.823 211.448 101.228C210.935 101.621 210.606 102.169 210.461 102.87L215.907 103.156C215.848 102.456 215.584 101.877 215.115 101.42C214.646 100.963 214.047 100.715 213.316 100.677ZM43.0803 133.21C42.8054 133.412 42.4733 133.557 42.0842 133.644C41.707 133.733 41.3088 133.766 40.8893 133.744C39.8348 133.689 39.0344 133.37 38.488 132.789C37.9417 132.207 37.6962 131.39 37.7514 130.335L37.9936 125.715L36.4117 125.632L36.5059 123.835L38.0878 123.918L38.2027 121.725L40.4496 121.843L40.3347 124.036L42.9051 124.17L42.8109 125.968L40.2405 125.833L40.0012 130.399C39.9767 130.866 40.0717 131.232 40.2862 131.495C40.5013 131.747 40.8246 131.884 41.256 131.907C41.7593 131.933 42.1856 131.823 42.535 131.577L43.0803 133.21ZM53.8577 129.539C53.8495 129.695 53.8259 129.916 53.7869 130.202L46.2552 129.807C46.35 130.521 46.662 131.102 47.1913 131.551C47.7331 131.988 48.4175 132.228 49.2444 132.271C50.2989 132.326 51.1859 132.024 51.9054 131.365L53.0372 132.812C52.5788 133.305 52.0132 133.666 51.3403 133.895C50.6673 134.124 49.9175 134.217 49.0906 134.174C48.036 134.118 47.1183 133.86 46.3374 133.399C45.5565 132.937 44.9638 132.323 44.5593 131.557C44.1675 130.779 43.9964 129.917 44.046 128.971C44.095 128.036 44.3486 127.208 44.807 126.487C45.278 125.755 45.9019 125.198 46.6789 124.819C47.4558 124.439 48.3177 124.274 49.2644 124.323C50.1991 124.372 51.0209 124.626 51.73 125.083C52.4516 125.53 52.9963 126.141 53.3642 126.917C53.7447 127.682 53.9092 128.556 53.8577 129.539ZM49.1702 126.121C48.4511 126.083 47.8287 126.267 47.3028 126.672C46.7894 127.065 46.4603 127.613 46.3154 128.314L51.762 128.6C51.7025 127.9 51.4384 127.321 50.9697 126.864C50.501 126.407 49.9011 126.159 49.1702 126.121ZM59.9016 130.486L58.147 131.981L58.0142 134.515L55.7673 134.397L56.4663 121.06L58.7132 121.177L58.2912 129.23L63.1729 125.16L65.8692 125.302L61.6497 129.118L65.7436 134.92L63.0114 134.777L59.9016 130.486ZM73.0624 125.57C74.2728 125.634 75.2249 126.038 75.9189 126.784C76.6128 127.529 76.9233 128.597 76.8505 129.987L76.5622 135.487L74.3153 135.369L74.5885 130.157C74.6325 129.318 74.4677 128.678 74.0942 128.238C73.7214 127.786 73.1695 127.541 72.4385 127.502C71.6116 127.459 70.9453 127.677 70.4396 128.155C69.9345 128.621 69.6575 129.321 69.6085 130.256L69.3541 135.109L67.1072 134.992L67.6103 125.393L69.7493 125.505L69.6843 126.745C70.079 126.321 70.564 126.01 71.1391 125.812C71.7143 125.614 72.3554 125.533 73.0624 125.57ZM83.8078 135.993C82.8372 135.942 81.9734 135.687 81.2164 135.226C80.4595 134.766 79.8788 134.153 79.4743 133.387C79.0825 132.609 78.9113 131.747 78.961 130.8C79.0106 129.854 79.2706 129.02 79.7409 128.3C80.2232 127.58 80.8649 127.031 81.6658 126.652C82.4667 126.274 83.3525 126.11 84.3231 126.161C85.3058 126.212 86.1756 126.468 86.9325 126.928C87.6895 127.388 88.2642 128.001 88.6567 128.767C89.0611 129.533 89.2385 130.39 89.1889 131.336C89.1393 132.283 88.873 133.122 88.3901 133.854C87.9197 134.574 87.2841 135.124 86.4832 135.502C85.6823 135.881 84.7905 136.045 83.8078 135.993ZM83.9086 134.07C84.7355 134.113 85.433 133.873 86.0012 133.35C86.5693 132.827 86.8769 132.116 86.924 131.218C86.9711 130.319 86.7395 129.58 86.2291 129C85.7188 128.421 85.0501 128.109 84.2233 128.066C83.3964 128.023 82.6989 128.262 82.1308 128.785C81.5746 129.309 81.273 130.02 81.2259 130.919C81.1788 131.818 81.4044 132.557 81.9028 133.136C82.4132 133.715 83.0818 134.026 83.9086 134.07ZM91.785 122.911L94.0319 123.028L93.3329 136.366L91.086 136.248L91.785 122.911ZM100.589 136.873C99.6188 136.822 98.755 136.566 97.9981 136.106C97.2411 135.646 96.6604 135.032 96.256 134.266C95.8641 133.489 95.693 132.627 95.7426 131.68C95.7922 130.733 96.0522 129.9 96.5226 129.179C97.0049 128.459 97.6465 127.91 98.4474 127.532C99.2483 127.153 100.134 126.989 101.105 127.04C102.087 127.092 102.957 127.347 103.714 127.808C104.471 128.268 105.046 128.881 105.438 129.646C105.843 130.413 106.02 131.269 105.971 132.216C105.921 133.163 105.655 134.002 105.172 134.734C104.701 135.454 104.066 136.003 103.265 136.382C102.464 136.761 101.572 136.924 100.589 136.873ZM100.69 134.949C101.517 134.993 102.215 134.753 102.783 134.23C103.351 133.707 103.659 132.996 103.706 132.097C103.753 131.198 103.521 130.459 103.011 129.88C102.5 129.3 101.832 128.989 101.005 128.945C100.178 128.902 99.4806 129.142 98.9124 129.665C98.3562 130.189 98.0546 130.9 98.0075 131.799C97.9604 132.697 98.1861 133.436 98.6844 134.015C99.1948 134.595 99.8634 134.906 100.69 134.949ZM117.898 128.028L117.471 136.171C117.294 139.551 115.48 141.15 112.028 140.969C111.106 140.921 110.237 140.755 109.423 140.472C108.608 140.201 107.942 139.829 107.426 139.358L108.522 137.721C108.923 138.09 109.436 138.394 110.06 138.631C110.696 138.88 111.343 139.022 112.002 139.057C113.057 139.112 113.842 138.913 114.359 138.459C114.875 138.006 115.159 137.288 115.211 136.305L115.237 135.802C114.832 136.201 114.348 136.494 113.785 136.681C113.223 136.868 112.612 136.944 111.953 136.909C111.042 136.862 110.225 136.627 109.502 136.204C108.792 135.77 108.24 135.189 107.845 134.459C107.463 133.73 107.296 132.91 107.343 131.999C107.391 131.089 107.643 130.297 108.099 129.624C108.567 128.939 109.177 128.424 109.928 128.079C110.691 127.735 111.528 127.586 112.439 127.634C113.134 127.671 113.757 127.817 114.308 128.075C114.872 128.332 115.333 128.705 115.692 129.192L115.759 127.916L117.898 128.028ZM112.394 135.022C113.245 135.066 113.953 134.851 114.519 134.376C115.097 133.89 115.408 133.239 115.45 132.424C115.492 131.621 115.251 130.954 114.726 130.422C114.213 129.89 113.531 129.602 112.68 129.557C111.818 129.512 111.097 129.727 110.52 130.201C109.954 130.676 109.65 131.315 109.608 132.118C109.566 132.933 109.8 133.612 110.313 134.156C110.837 134.688 111.531 134.977 112.394 135.022ZM120.852 128.183L123.099 128.301L122.596 137.9L120.349 137.782L120.852 128.183ZM122.067 126.661C121.66 126.639 121.325 126.496 121.062 126.229C120.8 125.951 120.68 125.621 120.7 125.237C120.72 124.854 120.874 124.543 121.163 124.306C121.452 124.057 121.801 123.943 122.208 123.964C122.616 123.986 122.951 124.129 123.213 124.396C123.476 124.65 123.598 124.962 123.578 125.334C123.558 125.729 123.402 126.058 123.112 126.319C122.835 126.569 122.486 126.683 122.067 126.661ZM134.817 133.782C134.809 133.937 134.785 134.159 134.746 134.445L127.214 134.05C127.309 134.764 127.621 135.345 128.15 135.794C128.692 136.231 129.377 136.471 130.204 136.514C131.258 136.569 132.145 136.267 132.865 135.608L133.996 137.055C133.538 137.548 132.972 137.909 132.299 138.138C131.627 138.367 130.877 138.46 130.05 138.417C128.995 138.361 128.078 138.103 127.297 137.641C126.516 137.18 125.923 136.566 125.519 135.8C125.127 135.022 124.956 134.16 125.005 133.213C125.054 132.279 125.308 131.451 125.766 130.73C126.237 129.997 126.861 129.441 127.638 129.062C128.415 128.682 129.277 128.517 130.224 128.566C131.158 128.615 131.98 128.869 132.689 129.326C133.411 129.773 133.956 130.384 134.323 131.16C134.704 131.925 134.868 132.799 134.817 133.782ZM130.129 130.364C129.41 130.326 128.788 130.51 128.262 130.915C127.749 131.308 127.42 131.856 127.275 132.557L132.721 132.843C132.662 132.143 132.398 131.564 131.929 131.107C131.46 130.65 130.86 130.402 130.129 130.364ZM142.682 129.219C143.892 129.282 144.844 129.687 145.538 130.432C146.232 131.178 146.543 132.245 146.47 133.635L146.182 139.136L143.935 139.018L144.208 133.805C144.252 132.966 144.087 132.327 143.714 131.887C143.341 131.435 142.789 131.189 142.058 131.151C141.231 131.108 140.565 131.325 140.059 131.803C139.554 132.27 139.277 132.97 139.228 133.905L138.973 138.758L136.727 138.64L137.23 129.041L139.369 129.154L139.304 130.394C139.698 129.97 140.183 129.659 140.758 129.461C141.334 129.263 141.975 129.182 142.682 129.219ZM158.392 135.017C158.384 135.173 158.36 135.394 158.321 135.68L150.79 135.286C150.884 136 151.196 136.581 151.726 137.029C152.267 137.466 152.952 137.706 153.779 137.75C154.833 137.805 155.72 137.503 156.44 136.844L157.572 138.291C157.113 138.783 156.547 139.144 155.875 139.373C155.202 139.603 154.452 139.695 153.625 139.652C152.57 139.597 151.653 139.338 150.872 138.877C150.091 138.415 149.498 137.802 149.094 137.035C148.702 136.258 148.531 135.396 148.58 134.449C148.629 133.514 148.883 132.686 149.341 131.965C149.812 131.233 150.436 130.677 151.213 130.297C151.99 129.917 152.852 129.752 153.799 129.802C154.733 129.851 155.555 130.104 156.264 130.562C156.986 131.008 157.531 131.619 157.898 132.396C158.279 133.161 158.443 134.035 158.392 135.017ZM153.704 131.599C152.985 131.562 152.363 131.745 151.837 132.15C151.324 132.544 150.995 133.091 150.85 133.793L156.296 134.078C156.237 133.378 155.973 132.8 155.504 132.342C155.035 131.885 154.435 131.638 153.704 131.599ZM174.76 131.008L170.141 140.391L167.822 140.27L164.209 130.455L166.545 130.578L169.156 137.852L172.603 130.895L174.76 131.008ZM176.164 131.082L178.411 131.2L177.908 140.799L175.661 140.681L176.164 131.082ZM177.38 129.559C176.972 129.538 176.637 129.394 176.375 129.128C176.113 128.85 175.992 128.519 176.012 128.136C176.032 127.752 176.187 127.442 176.476 127.205C176.765 126.956 177.114 126.842 177.521 126.863C177.929 126.885 178.263 127.028 178.526 127.294C178.789 127.548 178.911 127.861 178.891 128.233C178.871 128.628 178.715 128.957 178.425 129.218C178.148 129.468 177.799 129.581 177.38 129.559ZM191.655 131.786C192.589 131.835 193.411 132.082 194.121 132.528C194.843 132.974 195.394 133.58 195.774 134.345C196.155 135.11 196.32 135.978 196.269 136.948C196.218 137.919 195.963 138.771 195.504 139.504C195.046 140.225 194.434 140.769 193.67 141.138C192.917 141.507 192.074 141.667 191.139 141.618C190.48 141.584 189.881 141.438 189.342 141.181C188.814 140.926 188.377 140.56 188.029 140.085L187.964 141.326L185.825 141.213L186.524 127.876L188.771 127.994L188.514 132.901C188.919 132.501 189.385 132.207 189.912 132.019C190.451 131.831 191.031 131.753 191.655 131.786ZM190.988 139.682C191.815 139.725 192.507 139.485 193.063 138.961C193.631 138.438 193.939 137.727 193.986 136.829C194.033 135.93 193.801 135.191 193.291 134.611C192.793 134.032 192.13 133.721 191.303 133.678C190.764 133.65 190.272 133.75 189.827 133.979C189.383 134.196 189.024 134.526 188.748 134.968C188.472 135.41 188.319 135.931 188.288 136.53C188.256 137.129 188.354 137.663 188.582 138.132C188.81 138.6 189.133 138.972 189.551 139.246C189.97 139.508 190.449 139.653 190.988 139.682ZM200.717 133.775C201.417 132.802 202.581 132.358 204.211 132.444L204.099 134.583C203.909 134.537 203.736 134.51 203.581 134.502C202.706 134.456 202.009 134.678 201.491 135.167C200.973 135.645 200.689 136.363 200.639 137.321L200.395 141.977L198.148 141.859L198.651 132.26L200.79 132.373L200.717 133.775ZM214.793 137.973C214.785 138.129 214.761 138.35 214.722 138.636L207.191 138.242C207.285 138.956 207.597 139.537 208.127 139.985C208.669 140.422 209.353 140.662 210.18 140.705C211.234 140.761 212.121 140.459 212.841 139.799L213.973 141.247C213.514 141.739 212.949 142.1 212.276 142.329C211.603 142.558 210.853 142.651 210.026 142.608C208.971 142.553 208.054 142.294 207.273 141.833C206.492 141.371 205.899 140.757 205.495 139.991C205.103 139.214 204.932 138.351 204.981 137.405C205.03 136.47 205.284 135.642 205.742 134.921C206.213 134.189 206.837 133.633 207.614 133.253C208.391 132.873 209.253 132.708 210.2 132.758C211.134 132.807 211.956 133.06 212.665 133.518C213.387 133.964 213.932 134.575 214.3 135.352C214.68 136.117 214.845 136.99 214.793 137.973ZM210.106 134.555C209.387 134.517 208.764 134.701 208.238 135.106C207.725 135.5 207.396 136.047 207.251 136.749L212.697 137.034C212.638 136.334 212.374 135.755 211.905 135.298C211.436 134.841 210.837 134.593 210.106 134.555ZM222.658 133.41C223.868 133.474 224.82 133.878 225.514 134.624C226.208 135.369 226.519 136.437 226.446 137.827L226.158 143.327L223.911 143.209L224.184 137.997C224.228 137.158 224.063 136.518 223.69 136.078C223.317 135.626 222.765 135.381 222.034 135.342C221.207 135.299 220.541 135.517 220.035 135.995C219.53 136.461 219.253 137.161 219.204 138.096L218.95 142.949L216.703 142.832L217.206 133.233L219.345 133.345L219.28 134.585C219.675 134.161 220.159 133.85 220.735 133.652C221.31 133.454 221.951 133.373 222.658 133.41ZM234.963 134.055C236.174 134.119 237.126 134.523 237.82 135.268C238.514 136.014 238.824 137.082 238.751 138.472L238.463 143.972L236.216 143.854L236.489 138.641C236.533 137.803 236.369 137.163 235.995 136.723C235.622 136.271 235.07 136.026 234.339 135.987C233.512 135.944 232.846 136.161 232.34 136.64C231.835 137.106 231.558 137.806 231.509 138.741L231.255 143.594L229.008 143.477L229.511 133.878L231.65 133.99L231.585 135.23C231.98 134.806 232.465 134.495 233.04 134.297C233.615 134.099 234.256 134.018 234.963 134.055ZM250.674 139.853C250.665 140.009 250.642 140.23 250.603 140.517L243.071 140.122C243.166 140.836 243.478 141.417 244.007 141.865C244.549 142.302 245.233 142.542 246.06 142.586C247.115 142.641 248.002 142.339 248.721 141.68L249.853 143.127C249.395 143.62 248.829 143.981 248.156 144.21C247.483 144.439 246.733 144.532 245.906 144.488C244.852 144.433 243.934 144.175 243.153 143.713C242.372 143.252 241.78 142.638 241.375 141.872C240.983 141.094 240.812 140.232 240.862 139.285C240.911 138.35 241.164 137.523 241.623 136.802C242.094 136.069 242.718 135.513 243.495 135.133C244.272 134.753 245.133 134.588 246.08 134.638C247.015 134.687 247.837 134.94 248.546 135.398C249.267 135.844 249.812 136.456 250.18 137.232C250.561 137.997 250.725 138.871 250.674 139.853ZM245.986 136.435C245.267 136.398 244.645 136.581 244.119 136.987C243.605 137.38 243.276 137.928 243.131 138.629L248.578 138.915C248.518 138.214 248.254 137.636 247.786 137.179C247.317 136.722 246.717 136.474 245.986 136.435ZM255.152 136.627C255.852 135.655 257.016 135.211 258.646 135.297L258.534 137.436C258.344 137.39 258.171 137.362 258.016 137.354C257.141 137.308 256.444 137.53 255.926 138.02C255.408 138.497 255.124 139.216 255.074 140.174L254.83 144.83L252.583 144.712L253.086 135.113L255.225 135.225L255.152 136.627ZM61.9308 157.087C60.9841 157.037 60.4837 157.528 60.4297 158.559L60.3996 159.134L63.0419 159.272L62.9477 161.07L60.3773 160.935L59.9722 168.664L57.7253 168.547L58.1303 160.817L56.5485 160.734L56.6427 158.937L58.2246 159.02L58.2566 158.409C58.3106 157.378 58.6526 156.585 59.2825 156.029C59.9131 155.461 60.7736 155.206 61.8641 155.263C62.727 155.308 63.3949 155.518 63.868 155.891L63.1504 157.548C62.7807 157.264 62.3742 157.11 61.9308 157.087ZM68.2222 169.223C67.2515 169.172 66.3877 168.917 65.6307 168.456C64.8738 167.996 64.2931 167.383 63.8886 166.617C63.4968 165.839 63.3257 164.977 63.3753 164.03C63.4249 163.083 63.6849 162.25 64.1552 161.53C64.6376 160.81 65.2792 160.261 66.0801 159.882C66.881 159.503 67.7668 159.34 68.7375 159.39C69.7201 159.442 70.5899 159.698 71.3469 160.158C72.1038 160.618 72.6785 161.231 73.071 161.997C73.4754 162.763 73.6529 163.62 73.6033 164.566C73.5536 165.513 73.2874 166.352 72.8044 167.084C72.3341 167.804 71.6984 168.354 70.8975 168.732C70.0966 169.111 69.2048 169.274 68.2222 169.223ZM68.323 167.3C69.1498 167.343 69.8473 167.103 70.4155 166.58C70.9836 166.057 71.2913 165.346 71.3384 164.448C71.3855 163.549 71.1538 162.81 70.6435 162.23C70.1331 161.651 69.4645 161.339 68.6376 161.296C67.8107 161.253 67.1132 161.492 66.5451 162.015C65.9889 162.539 65.6873 163.25 65.6402 164.149C65.5931 165.048 65.8187 165.786 66.3171 166.365C66.8275 166.945 67.4961 167.256 68.323 167.3ZM78.069 161.394C78.7688 160.421 79.9337 159.977 81.5634 160.063L81.4513 162.202C81.2615 162.156 81.0886 162.129 80.9329 162.12C80.0581 162.075 79.3615 162.296 78.8432 162.786C78.3255 163.264 78.0415 163.982 77.9912 164.94L77.7473 169.596L75.5003 169.478L76.0034 159.879L78.1425 159.992L78.069 161.394ZM100.64 161.062C101.851 161.126 102.791 161.53 103.461 162.274C104.132 163.006 104.43 164.073 104.357 165.475L104.068 170.975L101.821 170.858L102.095 165.645C102.139 164.806 101.986 164.167 101.636 163.728C101.287 163.277 100.765 163.034 100.07 162.997C99.3154 162.958 98.6971 163.178 98.2153 163.657C97.7342 164.125 97.4695 164.82 97.4211 165.742L97.1658 170.614L94.9189 170.496L95.1921 165.283C95.2361 164.444 95.0833 163.805 94.7338 163.366C94.3849 162.916 93.8629 162.672 93.1679 162.636C92.4009 162.595 91.7769 162.809 91.2958 163.276C90.8266 163.744 90.5676 164.446 90.5186 165.381L90.2633 170.252L88.0164 170.134L88.5194 160.535L90.6585 160.647L90.5944 161.87C90.9765 161.457 91.4432 161.151 91.9944 160.952C92.5456 160.752 93.1507 160.67 93.8098 160.704C94.5288 160.742 95.1567 160.913 95.6935 161.218C96.243 161.511 96.6656 161.93 96.9615 162.474C97.3834 161.991 97.9131 161.628 98.5507 161.386C99.1889 161.131 99.8855 161.023 100.64 161.062ZM116.3 166.858C116.292 167.014 116.268 167.235 116.229 167.521L108.697 167.126C108.792 167.84 109.104 168.421 109.633 168.87C110.175 169.307 110.86 169.547 111.686 169.59C112.741 169.645 113.628 169.343 114.347 168.684L115.479 170.131C115.021 170.624 114.455 170.985 113.782 171.214C113.109 171.443 112.359 171.536 111.533 171.493C110.478 171.438 109.56 171.179 108.779 170.718C107.998 170.256 107.406 169.642 107.001 168.876C106.61 168.098 106.438 167.236 106.488 166.29C106.537 165.355 106.791 164.527 107.249 163.806C107.72 163.074 108.344 162.518 109.121 162.138C109.898 161.758 110.76 161.593 111.706 161.642C112.641 161.691 113.463 161.945 114.172 162.402C114.894 162.849 115.438 163.46 115.806 164.237C116.187 165.001 116.351 165.875 116.3 166.858ZM111.612 163.44C110.893 163.402 110.271 163.586 109.745 163.991C109.231 164.385 108.902 164.932 108.757 165.634L114.204 165.919C114.145 165.219 113.88 164.64 113.412 164.183C112.943 163.726 112.343 163.478 111.612 163.44ZM128.309 158.872L127.61 172.209L125.453 172.096L125.518 170.856C125.123 171.292 124.644 171.609 124.081 171.808C123.529 172.007 122.924 172.09 122.265 172.055C121.342 172.007 120.52 171.76 119.799 171.313C119.089 170.867 118.544 170.262 118.163 169.497C117.784 168.72 117.619 167.846 117.67 166.876C117.721 165.905 117.975 165.059 118.434 164.338C118.892 163.617 119.497 163.072 120.25 162.703C121.014 162.334 121.858 162.174 122.78 162.223C123.416 162.256 123.991 162.394 124.507 162.638C125.023 162.881 125.455 163.228 125.804 163.679L126.062 158.754L128.309 158.872ZM122.636 170.146C123.175 170.174 123.666 170.08 124.11 169.863C124.555 169.634 124.915 169.298 125.191 168.856C125.466 168.414 125.62 167.893 125.651 167.294C125.682 166.695 125.584 166.161 125.356 165.692C125.129 165.224 124.805 164.858 124.386 164.596C123.968 164.322 123.489 164.171 122.95 164.142C122.411 164.114 121.919 164.214 121.474 164.443C121.03 164.66 120.671 164.99 120.395 165.432C120.12 165.874 119.966 166.395 119.935 166.994C119.903 167.594 120.002 168.127 120.229 168.596C120.457 169.065 120.78 169.436 121.198 169.71C121.617 169.972 122.096 170.118 122.636 170.146ZM139.693 163.109C141.107 163.183 142.168 163.581 142.875 164.303C143.595 165.014 143.919 166.052 143.847 167.418L143.553 173.045L141.431 172.934L141.493 171.765C141.195 172.17 140.783 172.473 140.255 172.674C139.741 172.863 139.124 172.939 138.405 172.901C137.686 172.863 137.063 172.711 136.536 172.443C136.01 172.163 135.609 171.799 135.332 171.352C135.068 170.894 134.95 170.389 134.979 169.838C135.024 168.975 135.378 168.302 136.04 167.82C136.714 167.327 137.741 167.116 139.119 167.189L141.6 167.319L141.607 167.175C141.642 166.504 141.466 165.978 141.077 165.597C140.7 165.217 140.117 165.006 139.326 164.964C138.786 164.936 138.249 164.992 137.713 165.132C137.189 165.273 136.739 165.484 136.364 165.764L135.569 164.083C136.092 163.725 136.713 163.464 137.43 163.297C138.148 163.13 138.902 163.068 139.693 163.109ZM138.958 171.29C139.521 171.319 140.025 171.22 140.47 170.991C140.927 170.75 141.258 170.395 141.463 169.925L141.521 168.811L139.203 168.689C137.908 168.621 137.239 169.013 137.194 169.864C137.173 170.271 137.318 170.603 137.629 170.86C137.94 171.116 138.383 171.26 138.958 171.29ZM147.135 159.858L149.382 159.976L148.683 173.314L146.436 173.196L147.135 159.858ZM152.331 160.13L154.578 160.248L153.879 173.586L151.632 173.468L152.331 160.13ZM166.101 169.468C166.092 169.624 166.069 169.845 166.03 170.131L158.498 169.736C158.593 170.45 158.905 171.031 159.434 171.48C159.976 171.917 160.66 172.157 161.487 172.2C162.542 172.255 163.429 171.953 164.148 171.294L165.28 172.741C164.822 173.234 164.256 173.595 163.583 173.824C162.91 174.053 162.16 174.146 161.333 174.103C160.279 174.047 159.361 173.789 158.58 173.328C157.799 172.866 157.207 172.252 156.802 171.486C156.41 170.708 156.239 169.846 156.289 168.9C156.338 167.965 156.591 167.137 157.05 166.416C157.521 165.684 158.145 165.128 158.922 164.748C159.699 164.368 160.56 164.203 161.507 164.252C162.442 164.301 163.264 164.555 163.973 165.012C164.694 165.459 165.239 166.07 165.607 166.846C165.988 167.611 166.152 168.485 166.101 169.468ZM161.413 166.05C160.694 166.012 160.071 166.196 159.546 166.601C159.032 166.995 158.703 167.542 158.558 168.243L164.005 168.529C163.945 167.829 163.681 167.25 163.213 166.793C162.744 166.336 162.144 166.088 161.413 166.05ZM175.937 174.868C175.158 174.827 174.403 174.686 173.67 174.443C172.938 174.2 172.358 173.911 171.931 173.577L172.884 171.914C173.3 172.224 173.803 172.485 174.393 172.696C174.995 172.896 175.59 173.011 176.177 173.042C177.519 173.112 178.209 172.794 178.246 172.087C178.264 171.752 178.102 171.509 177.761 171.359C177.433 171.209 176.894 171.055 176.145 170.896C175.361 170.734 174.721 170.563 174.226 170.38C173.743 170.199 173.325 169.907 172.974 169.504C172.635 169.089 172.484 168.535 172.52 167.84C172.568 166.929 172.984 166.224 173.767 165.724C174.563 165.213 175.608 164.991 176.902 165.059C177.561 165.094 178.216 165.206 178.867 165.396C179.519 165.575 180.047 165.801 180.454 166.074L179.501 167.737C178.712 167.215 177.807 166.927 176.789 166.874C176.13 166.839 175.621 166.915 175.263 167.1C174.917 167.274 174.736 167.523 174.719 167.847C174.7 168.206 174.866 168.473 175.218 168.648C175.582 168.811 176.144 168.979 176.904 169.151C177.664 169.311 178.286 169.482 178.77 169.663C179.253 169.845 179.658 170.13 179.986 170.52C180.326 170.91 180.479 171.447 180.443 172.13C180.396 173.029 179.968 173.728 179.161 174.226C178.354 174.724 177.279 174.938 175.937 174.868ZM186.536 175.424C185.566 175.373 184.702 175.117 183.945 174.657C183.188 174.197 182.607 173.583 182.203 172.817C181.811 172.04 181.64 171.177 181.689 170.231C181.739 169.284 181.999 168.451 182.469 167.73C182.952 167.01 183.593 166.461 184.394 166.083C185.195 165.704 186.081 165.54 187.052 165.591C188.034 165.643 188.904 165.898 189.661 166.359C190.418 166.819 190.993 167.432 191.385 168.197C191.79 168.964 191.967 169.82 191.917 170.767C191.868 171.714 191.602 172.553 191.119 173.284C190.648 174.005 190.013 174.554 189.212 174.933C188.411 175.312 187.519 175.475 186.536 175.424ZM186.637 173.5C187.464 173.544 188.162 173.304 188.73 172.781C189.298 172.258 189.605 171.547 189.653 170.648C189.7 169.749 189.468 169.01 188.958 168.431C188.447 167.851 187.779 167.54 186.952 167.496C186.125 167.453 185.427 167.693 184.859 168.216C184.303 168.74 184.001 169.451 183.954 170.349C183.907 171.248 184.133 171.987 184.631 172.566C185.142 173.145 185.81 173.457 186.637 173.5ZM206.439 166.607C207.649 166.671 208.589 167.074 209.259 167.818C209.93 168.55 210.228 169.618 210.155 171.02L209.867 176.52L207.62 176.402L207.893 171.189C207.937 170.351 207.784 169.712 207.434 169.273C207.086 168.822 206.564 168.578 205.869 168.542C205.114 168.502 204.495 168.722 204.014 169.202C203.532 169.669 203.268 170.364 203.219 171.287L202.964 176.158L200.717 176.041L200.99 170.828C201.034 169.989 200.881 169.35 200.532 168.911C200.183 168.46 199.661 168.217 198.966 168.18C198.199 168.14 197.575 168.354 197.094 168.821C196.625 169.289 196.366 169.991 196.317 170.925L196.061 175.797L193.815 175.679L194.318 166.08L196.457 166.192L196.393 167.414C196.775 167.002 197.241 166.696 197.793 166.496C198.344 166.297 198.949 166.215 199.608 166.249C200.327 166.287 200.955 166.458 201.492 166.762C202.041 167.056 202.464 167.474 202.76 168.018C203.182 167.536 203.711 167.173 204.349 166.93C204.987 166.675 205.684 166.568 206.439 166.607ZM226.978 172.658C226.97 172.814 226.946 173.035 226.907 173.322L219.375 172.927C219.47 173.641 219.782 174.222 220.311 174.67C220.853 175.107 221.538 175.347 222.365 175.391C223.419 175.446 224.306 175.144 225.026 174.485L226.157 175.932C225.699 176.425 225.133 176.785 224.46 177.015C223.788 177.244 223.038 177.337 222.211 177.293C221.156 177.238 220.239 176.98 219.458 176.518C218.677 176.057 218.084 175.443 217.68 174.676C217.288 173.899 217.117 173.037 217.166 172.09C217.215 171.155 217.469 170.327 217.927 169.606C218.398 168.874 219.022 168.318 219.799 167.938C220.576 167.558 221.438 167.393 222.385 167.443C223.319 167.492 224.141 167.745 224.85 168.203C225.572 168.649 226.117 169.261 226.484 170.037C226.865 170.802 227.029 171.676 226.978 172.658ZM222.29 169.24C221.571 169.203 220.949 169.386 220.423 169.791C219.91 170.185 219.581 170.733 219.436 171.434L224.882 171.719C224.823 171.019 224.559 170.441 224.09 169.984C223.621 169.526 223.021 169.279 222.29 169.24ZM231.456 169.432C232.156 168.46 233.321 168.016 234.951 168.101L234.838 170.24C234.649 170.194 234.476 170.167 234.32 170.159C233.445 170.113 232.749 170.335 232.23 170.825C231.713 171.302 231.429 172.02 231.378 172.979L231.134 177.635L228.888 177.517L229.391 167.918L231.53 168.03L231.456 169.432ZM95.8242 194.965L98.0711 195.083L97.5681 204.681L95.3212 204.564L95.8242 194.965ZM97.0396 193.442C96.6321 193.421 96.2972 193.277 96.0347 193.011C95.7729 192.733 95.6521 192.402 95.6722 192.019C95.6923 191.635 95.8467 191.325 96.1355 191.088C96.425 190.839 96.7734 190.725 97.1809 190.746C97.5883 190.767 97.9232 190.911 98.1857 191.177C98.4487 191.431 98.5705 191.744 98.5511 192.116C98.5303 192.511 98.3749 192.839 98.0849 193.101C97.8074 193.35 97.459 193.464 97.0396 193.442ZM106.472 195.415C107.683 195.478 108.635 195.883 109.329 196.628C110.023 197.373 110.333 198.441 110.26 199.831L109.972 205.331L107.725 205.214L107.998 200.001C108.042 199.162 107.878 198.523 107.504 198.082C107.131 197.63 106.579 197.385 105.848 197.347C105.022 197.303 104.355 197.521 103.85 197.999C103.344 198.465 103.067 199.166 103.018 200.1L102.764 204.954L100.517 204.836L101.02 195.237L103.159 195.349L103.094 196.59C103.489 196.166 103.974 195.855 104.549 195.656C105.124 195.458 105.765 195.378 106.472 195.415ZM118.62 205.262C118.345 205.464 118.013 205.609 117.624 205.696C117.247 205.785 116.848 205.818 116.429 205.796C115.374 205.741 114.574 205.422 114.028 204.841C113.481 204.26 113.236 203.442 113.291 202.387L113.533 197.767L111.951 197.685L112.046 195.887L113.627 195.97L113.742 193.777L115.989 193.895L115.874 196.088L118.445 196.222L118.351 198.02L115.78 197.885L115.541 202.451C115.516 202.918 115.611 203.284 115.826 203.547C116.041 203.799 116.364 203.936 116.796 203.959C117.299 203.985 117.725 203.875 118.075 203.629L118.62 205.262ZM129.397 201.591C129.389 201.747 129.366 201.968 129.327 202.254L121.795 201.859C121.89 202.573 122.202 203.155 122.731 203.603C123.273 204.04 123.957 204.28 124.784 204.323C125.839 204.379 126.726 204.077 127.445 203.417L128.577 204.865C128.118 205.357 127.553 205.718 126.88 205.947C126.207 206.176 125.457 206.269 124.63 206.226C123.576 206.171 122.658 205.912 121.877 205.451C121.096 204.989 120.503 204.375 120.099 203.609C119.707 202.832 119.536 201.969 119.586 201.023C119.635 200.088 119.888 199.26 120.347 198.539C120.818 197.807 121.442 197.251 122.219 196.871C122.995 196.491 123.857 196.326 124.804 196.375C125.739 196.424 126.561 196.678 127.27 197.136C127.991 197.582 128.536 198.193 128.904 198.97C129.284 199.735 129.449 200.608 129.397 201.591ZM124.71 198.173C123.991 198.135 123.368 198.319 122.842 198.724C122.329 199.118 122 199.665 121.855 200.367L127.302 200.652C127.242 199.952 126.978 199.373 126.509 198.916C126.041 198.459 125.441 198.211 124.71 198.173ZM133.876 198.365C134.575 197.392 135.74 196.949 137.37 197.034L137.258 199.173C137.068 199.127 136.895 199.1 136.739 199.092C135.865 199.046 135.168 199.268 134.65 199.757C134.132 200.235 133.848 200.953 133.798 201.912L133.554 206.567L131.307 206.45L131.81 196.851L133.949 196.963L133.876 198.365ZM147.952 202.563C147.944 202.719 147.92 202.94 147.881 203.227L140.349 202.832C140.444 203.546 140.756 204.127 141.286 204.575C141.827 205.012 142.512 205.252 143.339 205.296C144.393 205.351 145.28 205.049 146 204.39L147.131 205.837C146.673 206.33 146.107 206.691 145.435 206.92C144.762 207.149 144.012 207.242 143.185 207.198C142.13 207.143 141.213 206.885 140.432 206.423C139.651 205.962 139.058 205.348 138.654 204.582C138.262 203.804 138.091 202.942 138.14 201.995C138.189 201.06 138.443 200.233 138.901 199.512C139.372 198.779 139.996 198.223 140.773 197.843C141.55 197.463 142.412 197.298 143.359 197.348C144.293 197.397 145.115 197.65 145.824 198.108C146.546 198.554 147.091 199.166 147.458 199.942C147.839 200.707 148.003 201.581 147.952 202.563ZM143.264 199.145C142.545 199.108 141.923 199.291 141.397 199.696C140.884 200.09 140.555 200.638 140.41 201.339L145.856 201.624C145.797 200.924 145.533 200.346 145.064 199.889C144.595 199.431 143.995 199.184 143.264 199.145ZM152.821 207.703C152.042 207.662 151.286 207.521 150.554 207.278C149.822 207.035 149.242 206.747 148.815 206.412L149.767 204.749C150.184 205.06 150.687 205.32 151.276 205.531C151.879 205.731 152.474 205.847 153.061 205.877C154.403 205.948 155.093 205.629 155.13 204.922C155.147 204.587 154.986 204.344 154.645 204.194C154.316 204.045 153.778 203.89 153.029 203.731C152.244 203.569 151.605 203.398 151.109 203.216C150.626 203.034 150.209 202.742 149.858 202.339C149.519 201.925 149.368 201.37 149.404 200.675C149.452 199.764 149.867 199.059 150.65 198.559C151.446 198.048 152.491 197.826 153.786 197.894C154.445 197.929 155.1 198.041 155.751 198.232C156.402 198.41 156.931 198.636 157.337 198.91L156.385 200.572C155.595 200.05 154.691 199.762 153.672 199.709C153.013 199.674 152.505 199.75 152.147 199.935C151.801 200.109 151.62 200.358 151.603 200.682C151.584 201.041 151.75 201.308 152.101 201.483C152.465 201.646 153.027 201.814 153.787 201.986C154.548 202.146 155.17 202.317 155.653 202.498C156.136 202.68 156.542 202.966 156.87 203.355C157.21 203.746 157.362 204.282 157.326 204.965C157.279 205.864 156.852 206.563 156.045 207.061C155.238 207.56 154.163 207.774 152.821 207.703ZM162.072 208.188C161.293 208.147 160.537 208.006 159.805 207.763C159.073 207.52 158.493 207.231 158.066 206.897L159.018 205.234C159.435 205.544 159.938 205.805 160.527 206.016C161.13 206.216 161.725 206.331 162.312 206.362C163.654 206.432 164.344 206.114 164.381 205.407C164.398 205.072 164.237 204.829 163.896 204.679C163.567 204.529 163.029 204.375 162.28 204.216C161.495 204.054 160.856 203.883 160.36 203.7C159.877 203.519 159.46 203.227 159.109 202.824C158.77 202.409 158.619 201.855 158.655 201.16C158.703 200.249 159.118 199.544 159.901 199.044C160.697 198.533 161.742 198.311 163.037 198.379C163.696 198.414 164.351 198.526 165.002 198.716C165.653 198.895 166.182 199.121 166.588 199.394L165.636 201.057C164.846 200.535 163.942 200.247 162.923 200.194C162.264 200.159 161.756 200.235 161.397 200.42C161.052 200.594 160.871 200.843 160.854 201.167C160.835 201.526 161.001 201.793 161.352 201.968C161.716 202.131 162.278 202.299 163.038 202.471C163.799 202.631 164.421 202.802 164.904 202.983C165.387 203.165 165.793 203.45 166.121 203.84C166.461 204.23 166.613 204.767 166.577 205.45C166.53 206.349 166.103 207.048 165.296 207.546C164.489 208.044 163.414 208.258 162.072 208.188ZM177.636 204.119C177.628 204.275 177.604 204.496 177.565 204.782L170.033 204.388C170.128 205.101 170.44 205.683 170.969 206.131C171.511 206.568 172.196 206.808 173.022 206.851C174.077 206.907 174.964 206.605 175.684 205.945L176.815 207.393C176.357 207.885 175.791 208.246 175.118 208.475C174.445 208.704 173.696 208.797 172.869 208.754C171.814 208.699 170.896 208.44 170.116 207.979C169.335 207.517 168.742 206.903 168.337 206.137C167.946 205.36 167.774 204.497 167.824 203.551C167.873 202.616 168.127 201.788 168.585 201.067C169.056 200.335 169.68 199.779 170.457 199.399C171.234 199.019 172.096 198.854 173.042 198.904C173.977 198.953 174.799 199.206 175.508 199.664C176.23 200.11 176.774 200.721 177.142 201.498C177.523 202.263 177.687 203.136 177.636 204.119ZM172.948 200.701C172.229 200.663 171.607 200.847 171.081 201.252C170.568 201.646 170.238 202.193 170.094 202.895L175.54 203.18C175.481 202.48 175.217 201.901 174.748 201.444C174.279 200.987 173.679 200.739 172.948 200.701ZM182.114 200.893C182.814 199.92 183.979 199.477 185.609 199.562L185.496 201.701C185.307 201.655 185.134 201.628 184.978 201.62C184.103 201.574 183.407 201.796 182.888 202.285C182.371 202.763 182.087 203.481 182.036 204.44L181.792 209.095L179.545 208.978L180.048 199.379L182.188 199.491L182.114 200.893ZM193.154 209.168C192.879 209.37 192.547 209.515 192.158 209.603C191.781 209.691 191.383 209.724 190.963 209.702C189.909 209.647 189.108 209.329 188.562 208.747C188.016 208.166 187.77 207.348 187.826 206.293L188.068 201.674L186.486 201.591L186.58 199.793L188.162 199.876L188.277 197.683L190.524 197.801L190.409 199.994L192.979 200.129L192.885 201.926L190.315 201.791L190.075 206.357C190.051 206.825 190.146 207.19 190.36 207.454C190.575 207.705 190.899 207.842 191.33 207.865C191.833 207.891 192.26 207.781 192.609 207.535L193.154 209.168Z" fill="#1A0733"/>
<path d="M303.117 96.543C302.331 96.9042 302.057 98.9819 303.466 100.233M312.39 94.2309C312.914 94.4666 313.838 95.8354 313.585 97.3055M317.875 89.8953C317.962 88.5247 318.635 87.8602 320.193 87.7389M313.585 97.3055C313.371 98.5428 312.418 99.8282 308.747 100.805C305.641 101.632 304.354 101.022 303.466 100.233M313.585 97.3055C313.585 97.3055 317.719 96.1376 318.557 96.0657C319.396 95.9939 322.969 96.5845 324.059 92.9402C324.575 91.2155 323.859 89.8679 323.078 89.003C322.208 88.0402 321.186 87.6616 320.193 87.7389M320.193 87.7389C320.193 87.7389 318.798 83.8643 314.98 84.007C313.757 84.0527 312.97 84.377 312.464 84.7969M311.589 87.0109C311.589 87.0109 311.391 85.6885 312.464 84.7969M312.464 84.7969C312.464 84.7969 310.394 83.1267 306.694 85.1285C305.701 85.6661 305.016 86.3831 304.651 87.122M305.55 90.2704C304.323 89.6483 304.041 88.3548 304.651 87.122M304.651 87.122C304.651 87.122 302.252 86.7758 300.355 89.8118C298.459 92.8478 299.392 94.7735 299.392 94.7735C299.392 94.7735 298.128 96.5727 299.567 98.9118C301.007 101.251 303.466 100.233 303.466 100.233M306.635 96.3403C306.635 96.3403 306.16 94.4352 308.073 94.093M310.248 90.2185C310.248 90.2185 312.064 88.916 313.614 90.553M319.6 93.3775C319.6 93.3775 319.22 91.8534 320.833 91.4513" stroke="#F3A447" stroke-width="2" stroke-linecap="round"/>
<path d="M118.837 11.772L117.837 11.7764L117.845 13.5621L119.363 12.6224L118.837 11.772ZM114.206 4.8743L114.557 3.93807L114.206 4.8743ZM127.141 12.0444L127.749 11.2503L127.749 11.2503L127.141 12.0444ZM110.53 26.758L109.735 27.3639L110.001 27.7132L110.438 27.7537L110.53 26.758ZM118.837 11.772C119.837 11.7677 119.837 11.7672 119.837 11.7668C119.837 11.7666 119.837 11.7661 119.837 11.7657C119.837 11.765 119.837 11.7642 119.837 11.7633C119.837 11.7615 119.837 11.7593 119.837 11.7569C119.837 11.752 119.837 11.7459 119.837 11.7385C119.836 11.7238 119.836 11.7042 119.835 11.6799C119.834 11.6314 119.831 11.5641 119.825 11.4803C119.814 11.3129 119.792 11.0783 119.751 10.7941C119.669 10.228 119.507 9.45212 119.183 8.61201C118.532 6.92584 117.206 4.93238 114.557 3.93807L113.854 5.81053C115.814 6.54611 116.804 8.00152 117.317 9.33175C117.574 9.99984 117.706 10.6241 117.772 11.0809C117.805 11.3082 117.821 11.491 117.829 11.6129C117.833 11.6738 117.835 11.7193 117.836 11.7473C117.837 11.7612 117.837 11.7708 117.837 11.7758C117.837 11.7783 117.837 11.7796 117.837 11.7797C117.837 11.7797 117.837 11.7795 117.837 11.7789C117.837 11.7787 117.837 11.7783 117.837 11.7779C117.837 11.7777 117.837 11.7773 117.837 11.7772C117.837 11.7768 117.837 11.7764 118.837 11.772ZM118.837 11.772C119.363 12.6224 119.363 12.6226 119.363 12.6228C119.363 12.6229 119.362 12.6231 119.362 12.6232C119.362 12.6234 119.361 12.6236 119.361 12.6237C119.361 12.624 119.36 12.6241 119.361 12.6241C119.361 12.6241 119.362 12.6234 119.364 12.6221C119.368 12.6196 119.376 12.6147 119.388 12.6076C119.413 12.5936 119.452 12.5712 119.506 12.5424C119.614 12.4846 119.777 12.4017 119.988 12.3091C120.41 12.1232 121.009 11.9037 121.712 11.7682C123.112 11.4984 124.871 11.5663 126.533 12.8385L127.749 11.2503C125.502 9.53061 123.108 9.46235 121.334 9.80434C120.45 9.97473 119.706 10.2482 119.182 10.4786C118.919 10.5943 118.709 10.7004 118.561 10.7797C118.487 10.8194 118.428 10.8525 118.386 10.8768C118.365 10.889 118.348 10.899 118.336 10.9066C118.329 10.9103 118.324 10.9135 118.32 10.9161C118.318 10.9173 118.316 10.9184 118.315 10.9194C118.314 10.9198 118.313 10.9203 118.313 10.9207C118.312 10.9209 118.312 10.9211 118.312 10.9212C118.311 10.9215 118.311 10.9217 118.837 11.772ZM126.533 12.8385C128.119 14.0521 128.838 16.3333 128.439 18.685C128.045 21.0066 126.58 23.2193 124.031 24.2398L124.775 26.0965C128.058 24.7815 129.917 21.9283 130.411 19.0199C130.9 16.1415 130.072 13.0286 127.749 11.2503L126.533 12.8385ZM124.031 24.2398C121.273 25.3446 117.938 25.7357 115.241 25.8396C113.903 25.8912 112.742 25.8714 111.917 25.8388C111.505 25.8225 111.178 25.803 110.955 25.7878C110.844 25.7802 110.759 25.7736 110.703 25.7691C110.675 25.7668 110.654 25.765 110.64 25.7638C110.633 25.7632 110.629 25.7628 110.626 25.7625C110.624 25.7624 110.623 25.7623 110.623 25.7623C110.622 25.7622 110.622 25.7622 110.622 25.7622C110.622 25.7622 110.622 25.7622 110.622 25.7622C110.622 25.7622 110.623 25.7623 110.53 26.758C110.438 27.7537 110.438 27.7537 110.438 27.7538C110.438 27.7538 110.439 27.7538 110.439 27.7538C110.439 27.7539 110.44 27.7539 110.441 27.754C110.442 27.7541 110.444 27.7543 110.447 27.7545C110.451 27.7549 110.458 27.7555 110.467 27.7563C110.484 27.7578 110.509 27.7599 110.541 27.7625C110.606 27.7677 110.699 27.7749 110.819 27.7831C111.059 27.7996 111.405 27.8201 111.838 27.8372C112.704 27.8714 113.918 27.8921 115.318 27.8381C118.1 27.731 121.702 27.3271 124.775 26.0965L124.031 24.2398ZM103.543 14.3273C104.127 17.5853 105.694 20.854 107.077 23.2698C107.773 24.4863 108.434 25.5049 108.922 26.2206C109.166 26.5787 109.367 26.8617 109.508 27.0564C109.578 27.1539 109.634 27.2293 109.673 27.2811C109.692 27.3069 109.707 27.3269 109.717 27.3408C109.723 27.3478 109.727 27.3532 109.73 27.357C109.731 27.359 109.732 27.3605 109.733 27.3617C109.733 27.3622 109.734 27.3627 109.734 27.3631C109.734 27.3633 109.734 27.3635 109.735 27.3636C109.735 27.3638 109.735 27.3639 110.53 26.758C111.326 26.152 111.326 26.1522 111.326 26.1522C111.326 26.1522 111.326 26.1523 111.326 26.1523C111.326 26.1523 111.326 26.1522 111.326 26.152C111.325 26.1516 111.325 26.1508 111.324 26.1496C111.322 26.1472 111.319 26.1433 111.315 26.1379C111.307 26.1271 111.294 26.1103 111.277 26.0876C111.244 26.0423 111.193 25.9736 111.128 25.8833C110.997 25.7026 110.807 25.4353 110.575 25.0945C110.11 24.4124 109.478 23.4384 108.813 22.276C107.471 19.9338 106.036 16.8988 105.511 13.974L103.543 14.3273ZM114.557 3.93807C111.818 2.90985 108.739 3.85789 106.558 5.79786C104.353 7.75804 102.918 10.8462 103.543 14.3273L105.511 13.974C105.026 11.2722 106.127 8.85725 107.886 7.29251C109.669 5.70756 111.985 5.10887 113.854 5.81053L114.557 3.93807Z" fill="#F3A447"/>
<path d="M349.696 313.06L348.782 312.653C348.558 313.157 348.784 313.747 349.287 313.973L349.696 313.06ZM349.696 313.06L350.61 313.466C350.718 313.224 350.725 312.949 350.63 312.701C350.535 312.454 350.345 312.254 350.103 312.146L349.696 313.06ZM349.196 312.837L348.789 313.751L349.196 312.837ZM337.468 316.303L338.308 316.846L337.468 316.303ZM336.848 326.964L337.806 326.679L337.806 326.679L336.848 326.964ZM337.459 329.779L336.459 329.779L336.459 329.779L337.459 329.779ZM336.867 332.461L335.956 332.049L335.956 332.049L336.867 332.461ZM336.623 333.002L335.71 332.595L336.623 333.002ZM336.289 333.752L335.376 333.345C335.151 333.85 335.378 334.441 335.883 334.666L336.289 333.752ZM339.257 335.073L340.171 335.48C340.395 334.975 340.168 334.384 339.664 334.16L339.257 335.073ZM339.257 335.074L338.343 334.667C338.119 335.171 338.346 335.763 338.85 335.987L339.257 335.074ZM342.757 336.632L342.35 337.546C342.592 337.653 342.868 337.661 343.115 337.566C343.363 337.471 343.563 337.281 343.67 337.039L342.757 336.632ZM343.33 335.339L344.246 335.74L344.246 335.74L343.33 335.339ZM344.927 333.105L345.596 333.847L344.927 333.105ZM347.428 331.675L347.858 332.578L347.428 331.675ZM354.936 324.08L355.901 324.341L355.901 324.341L354.936 324.08ZM350.61 313.467L350.61 313.466L348.783 312.653L348.782 312.653L350.61 313.467ZM350.103 312.146L349.603 311.923L348.789 313.751L349.289 313.973L350.103 312.146ZM349.603 311.923C347.877 311.155 345.639 310.554 343.301 310.948C340.919 311.349 338.567 312.76 336.628 315.76L338.308 316.846C339.977 314.263 341.865 313.217 343.633 312.92C345.443 312.615 347.265 313.072 348.789 313.751L349.603 311.923ZM336.628 315.76C333.76 320.196 335.053 324.437 335.889 327.249L337.806 326.679C336.96 323.832 335.984 320.44 338.308 316.846L336.628 315.76ZM335.889 327.249C336.234 328.41 336.459 329.202 336.459 329.779L338.459 329.78C338.46 328.843 338.118 327.726 337.806 326.679L335.889 327.249ZM336.459 329.779C336.459 330.483 336.444 330.738 336.393 330.957C336.341 331.185 336.244 331.41 335.956 332.049L337.778 332.873C338.037 332.299 338.236 331.87 338.343 331.404C338.451 330.929 338.459 330.449 338.459 329.78L336.459 329.779ZM335.956 332.049C335.884 332.208 335.802 332.389 335.71 332.595L337.537 333.409C337.626 333.208 337.706 333.032 337.778 332.873L335.956 332.049ZM335.71 332.595L335.376 333.345L337.203 334.159L337.537 333.409L335.71 332.595ZM335.883 334.666L338.85 335.987L339.664 334.16L336.696 332.838L335.883 334.666ZM340.17 335.48L340.171 335.48L338.343 334.667L338.343 334.667L340.17 335.48ZM343.164 335.718L339.664 334.16L338.85 335.987L342.35 337.546L343.164 335.718ZM342.177 335.475L341.843 336.225L343.67 337.039L344.004 336.289L342.177 335.475ZM342.414 334.937C342.344 335.098 342.267 335.275 342.177 335.475L344.004 336.289C344.096 336.082 344.176 335.9 344.246 335.74L342.414 334.937ZM344.257 332.362C343.76 332.81 343.408 333.136 343.128 333.535C342.853 333.926 342.667 334.361 342.414 334.937L344.246 335.74C344.528 335.098 344.63 334.876 344.764 334.685C344.894 334.5 345.073 334.319 345.596 333.847L344.257 332.362ZM346.998 330.772C346.012 331.241 344.953 331.735 344.257 332.362L345.596 333.847C346.025 333.461 346.763 333.099 347.858 332.578L346.998 330.772ZM353.97 323.82C352.854 327.951 349.68 329.496 346.998 330.772L347.858 332.578C350.507 331.318 354.523 329.441 355.901 324.341L353.97 323.82ZM349.287 313.973C350.807 314.654 352.357 315.703 353.334 317.251C354.289 318.762 354.77 320.86 353.97 323.82L355.901 324.341C356.83 320.904 356.312 318.219 355.025 316.183C353.762 314.182 351.828 312.92 350.105 312.148L349.287 313.973Z" fill="#F3A447"/>
<path d="M350.248 322.766C350.106 323.299 350.424 323.847 350.958 323.989C351.491 324.13 352.039 323.813 352.181 323.279L350.248 322.766ZM349.64 316.027C349.194 315.701 348.568 315.799 348.243 316.246C347.917 316.692 348.015 317.317 348.462 317.643L349.64 316.027ZM352.181 323.279C352.513 322.029 352.594 320.72 352.208 319.447C351.819 318.162 350.982 317.005 349.64 316.027L348.462 317.643C349.504 318.403 350.048 319.215 350.294 320.027C350.543 320.85 350.513 321.765 350.248 322.766L352.181 323.279Z" fill="#F3A447"/>
<path d="M335.422 336.961L340.922 339.41M334.591 340.188L339.111 342.2" stroke="#F3A447" stroke-width="2" stroke-linecap="round"/>
<path fill-rule="evenodd" clip-rule="evenodd" d="M159.021 275.689C160.053 277.01 159.819 278.917 158.498 279.949C157.178 280.98 155.271 280.746 154.239 279.426C153.207 278.105 153.441 276.198 154.762 275.166C156.082 274.134 157.989 274.369 159.021 275.689ZM161.149 281.558C163.044 279.422 163.206 276.173 161.385 273.842C159.333 271.216 155.541 270.75 152.915 272.802C150.289 274.854 149.823 278.646 151.875 281.273C152.384 281.924 153 282.442 153.678 282.823L150.515 291.364C148.933 291.127 147.261 291.514 145.901 292.577C143.275 294.628 142.809 298.421 144.861 301.047C146.913 303.673 150.705 304.139 153.332 302.087C154.613 301.086 155.38 299.67 155.591 298.178L164.884 297.06C165.081 297.867 165.448 298.646 165.993 299.343C168.044 301.969 171.837 302.434 174.463 300.383C177.089 298.331 177.555 294.538 175.503 291.912C173.682 289.581 170.49 288.952 167.959 290.275L161.149 281.558ZM165.722 292.284L158.658 283.243C157.988 283.482 157.289 283.597 156.593 283.592L153.28 292.535C153.68 292.841 154.047 293.202 154.372 293.617C154.756 294.108 155.052 294.641 155.262 295.196L164.927 294.033C165.095 293.418 165.361 292.826 165.722 292.284ZM152.008 295.464C153.039 296.784 152.805 298.691 151.485 299.723C150.164 300.755 148.257 300.521 147.225 299.2C146.193 297.879 146.428 295.972 147.748 294.941C149.069 293.909 150.976 294.143 152.008 295.464ZM172.616 298.019C173.937 296.987 174.171 295.08 173.139 293.759C172.107 292.438 170.2 292.204 168.88 293.236C167.559 294.268 167.325 296.175 168.357 297.496C169.388 298.816 171.295 299.05 172.616 298.019Z" fill="#F3A345"/>
<defs>
<filter id="filter0_d" x="76.4668" y="35.4882" width="355.859" height="333.306" filterUnits="userSpaceOnUse" color-interpolation-filters="sRGB">
<feFlood flood-opacity="0" result="BackgroundImageFix"/>
<feColorMatrix in="SourceAlpha" type="matrix" values="0 0 0 0 0 0 0 0 0 0 0 0 0 0 0 0 0 0 127 0"/>
<feOffset dx="4" dy="4"/>
<feGaussianBlur stdDeviation="8"/>
<feColorMatrix type="matrix" values="0 0 0 0 0.173927 0 0 0 0 0.0527778 0 0 0 0 0.333333 0 0 0 1 0"/>
<feBlend mode="normal" in2="BackgroundImageFix" result="effect1_dropShadow"/>
<feBlend mode="normal" in="SourceGraphic" in2="effect1_dropShadow" result="shape"/>
</filter>
<filter id="filter1_bdi" x="-11" y="21" width="316.204" height="260.6" filterUnits="userSpaceOnUse" color-interpolation-filters="sRGB">
<feFlood flood-opacity="0" result="BackgroundImageFix"/>
<feGaussianBlur in="BackgroundImage" stdDeviation="9.5"/>
<feComposite in2="SourceAlpha" operator="in" result="effect1_backgroundBlur"/>
<feColorMatrix in="SourceAlpha" type="matrix" values="0 0 0 0 0 0 0 0 0 0 0 0 0 0 0 0 0 0 127 0"/>
<feOffset/>
<feGaussianBlur stdDeviation="4"/>
<feColorMatrix type="matrix" values="0 0 0 0 1 0 0 0 0 0.7855 0 0 0 0 0.025 0 0 0 0.3 0"/>
<feBlend mode="normal" in2="effect1_backgroundBlur" result="effect2_dropShadow"/>
<feBlend mode="normal" in="SourceGraphic" in2="effect2_dropShadow" result="shape"/>
<feColorMatrix in="SourceAlpha" type="matrix" values="0 0 0 0 0 0 0 0 0 0 0 0 0 0 0 0 0 0 127 0" result="hardAlpha"/>
<feOffset dx="8" dy="8"/>
<feGaussianBlur stdDeviation="64"/>
<feComposite in2="hardAlpha" operator="arithmetic" k2="-1" k3="1"/>
<feColorMatrix type="matrix" values="0 0 0 0 1 0 0 0 0 1 0 0 0 0 1 0 0 0 0.25 0"/>
<feBlend mode="normal" in2="shape" result="effect3_innerShadow"/>
</filter>
<radialGradient id="paint0_radial" cx="0" cy="0" r="1" gradientUnits="userSpaceOnUse" gradientTransform="translate(373.817 152.382) rotate(163.026) scale(256.647 320.756)">
<stop stop-color="#F19A2D"/>
<stop offset="1" stop-color="#F3A64D"/>
</radialGradient>
<radialGradient id="paint1_radial" cx="0" cy="0" r="1" gradientUnits="userSpaceOnUse" gradientTransform="translate(51 47) rotate(43.9744) scale(276.523 345.597)">
<stop stop-color="#FFE5A4"/>
<stop offset="1" stop-color="#FDEFCA" stop-opacity="0"/>
</radialGradient>
</defs>
</svg>
