<svg width="433" height="366" viewBox="0 0 433 366" fill="none" xmlns="http://www.w3.org/2000/svg">
<path d="M59.9996 59.5C59.9996 59.5 50.6291 32.6652 88.5 22.2415C91.6601 21.3717 95.1491 20.6161 99 20M349 139C349 139 355.5 118 321.5 102M165 308C165 308 201.5 344.5 258 351C314.5 357.5 336.999 336 336.999 336" stroke="#B29D81" stroke-width="3" stroke-dasharray="8 8"/>
<g filter="url(#filter0_d)">
<path d="M280.082 301.203L274.518 323.368L252.737 294.562C208.137 264.545 146.955 258.892 127.094 223.252C107.233 187.611 131.202 125.701 169.803 92.4103C205.108 61.9621 254.818 102.395 284.035 108.428L284.742 108.573C314.245 114.662 375.685 127.342 383.16 173.517C390.695 220.064 363.736 262.7 337.465 287.733C318.232 306.058 280.082 301.203 280.082 301.203Z" fill="url(#paint0_radial)"/>
</g>
<g filter="url(#filter1_bdi)">
<path d="M66.7239 235.6L61.2234 259.6L96.2234 242.6C153.723 235.6 215.223 260.1 251.724 235.6C288.224 211.1 295.497 139.941 274.724 89.1C255.724 42.5999 188.224 57.1 157.225 48.6L156.475 48.3944C125.173 39.8082 59.9874 21.9277 30.2251 62.6C0.223124 103.6 5.24831 157.717 18.2247 194.6C27.724 221.6 66.7239 235.6 66.7239 235.6Z" fill="url(#paint1_radial)"/>
</g>
<path d="M74.8372 98.4763C74.4297 98.455 74.0894 98.299 73.8163 98.0083C73.5437 97.7056 73.4188 97.3385 73.4414 96.9071C73.4646 96.4637 73.6213 96.1115 73.9113 95.8503C74.2134 95.5897 74.5741 95.4704 74.9935 95.4924C75.413 95.5144 75.7533 95.6704 76.0145 95.9605C76.2876 96.2512 76.4126 96.6182 76.3893 97.0616C76.3667 97.493 76.2041 97.845 75.9014 98.1175C75.5994 98.3781 75.2446 98.4977 74.8372 98.4763ZM81.0232 98.8005C80.6158 98.7792 80.2755 98.6232 80.0023 98.3325C79.7298 98.0298 79.6048 97.6627 79.6274 97.2313C79.6507 96.7879 79.8073 96.4357 80.0974 96.1745C80.3994 95.9139 80.7602 95.7946 81.1796 95.8166C81.599 95.8386 81.9393 95.9946 82.2005 96.2847C82.4737 96.5754 82.5986 96.9424 82.5754 97.3858C82.5528 97.8172 82.3901 98.1692 82.0874 98.4417C81.7854 98.7023 81.4307 98.8219 81.0232 98.8005ZM87.2093 99.1247C86.8018 99.1034 86.4615 98.9474 86.1883 98.6567C85.9158 98.354 85.7909 97.9869 85.8135 97.5555C85.8367 97.1121 85.9934 96.7599 86.2834 96.4987C86.5855 96.2381 86.9462 96.1188 87.3656 96.1408C87.7851 96.1628 88.1254 96.3188 88.3865 96.6089C88.6597 96.8996 88.7847 97.2666 88.7614 97.71C88.7388 98.1414 88.5762 98.4934 88.2735 98.7659C87.9714 99.0265 87.6167 99.1461 87.2093 99.1247ZM97.194 87.8418C96.2473 87.7922 95.7469 88.2827 95.6929 89.3133L95.6628 89.8885L98.3051 90.027L98.2109 91.8245L95.6405 91.6898L95.2354 99.4192L92.9885 99.3014L93.3935 91.572L91.8117 91.4891L91.9059 89.6916L93.4877 89.7745L93.5198 89.1633C93.5738 88.1328 93.9158 87.3396 94.5457 86.7838C95.1763 86.216 96.0368 85.9607 97.1273 86.0178C97.9902 86.0631 98.6581 86.2723 99.1312 86.6456L98.4135 88.3023C98.0439 88.0185 97.6374 87.8651 97.194 87.8418ZM103.485 99.9777C102.515 99.9269 101.651 99.6713 100.894 99.211C100.137 98.7508 99.5563 98.1376 99.1518 97.3714C98.76 96.5938 98.5889 95.7316 98.6385 94.7849C98.6881 93.8382 98.9481 93.0047 99.4184 92.2843C99.9008 91.5646 100.542 91.0154 101.343 90.6368C102.144 90.2582 103.03 90.0943 104.001 90.1452C104.983 90.1967 105.853 90.4526 106.61 90.9128C107.367 91.3731 107.942 91.986 108.334 92.7516C108.739 93.5178 108.916 94.3743 108.866 95.321C108.817 96.2677 108.551 97.1069 108.068 97.8386C107.597 98.559 106.962 99.1085 106.161 99.4871C105.36 99.8657 104.468 100.029 103.485 99.9777ZM103.586 98.0544C104.413 98.0977 105.111 97.8579 105.679 97.3349C106.247 96.8119 106.554 96.101 106.602 95.2023C106.649 94.3035 106.417 93.5644 105.907 92.9849C105.396 92.4054 104.728 92.0939 103.901 92.0506C103.074 92.0073 102.376 92.2471 101.808 92.7701C101.252 93.2937 100.95 94.0049 100.903 94.9036C100.856 95.8024 101.082 96.5412 101.58 97.1201C102.091 97.6996 102.759 98.011 103.586 98.0544ZM113.332 92.1483C114.032 91.1756 115.197 90.732 116.827 90.8174L116.715 92.9565C116.525 92.9105 116.352 92.8834 116.196 92.8752C115.321 92.8294 114.625 93.0512 114.106 93.5408C113.589 94.0183 113.305 94.7364 113.254 95.6951L113.01 100.351L110.764 100.233L111.267 90.6342L113.406 90.7463L113.332 92.1483ZM128.236 87.7744L127.537 101.112L125.38 100.999L125.445 99.7587C125.05 100.195 124.571 100.512 124.007 100.711C123.456 100.91 122.851 100.993 122.192 100.958C121.269 100.91 120.447 100.662 119.726 100.216C119.016 99.7702 118.471 99.1649 118.09 98.3999C117.71 97.623 117.546 96.7492 117.597 95.7785C117.648 94.8078 117.902 93.962 118.361 93.241C118.819 92.52 119.424 91.9749 120.177 91.6058C120.941 91.2373 121.785 91.0772 122.707 91.1256C123.342 91.1589 123.918 91.2972 124.434 91.5405C124.95 91.7839 125.382 92.131 125.731 92.5818L125.989 87.6566L128.236 87.7744ZM122.562 99.0489C123.102 99.0771 123.593 98.9827 124.037 98.7657C124.482 98.5366 124.842 98.201 125.118 97.7588C125.393 97.3166 125.546 96.796 125.578 96.1968C125.609 95.5976 125.511 95.0637 125.283 94.5952C125.056 94.1266 124.732 93.7612 124.313 93.4989C123.895 93.2246 123.416 93.0734 122.877 93.0451C122.338 93.0168 121.846 93.1172 121.401 93.3463C120.957 93.5633 120.598 93.893 120.322 94.3352C120.047 94.7773 119.893 95.298 119.862 95.8972C119.83 96.4964 119.929 97.0303 120.156 97.4988C120.384 97.9674 120.707 98.3388 121.125 98.6131C121.544 98.8753 122.023 99.0206 122.562 99.0489ZM130.98 91.6673L133.227 91.785L132.724 101.384L130.477 101.266L130.98 91.6673ZM132.195 90.1448C131.788 90.1234 131.453 89.9797 131.19 89.7136C130.928 89.4355 130.808 89.1048 130.828 88.7213C130.848 88.3378 131.002 88.0275 131.291 87.7903C131.581 87.5411 131.929 87.4271 132.336 87.4485C132.744 87.4699 133.079 87.6136 133.341 87.8797C133.604 88.1338 133.726 88.4466 133.707 88.8181C133.686 89.2135 133.531 89.5419 133.24 89.803C132.963 90.0529 132.615 90.1668 132.195 90.1448ZM150.131 92.671L145.512 102.054L143.193 101.933L139.58 92.118L141.916 92.2404L144.527 99.5151L147.974 92.5579L150.131 92.671ZM151.536 92.7446L153.782 92.8623L153.279 102.461L151.032 102.343L151.536 92.7446ZM152.751 91.2221C152.343 91.2007 152.009 91.057 151.746 90.7909C151.484 90.5128 151.363 90.182 151.384 89.7986C151.404 89.4151 151.558 89.1048 151.847 88.8675C152.136 88.6183 152.485 88.5044 152.892 88.5258C153.3 88.5471 153.635 88.6909 153.897 88.957C154.16 89.2111 154.282 89.5239 154.262 89.8954C154.242 90.2908 154.086 90.6191 153.796 90.8803C153.519 91.1301 153.17 91.2441 152.751 91.2221ZM170.687 93.7482L166.068 103.131L163.749 103.01L160.135 93.1953L162.472 93.3177L165.083 100.592L168.53 93.6352L170.687 93.7482ZM172.091 93.8218L174.338 93.9396L173.835 103.538L171.588 103.421L172.091 93.8218ZM173.307 92.2994C172.899 92.278 172.564 92.1343 172.302 91.8682C172.04 91.5901 171.919 91.2593 171.939 90.8759C171.959 90.4924 172.114 90.182 172.403 89.9448C172.692 89.6956 173.041 89.5817 173.448 89.6031C173.855 89.6244 174.19 89.7681 174.453 90.0342C174.716 90.2884 174.838 90.6012 174.818 90.9727C174.797 91.3681 174.642 91.6964 174.352 91.9576C174.075 92.2074 173.726 92.3213 173.307 92.2994ZM177.483 90.3553L179.73 90.473L179.031 103.811L176.784 103.693L177.483 90.3553ZM197.048 91.3806L196.349 104.718L194.192 104.605L194.257 103.365C193.862 103.801 193.382 104.118 192.819 104.317C192.268 104.516 191.663 104.599 191.004 104.564C190.081 104.516 189.259 104.269 188.537 103.822C187.828 103.377 187.283 102.771 186.902 102.006C186.522 101.229 186.358 100.355 186.409 99.3848C186.46 98.4141 186.714 97.5683 187.173 96.8473C187.631 96.1263 188.236 95.5812 188.989 95.2121C189.753 94.8436 190.596 94.6835 191.519 94.7319C192.154 94.7652 192.73 94.9035 193.246 95.1468C193.762 95.3901 194.194 95.7372 194.543 96.1881L194.801 91.2629L197.048 91.3806ZM191.374 102.655C191.914 102.683 192.405 102.589 192.849 102.372C193.294 102.143 193.654 101.807 193.929 101.365C194.205 100.923 194.358 100.402 194.39 99.803C194.421 99.2039 194.323 98.67 194.095 98.2014C193.867 97.7329 193.544 97.3675 193.125 97.1052C192.707 96.8309 192.228 96.6796 191.689 96.6514C191.15 96.6231 190.658 96.7235 190.213 96.9526C189.769 97.1696 189.409 97.4992 189.134 97.9414C188.858 98.3836 188.705 98.9043 188.674 99.5035C188.642 100.103 188.74 100.637 188.968 101.105C189.196 101.574 189.519 101.945 189.937 102.219C190.356 102.482 190.835 102.627 191.374 102.655ZM208.561 100.6C208.553 100.756 208.529 100.977 208.49 101.263L200.958 100.868C201.053 101.582 201.365 102.163 201.894 102.612C202.436 103.049 203.121 103.289 203.948 103.332C205.002 103.387 205.889 103.085 206.609 102.426L207.74 103.873C207.282 104.366 206.716 104.727 206.043 104.956C205.371 105.185 204.621 105.278 203.794 105.235C202.739 105.179 201.821 104.921 201.041 104.46C200.26 103.998 199.667 103.384 199.262 102.618C198.871 101.84 198.7 100.978 198.749 100.032C198.798 99.0968 199.052 98.2689 199.51 97.5479C199.981 96.8156 200.605 96.2595 201.382 95.8796C202.159 95.4998 203.021 95.3346 203.968 95.3843C204.902 95.4332 205.724 95.6866 206.433 96.1443C207.155 96.5907 207.7 97.2021 208.067 97.9784C208.448 98.7433 208.612 99.6171 208.561 100.6ZM203.873 97.1818C203.154 97.1441 202.532 97.3278 202.006 97.7328C201.493 98.1265 201.164 98.674 201.019 99.3754L206.465 99.6608C206.406 98.9608 206.142 98.3821 205.673 97.925C205.204 97.4678 204.604 97.2201 203.873 97.1818ZM211.169 92.1207L213.416 92.2385L212.717 105.576L210.47 105.458L211.169 92.1207ZM224.939 101.458C224.931 101.614 224.907 101.835 224.868 102.121L217.336 101.727C217.431 102.441 217.743 103.022 218.272 103.47C218.814 103.907 219.499 104.147 220.325 104.19C221.38 104.246 222.267 103.944 222.987 103.284L224.118 104.732C223.66 105.224 223.094 105.585 222.421 105.814C221.748 106.043 220.999 106.136 220.172 106.093C219.117 106.038 218.199 105.779 217.418 105.318C216.638 104.856 216.045 104.242 215.64 103.476C215.249 102.699 215.077 101.837 215.127 100.89C215.176 99.9551 215.43 99.1273 215.888 98.4063C216.359 97.6739 216.983 97.1178 217.76 96.738C218.537 96.3581 219.399 96.193 220.345 96.2426C221.28 96.2916 222.102 96.5449 222.811 97.0027C223.533 97.449 224.077 98.0604 224.445 98.8367C224.826 99.6017 224.99 100.475 224.939 101.458ZM220.251 98.0401C219.532 98.0024 218.91 98.1861 218.384 98.5911C217.871 98.9848 217.541 99.5323 217.397 100.234L222.843 100.519C222.784 99.8191 222.52 99.2405 222.051 98.7833C221.582 98.3262 220.982 98.0784 220.251 98.0401ZM43.0803 130.21C42.8054 130.412 42.4733 130.557 42.0842 130.644C41.707 130.733 41.3088 130.766 40.8893 130.744C39.8348 130.689 39.0344 130.37 38.488 129.789C37.9417 129.207 37.6962 128.39 37.7514 127.335L37.9936 122.715L36.4117 122.632L36.5059 120.835L38.0878 120.918L38.2027 118.725L40.4496 118.843L40.3347 121.036L42.9051 121.17L42.8109 122.968L40.2405 122.833L40.0012 127.399C39.9767 127.866 40.0717 128.232 40.2862 128.495C40.5013 128.747 40.8246 128.884 41.256 128.907C41.7593 128.933 42.1856 128.823 42.535 128.577L43.0803 130.21ZM53.8577 126.539C53.8495 126.695 53.8259 126.916 53.7869 127.202L46.2552 126.807C46.35 127.521 46.662 128.102 47.1913 128.551C47.7331 128.988 48.4175 129.228 49.2444 129.271C50.2989 129.326 51.1859 129.024 51.9054 128.365L53.0372 129.812C52.5788 130.305 52.0132 130.666 51.3403 130.895C50.6673 131.124 49.9175 131.217 49.0906 131.174C48.036 131.118 47.1183 130.86 46.3374 130.399C45.5565 129.937 44.9638 129.323 44.5593 128.557C44.1675 127.779 43.9964 126.917 44.046 125.971C44.095 125.036 44.3486 124.208 44.807 123.487C45.278 122.755 45.9019 122.198 46.6789 121.819C47.4558 121.439 48.3177 121.274 49.2644 121.323C50.1991 121.372 51.0209 121.626 51.73 122.083C52.4516 122.53 52.9963 123.141 53.3642 123.917C53.7447 124.682 53.9092 125.556 53.8577 126.539ZM49.1702 123.121C48.4511 123.083 47.8287 123.267 47.3028 123.672C46.7894 124.065 46.4603 124.613 46.3154 125.314L51.762 125.6C51.7025 124.9 51.4384 124.321 50.9697 123.864C50.501 123.407 49.9011 123.159 49.1702 123.121ZM59.9016 127.486L58.147 128.981L58.0142 131.515L55.7673 131.397L56.4663 118.06L58.7132 118.177L58.2912 126.23L63.1729 122.16L65.8692 122.302L61.6497 126.118L65.7436 131.92L63.0114 131.777L59.9016 127.486ZM73.0624 122.57C74.2728 122.634 75.2249 123.038 75.9189 123.784C76.6128 124.529 76.9233 125.597 76.8505 126.987L76.5622 132.487L74.3153 132.369L74.5885 127.157C74.6325 126.318 74.4677 125.678 74.0942 125.238C73.7214 124.786 73.1695 124.541 72.4385 124.502C71.6116 124.459 70.9453 124.677 70.4396 125.155C69.9345 125.621 69.6575 126.321 69.6085 127.256L69.3541 132.109L67.1072 131.992L67.6103 122.393L69.7493 122.505L69.6843 123.745C70.079 123.321 70.564 123.01 71.1391 122.812C71.7143 122.614 72.3554 122.533 73.0624 122.57ZM83.8078 132.993C82.8372 132.942 81.9734 132.687 81.2164 132.226C80.4595 131.766 79.8788 131.153 79.4743 130.387C79.0825 129.609 78.9113 128.747 78.961 127.8C79.0106 126.854 79.2706 126.02 79.7409 125.3C80.2232 124.58 80.8649 124.031 81.6658 123.652C82.4667 123.274 83.3525 123.11 84.3231 123.161C85.3058 123.212 86.1756 123.468 86.9325 123.928C87.6895 124.388 88.2642 125.001 88.6567 125.767C89.0611 126.533 89.2385 127.39 89.1889 128.336C89.1393 129.283 88.873 130.122 88.3901 130.854C87.9197 131.574 87.2841 132.124 86.4832 132.502C85.6823 132.881 84.7905 133.045 83.8078 132.993ZM83.9086 131.07C84.7355 131.113 85.433 130.873 86.0012 130.35C86.5693 129.827 86.8769 129.116 86.924 128.218C86.9711 127.319 86.7395 126.58 86.2291 126C85.7188 125.421 85.0501 125.109 84.2233 125.066C83.3964 125.023 82.6989 125.262 82.1308 125.785C81.5746 126.309 81.273 127.02 81.2259 127.919C81.1788 128.818 81.4044 129.557 81.9028 130.136C82.4132 130.715 83.0818 131.026 83.9086 131.07ZM91.785 119.911L94.0319 120.028L93.3329 133.366L91.086 133.248L91.785 119.911ZM100.589 133.873C99.6188 133.822 98.755 133.566 97.9981 133.106C97.2411 132.646 96.6604 132.032 96.256 131.266C95.8641 130.489 95.693 129.627 95.7426 128.68C95.7922 127.733 96.0522 126.9 96.5226 126.179C97.0049 125.459 97.6465 124.91 98.4474 124.532C99.2483 124.153 100.134 123.989 101.105 124.04C102.087 124.092 102.957 124.347 103.714 124.808C104.471 125.268 105.046 125.881 105.438 126.646C105.843 127.413 106.02 128.269 105.971 129.216C105.921 130.163 105.655 131.002 105.172 131.734C104.701 132.454 104.066 133.003 103.265 133.382C102.464 133.761 101.572 133.924 100.589 133.873ZM100.69 131.949C101.517 131.993 102.215 131.753 102.783 131.23C103.351 130.707 103.659 129.996 103.706 129.097C103.753 128.198 103.521 127.459 103.011 126.88C102.5 126.3 101.832 125.989 101.005 125.945C100.178 125.902 99.4806 126.142 98.9124 126.665C98.3562 127.189 98.0546 127.9 98.0075 128.799C97.9604 129.697 98.1861 130.436 98.6844 131.015C99.1948 131.595 99.8634 131.906 100.69 131.949ZM117.898 125.028L117.471 133.171C117.294 136.551 115.48 138.15 112.028 137.969C111.106 137.921 110.237 137.755 109.423 137.472C108.608 137.201 107.942 136.829 107.426 136.358L108.522 134.721C108.923 135.09 109.436 135.394 110.06 135.631C110.696 135.88 111.343 136.022 112.002 136.057C113.057 136.112 113.842 135.913 114.359 135.459C114.875 135.006 115.159 134.288 115.211 133.305L115.237 132.802C114.832 133.201 114.348 133.494 113.785 133.681C113.223 133.868 112.612 133.944 111.953 133.909C111.042 133.862 110.225 133.627 109.502 133.204C108.792 132.77 108.24 132.189 107.845 131.459C107.463 130.73 107.296 129.91 107.343 128.999C107.391 128.089 107.643 127.297 108.099 126.624C108.567 125.939 109.177 125.424 109.928 125.079C110.691 124.735 111.528 124.586 112.439 124.634C113.134 124.671 113.757 124.817 114.308 125.075C114.872 125.332 115.333 125.705 115.692 126.192L115.759 124.916L117.898 125.028ZM112.394 132.022C113.245 132.066 113.953 131.851 114.519 131.376C115.097 130.89 115.408 130.239 115.45 129.424C115.492 128.621 115.251 127.954 114.726 127.422C114.213 126.89 113.531 126.602 112.68 126.557C111.818 126.512 111.097 126.727 110.52 127.201C109.954 127.676 109.65 128.315 109.608 129.118C109.566 129.933 109.8 130.612 110.313 131.156C110.837 131.688 111.531 131.977 112.394 132.022ZM120.852 125.183L123.099 125.301L122.596 134.9L120.349 134.782L120.852 125.183ZM122.067 123.661C121.66 123.639 121.325 123.496 121.062 123.229C120.8 122.951 120.68 122.621 120.7 122.237C120.72 121.854 120.874 121.543 121.163 121.306C121.452 121.057 121.801 120.943 122.208 120.964C122.616 120.986 122.951 121.129 123.213 121.396C123.476 121.65 123.598 121.962 123.578 122.334C123.558 122.729 123.402 123.058 123.112 123.319C122.835 123.569 122.486 123.683 122.067 123.661ZM134.817 130.782C134.809 130.937 134.785 131.159 134.746 131.445L127.214 131.05C127.309 131.764 127.621 132.345 128.15 132.794C128.692 133.231 129.377 133.471 130.204 133.514C131.258 133.569 132.145 133.267 132.865 132.608L133.996 134.055C133.538 134.548 132.972 134.909 132.299 135.138C131.627 135.367 130.877 135.46 130.05 135.417C128.995 135.361 128.078 135.103 127.297 134.641C126.516 134.18 125.923 133.566 125.519 132.8C125.127 132.022 124.956 131.16 125.005 130.213C125.054 129.279 125.308 128.451 125.766 127.73C126.237 126.997 126.861 126.441 127.638 126.062C128.415 125.682 129.277 125.517 130.224 125.566C131.158 125.615 131.98 125.869 132.689 126.326C133.411 126.773 133.956 127.384 134.323 128.16C134.704 128.925 134.868 129.799 134.817 130.782ZM130.129 127.364C129.41 127.326 128.788 127.51 128.262 127.915C127.749 128.308 127.42 128.856 127.275 129.557L132.721 129.843C132.662 129.143 132.398 128.564 131.929 128.107C131.46 127.65 130.86 127.402 130.129 127.364ZM142.682 126.219C143.892 126.282 144.844 126.687 145.538 127.432C146.232 128.178 146.543 129.245 146.47 130.635L146.182 136.136L143.935 136.018L144.208 130.805C144.252 129.966 144.087 129.327 143.714 128.887C143.341 128.435 142.789 128.189 142.058 128.151C141.231 128.108 140.565 128.325 140.059 128.803C139.554 129.27 139.277 129.97 139.228 130.905L138.973 135.758L136.727 135.64L137.23 126.041L139.369 126.154L139.304 127.394C139.698 126.97 140.183 126.659 140.758 126.461C141.334 126.263 141.975 126.182 142.682 126.219ZM158.392 132.017C158.384 132.173 158.36 132.394 158.321 132.68L150.79 132.286C150.884 133 151.196 133.581 151.726 134.029C152.267 134.466 152.952 134.706 153.779 134.75C154.833 134.805 155.72 134.503 156.44 133.844L157.572 135.291C157.113 135.783 156.547 136.144 155.875 136.373C155.202 136.603 154.452 136.695 153.625 136.652C152.57 136.597 151.653 136.338 150.872 135.877C150.091 135.415 149.498 134.802 149.094 134.035C148.702 133.258 148.531 132.396 148.58 131.449C148.629 130.514 148.883 129.686 149.341 128.965C149.812 128.233 150.436 127.677 151.213 127.297C151.99 126.917 152.852 126.752 153.799 126.802C154.733 126.851 155.555 127.104 156.264 127.562C156.986 128.008 157.531 128.619 157.898 129.396C158.279 130.161 158.443 131.035 158.392 132.017ZM153.704 128.599C152.985 128.562 152.363 128.745 151.837 129.15C151.324 129.544 150.995 130.091 150.85 130.793L156.296 131.078C156.237 130.378 155.973 129.8 155.504 129.342C155.035 128.885 154.435 128.638 153.704 128.599ZM174.76 128.008L170.141 137.391L167.822 137.27L164.209 127.455L166.545 127.578L169.156 134.852L172.603 127.895L174.76 128.008ZM176.164 128.082L178.411 128.2L177.908 137.799L175.661 137.681L176.164 128.082ZM177.38 126.559C176.972 126.538 176.637 126.394 176.375 126.128C176.113 125.85 175.992 125.519 176.012 125.136C176.032 124.752 176.187 124.442 176.476 124.205C176.765 123.956 177.114 123.842 177.521 123.863C177.929 123.885 178.263 124.028 178.526 124.294C178.789 124.548 178.911 124.861 178.891 125.233C178.871 125.628 178.715 125.957 178.425 126.218C178.148 126.468 177.799 126.581 177.38 126.559ZM191.655 128.786C192.589 128.835 193.411 129.082 194.121 129.528C194.843 129.974 195.394 130.58 195.774 131.345C196.155 132.11 196.32 132.978 196.269 133.948C196.218 134.919 195.963 135.771 195.504 136.504C195.046 137.225 194.434 137.769 193.67 138.138C192.917 138.507 192.074 138.667 191.139 138.618C190.48 138.584 189.881 138.438 189.342 138.181C188.814 137.926 188.377 137.56 188.029 137.085L187.964 138.326L185.825 138.213L186.524 124.876L188.771 124.994L188.514 129.901C188.919 129.501 189.385 129.207 189.912 129.019C190.451 128.831 191.031 128.753 191.655 128.786ZM190.988 136.682C191.815 136.725 192.507 136.485 193.063 135.961C193.631 135.438 193.939 134.727 193.986 133.829C194.033 132.93 193.801 132.191 193.291 131.611C192.793 131.032 192.13 130.721 191.303 130.678C190.764 130.65 190.272 130.75 189.827 130.979C189.383 131.196 189.024 131.526 188.748 131.968C188.472 132.41 188.319 132.931 188.288 133.53C188.256 134.129 188.354 134.663 188.582 135.132C188.81 135.6 189.133 135.972 189.551 136.246C189.97 136.508 190.449 136.653 190.988 136.682ZM200.717 130.775C201.417 129.802 202.581 129.358 204.211 129.444L204.099 131.583C203.909 131.537 203.736 131.51 203.581 131.502C202.706 131.456 202.009 131.678 201.491 132.167C200.973 132.645 200.689 133.363 200.639 134.321L200.395 138.977L198.148 138.859L198.651 129.26L200.79 129.373L200.717 130.775ZM214.793 134.973C214.785 135.129 214.761 135.35 214.722 135.636L207.191 135.242C207.285 135.956 207.597 136.537 208.127 136.985C208.669 137.422 209.353 137.662 210.18 137.705C211.234 137.761 212.121 137.459 212.841 136.799L213.973 138.247C213.514 138.739 212.949 139.1 212.276 139.329C211.603 139.558 210.853 139.651 210.026 139.608C208.971 139.553 208.054 139.294 207.273 138.833C206.492 138.371 205.899 137.757 205.495 136.991C205.103 136.214 204.932 135.351 204.981 134.405C205.03 133.47 205.284 132.642 205.742 131.921C206.213 131.189 206.837 130.633 207.614 130.253C208.391 129.873 209.253 129.708 210.2 129.758C211.134 129.807 211.956 130.06 212.665 130.518C213.387 130.964 213.932 131.575 214.3 132.352C214.68 133.117 214.845 133.99 214.793 134.973ZM210.106 131.555C209.387 131.517 208.764 131.701 208.238 132.106C207.725 132.5 207.396 133.047 207.251 133.749L212.697 134.034C212.638 133.334 212.374 132.755 211.905 132.298C211.436 131.841 210.837 131.593 210.106 131.555ZM222.658 130.41C223.868 130.474 224.82 130.878 225.514 131.624C226.208 132.369 226.519 133.437 226.446 134.827L226.158 140.327L223.911 140.209L224.184 134.997C224.228 134.158 224.063 133.518 223.69 133.078C223.317 132.626 222.765 132.381 222.034 132.342C221.207 132.299 220.541 132.517 220.035 132.995C219.53 133.461 219.253 134.161 219.204 135.096L218.95 139.949L216.703 139.832L217.206 130.233L219.345 130.345L219.28 131.585C219.675 131.161 220.159 130.85 220.735 130.652C221.31 130.454 221.951 130.373 222.658 130.41ZM234.963 131.055C236.174 131.119 237.126 131.523 237.82 132.268C238.514 133.014 238.824 134.082 238.751 135.472L238.463 140.972L236.216 140.854L236.489 135.641C236.533 134.803 236.369 134.163 235.995 133.723C235.622 133.271 235.07 133.026 234.339 132.987C233.512 132.944 232.846 133.161 232.34 133.64C231.835 134.106 231.558 134.806 231.509 135.741L231.255 140.594L229.008 140.477L229.511 130.878L231.65 130.99L231.585 132.23C231.98 131.806 232.465 131.495 233.04 131.297C233.615 131.099 234.256 131.018 234.963 131.055ZM250.674 136.853C250.665 137.009 250.642 137.23 250.603 137.517L243.071 137.122C243.166 137.836 243.478 138.417 244.007 138.865C244.549 139.302 245.233 139.542 246.06 139.586C247.115 139.641 248.002 139.339 248.721 138.68L249.853 140.127C249.395 140.62 248.829 140.981 248.156 141.21C247.483 141.439 246.733 141.532 245.906 141.488C244.852 141.433 243.934 141.175 243.153 140.713C242.372 140.252 241.78 139.638 241.375 138.872C240.983 138.094 240.812 137.232 240.862 136.285C240.911 135.35 241.164 134.523 241.623 133.802C242.094 133.069 242.718 132.513 243.495 132.133C244.272 131.753 245.133 131.588 246.08 131.638C247.015 131.687 247.837 131.94 248.546 132.398C249.267 132.844 249.812 133.456 250.18 134.232C250.561 134.997 250.725 135.871 250.674 136.853ZM245.986 133.435C245.267 133.398 244.645 133.581 244.119 133.987C243.605 134.38 243.276 134.928 243.131 135.629L248.578 135.915C248.518 135.214 248.254 134.636 247.786 134.179C247.317 133.722 246.717 133.474 245.986 133.435ZM255.152 133.627C255.852 132.655 257.016 132.211 258.646 132.297L258.534 134.436C258.344 134.39 258.171 134.362 258.016 134.354C257.141 134.308 256.444 134.53 255.926 135.02C255.408 135.497 255.124 136.216 255.074 137.174L254.83 141.83L252.583 141.712L253.086 132.113L255.225 132.225L255.152 133.627ZM61.9308 154.087C60.9841 154.037 60.4837 154.528 60.4297 155.559L60.3996 156.134L63.0419 156.272L62.9477 158.07L60.3773 157.935L59.9722 165.664L57.7253 165.547L58.1303 157.817L56.5485 157.734L56.6427 155.937L58.2246 156.02L58.2566 155.409C58.3106 154.378 58.6526 153.585 59.2825 153.029C59.9131 152.461 60.7736 152.206 61.8641 152.263C62.727 152.308 63.3949 152.518 63.868 152.891L63.1504 154.548C62.7807 154.264 62.3742 154.11 61.9308 154.087ZM68.2222 166.223C67.2515 166.172 66.3877 165.917 65.6307 165.456C64.8738 164.996 64.2931 164.383 63.8886 163.617C63.4968 162.839 63.3257 161.977 63.3753 161.03C63.4249 160.083 63.6849 159.25 64.1552 158.53C64.6376 157.81 65.2792 157.261 66.0801 156.882C66.881 156.503 67.7668 156.34 68.7375 156.39C69.7201 156.442 70.5899 156.698 71.3469 157.158C72.1038 157.618 72.6785 158.231 73.071 158.997C73.4754 159.763 73.6529 160.62 73.6033 161.566C73.5536 162.513 73.2874 163.352 72.8044 164.084C72.3341 164.804 71.6984 165.354 70.8975 165.732C70.0966 166.111 69.2048 166.274 68.2222 166.223ZM68.323 164.3C69.1498 164.343 69.8473 164.103 70.4155 163.58C70.9836 163.057 71.2913 162.346 71.3384 161.448C71.3855 160.549 71.1538 159.81 70.6435 159.23C70.1331 158.651 69.4645 158.339 68.6376 158.296C67.8107 158.253 67.1132 158.492 66.5451 159.015C65.9889 159.539 65.6873 160.25 65.6402 161.149C65.5931 162.048 65.8187 162.786 66.3171 163.365C66.8275 163.945 67.4961 164.256 68.323 164.3ZM78.069 158.394C78.7688 157.421 79.9337 156.977 81.5634 157.063L81.4513 159.202C81.2615 159.156 81.0886 159.129 80.9329 159.12C80.0581 159.075 79.3615 159.296 78.8432 159.786C78.3255 160.264 78.0415 160.982 77.9912 161.94L77.7473 166.596L75.5003 166.478L76.0034 156.879L78.1425 156.992L78.069 158.394ZM100.64 158.062C101.851 158.126 102.791 158.53 103.461 159.274C104.132 160.006 104.43 161.073 104.357 162.475L104.068 167.975L101.821 167.858L102.095 162.645C102.139 161.806 101.986 161.167 101.636 160.728C101.287 160.277 100.765 160.034 100.07 159.997C99.3154 159.958 98.6971 160.178 98.2153 160.657C97.7342 161.125 97.4695 161.82 97.4211 162.742L97.1658 167.614L94.9189 167.496L95.1921 162.283C95.2361 161.444 95.0833 160.805 94.7338 160.366C94.3849 159.916 93.8629 159.672 93.1679 159.636C92.4009 159.595 91.7769 159.809 91.2958 160.276C90.8266 160.744 90.5676 161.446 90.5186 162.381L90.2633 167.252L88.0164 167.134L88.5194 157.535L90.6585 157.647L90.5944 158.87C90.9765 158.457 91.4432 158.151 91.9944 157.952C92.5456 157.752 93.1507 157.67 93.8098 157.704C94.5288 157.742 95.1567 157.913 95.6935 158.218C96.243 158.511 96.6656 158.93 96.9615 159.474C97.3834 158.991 97.9131 158.628 98.5507 158.386C99.1889 158.131 99.8855 158.023 100.64 158.062ZM116.3 163.858C116.292 164.014 116.268 164.235 116.229 164.521L108.697 164.126C108.792 164.84 109.104 165.421 109.633 165.87C110.175 166.307 110.86 166.547 111.686 166.59C112.741 166.645 113.628 166.343 114.347 165.684L115.479 167.131C115.021 167.624 114.455 167.985 113.782 168.214C113.109 168.443 112.359 168.536 111.533 168.493C110.478 168.438 109.56 168.179 108.779 167.718C107.998 167.256 107.406 166.642 107.001 165.876C106.61 165.098 106.438 164.236 106.488 163.29C106.537 162.355 106.791 161.527 107.249 160.806C107.72 160.074 108.344 159.518 109.121 159.138C109.898 158.758 110.76 158.593 111.706 158.642C112.641 158.691 113.463 158.945 114.172 159.402C114.894 159.849 115.438 160.46 115.806 161.237C116.187 162.001 116.351 162.875 116.3 163.858ZM111.612 160.44C110.893 160.402 110.271 160.586 109.745 160.991C109.231 161.385 108.902 161.932 108.757 162.634L114.204 162.919C114.145 162.219 113.88 161.64 113.412 161.183C112.943 160.726 112.343 160.478 111.612 160.44ZM128.309 155.872L127.61 169.209L125.453 169.096L125.518 167.856C125.123 168.292 124.644 168.609 124.081 168.808C123.529 169.007 122.924 169.09 122.265 169.055C121.342 169.007 120.52 168.76 119.799 168.313C119.089 167.867 118.544 167.262 118.163 166.497C117.784 165.72 117.619 164.846 117.67 163.876C117.721 162.905 117.975 162.059 118.434 161.338C118.892 160.617 119.497 160.072 120.25 159.703C121.014 159.334 121.858 159.174 122.78 159.223C123.416 159.256 123.991 159.394 124.507 159.638C125.023 159.881 125.455 160.228 125.804 160.679L126.062 155.754L128.309 155.872ZM122.636 167.146C123.175 167.174 123.666 167.08 124.11 166.863C124.555 166.634 124.915 166.298 125.191 165.856C125.466 165.414 125.62 164.893 125.651 164.294C125.682 163.695 125.584 163.161 125.356 162.692C125.129 162.224 124.805 161.858 124.386 161.596C123.968 161.322 123.489 161.171 122.95 161.142C122.411 161.114 121.919 161.214 121.474 161.443C121.03 161.66 120.671 161.99 120.395 162.432C120.12 162.874 119.966 163.395 119.935 163.994C119.903 164.594 120.002 165.127 120.229 165.596C120.457 166.065 120.78 166.436 121.198 166.71C121.617 166.972 122.096 167.118 122.636 167.146ZM139.693 160.109C141.107 160.183 142.168 160.581 142.875 161.303C143.595 162.014 143.919 163.052 143.847 164.418L143.553 170.045L141.431 169.934L141.493 168.765C141.195 169.17 140.783 169.473 140.255 169.674C139.741 169.863 139.124 169.939 138.405 169.901C137.686 169.863 137.063 169.711 136.536 169.443C136.01 169.163 135.609 168.799 135.332 168.352C135.068 167.894 134.95 167.389 134.979 166.838C135.024 165.975 135.378 165.302 136.04 164.82C136.714 164.327 137.741 164.116 139.119 164.189L141.6 164.319L141.607 164.175C141.642 163.504 141.466 162.978 141.077 162.597C140.7 162.217 140.117 162.006 139.326 161.964C138.786 161.936 138.249 161.992 137.713 162.132C137.189 162.273 136.739 162.484 136.364 162.764L135.569 161.083C136.092 160.725 136.713 160.464 137.43 160.297C138.148 160.13 138.902 160.068 139.693 160.109ZM138.958 168.29C139.521 168.319 140.025 168.22 140.47 167.991C140.927 167.75 141.258 167.395 141.463 166.925L141.521 165.811L139.203 165.689C137.908 165.621 137.239 166.013 137.194 166.864C137.173 167.271 137.318 167.603 137.629 167.86C137.94 168.116 138.383 168.26 138.958 168.29ZM147.135 156.858L149.382 156.976L148.683 170.314L146.436 170.196L147.135 156.858ZM152.331 157.13L154.578 157.248L153.879 170.586L151.632 170.468L152.331 157.13ZM166.101 166.468C166.092 166.624 166.069 166.845 166.03 167.131L158.498 166.736C158.593 167.45 158.905 168.031 159.434 168.48C159.976 168.917 160.66 169.157 161.487 169.2C162.542 169.255 163.429 168.953 164.148 168.294L165.28 169.741C164.822 170.234 164.256 170.595 163.583 170.824C162.91 171.053 162.16 171.146 161.333 171.103C160.279 171.047 159.361 170.789 158.58 170.328C157.799 169.866 157.207 169.252 156.802 168.486C156.41 167.708 156.239 166.846 156.289 165.9C156.338 164.965 156.591 164.137 157.05 163.416C157.521 162.684 158.145 162.128 158.922 161.748C159.699 161.368 160.56 161.203 161.507 161.252C162.442 161.301 163.264 161.555 163.973 162.012C164.694 162.459 165.239 163.07 165.607 163.846C165.988 164.611 166.152 165.485 166.101 166.468ZM161.413 163.05C160.694 163.012 160.071 163.196 159.546 163.601C159.032 163.995 158.703 164.542 158.558 165.243L164.005 165.529C163.945 164.829 163.681 164.25 163.213 163.793C162.744 163.336 162.144 163.088 161.413 163.05ZM175.937 171.868C175.158 171.827 174.403 171.686 173.67 171.443C172.938 171.2 172.358 170.911 171.931 170.577L172.884 168.914C173.3 169.224 173.803 169.485 174.393 169.696C174.995 169.896 175.59 170.011 176.177 170.042C177.519 170.112 178.209 169.794 178.246 169.087C178.264 168.752 178.102 168.509 177.761 168.359C177.433 168.209 176.894 168.055 176.145 167.896C175.361 167.734 174.721 167.563 174.226 167.38C173.743 167.199 173.325 166.907 172.974 166.504C172.635 166.089 172.484 165.535 172.52 164.84C172.568 163.929 172.984 163.224 173.767 162.724C174.563 162.213 175.608 161.991 176.902 162.059C177.561 162.094 178.216 162.206 178.867 162.396C179.519 162.575 180.047 162.801 180.454 163.074L179.501 164.737C178.712 164.215 177.807 163.927 176.789 163.874C176.13 163.839 175.621 163.915 175.263 164.1C174.917 164.274 174.736 164.523 174.719 164.847C174.7 165.206 174.866 165.473 175.218 165.648C175.582 165.811 176.144 165.979 176.904 166.151C177.664 166.311 178.286 166.482 178.77 166.663C179.253 166.845 179.658 167.13 179.986 167.52C180.326 167.91 180.479 168.447 180.443 169.13C180.396 170.029 179.968 170.728 179.161 171.226C178.354 171.724 177.279 171.938 175.937 171.868ZM186.536 172.424C185.566 172.373 184.702 172.117 183.945 171.657C183.188 171.197 182.607 170.583 182.203 169.817C181.811 169.04 181.64 168.177 181.689 167.231C181.739 166.284 181.999 165.451 182.469 164.73C182.952 164.01 183.593 163.461 184.394 163.083C185.195 162.704 186.081 162.54 187.052 162.591C188.034 162.643 188.904 162.898 189.661 163.359C190.418 163.819 190.993 164.432 191.385 165.197C191.79 165.964 191.967 166.82 191.917 167.767C191.868 168.714 191.602 169.553 191.119 170.284C190.648 171.005 190.013 171.554 189.212 171.933C188.411 172.312 187.519 172.475 186.536 172.424ZM186.637 170.5C187.464 170.544 188.162 170.304 188.73 169.781C189.298 169.258 189.605 168.547 189.653 167.648C189.7 166.749 189.468 166.01 188.958 165.431C188.447 164.851 187.779 164.54 186.952 164.496C186.125 164.453 185.427 164.693 184.859 165.216C184.303 165.74 184.001 166.451 183.954 167.349C183.907 168.248 184.133 168.987 184.631 169.566C185.142 170.145 185.81 170.457 186.637 170.5ZM206.439 163.607C207.649 163.671 208.589 164.074 209.259 164.818C209.93 165.55 210.228 166.618 210.155 168.02L209.867 173.52L207.62 173.402L207.893 168.189C207.937 167.351 207.784 166.712 207.434 166.273C207.086 165.822 206.564 165.578 205.869 165.542C205.114 165.502 204.495 165.722 204.014 166.202C203.532 166.669 203.268 167.364 203.219 168.287L202.964 173.158L200.717 173.041L200.99 167.828C201.034 166.989 200.881 166.35 200.532 165.911C200.183 165.46 199.661 165.217 198.966 165.18C198.199 165.14 197.575 165.354 197.094 165.821C196.625 166.289 196.366 166.991 196.317 167.925L196.061 172.797L193.815 172.679L194.318 163.08L196.457 163.192L196.393 164.414C196.775 164.002 197.241 163.696 197.793 163.496C198.344 163.297 198.949 163.215 199.608 163.249C200.327 163.287 200.955 163.458 201.492 163.762C202.041 164.056 202.464 164.474 202.76 165.018C203.182 164.536 203.711 164.173 204.349 163.93C204.987 163.675 205.684 163.568 206.439 163.607ZM226.978 169.658C226.97 169.814 226.946 170.035 226.907 170.322L219.375 169.927C219.47 170.641 219.782 171.222 220.311 171.67C220.853 172.107 221.538 172.347 222.365 172.391C223.419 172.446 224.306 172.144 225.026 171.485L226.157 172.932C225.699 173.425 225.133 173.785 224.46 174.015C223.788 174.244 223.038 174.337 222.211 174.293C221.156 174.238 220.239 173.98 219.458 173.518C218.677 173.057 218.084 172.443 217.68 171.676C217.288 170.899 217.117 170.037 217.166 169.09C217.215 168.155 217.469 167.327 217.927 166.606C218.398 165.874 219.022 165.318 219.799 164.938C220.576 164.558 221.438 164.393 222.385 164.443C223.319 164.492 224.141 164.745 224.85 165.203C225.572 165.649 226.117 166.261 226.484 167.037C226.865 167.802 227.029 168.676 226.978 169.658ZM222.29 166.24C221.571 166.203 220.949 166.386 220.423 166.791C219.91 167.185 219.581 167.733 219.436 168.434L224.882 168.719C224.823 168.019 224.559 167.441 224.09 166.984C223.621 166.526 223.021 166.279 222.29 166.24ZM231.456 166.432C232.156 165.46 233.321 165.016 234.951 165.101L234.838 167.24C234.649 167.194 234.476 167.167 234.32 167.159C233.445 167.113 232.749 167.335 232.23 167.825C231.713 168.302 231.429 169.02 231.378 169.979L231.134 174.635L228.888 174.517L229.391 164.918L231.53 165.03L231.456 166.432ZM95.8242 191.965L98.0711 192.083L97.5681 201.681L95.3212 201.564L95.8242 191.965ZM97.0396 190.442C96.6321 190.421 96.2972 190.277 96.0347 190.011C95.7729 189.733 95.6521 189.402 95.6722 189.019C95.6923 188.635 95.8467 188.325 96.1355 188.088C96.425 187.839 96.7734 187.725 97.1809 187.746C97.5883 187.767 97.9232 187.911 98.1857 188.177C98.4487 188.431 98.5705 188.744 98.5511 189.116C98.5303 189.511 98.3749 189.839 98.0849 190.101C97.8074 190.35 97.459 190.464 97.0396 190.442ZM106.472 192.415C107.683 192.478 108.635 192.883 109.329 193.628C110.023 194.373 110.333 195.441 110.26 196.831L109.972 202.331L107.725 202.214L107.998 197.001C108.042 196.162 107.878 195.523 107.504 195.082C107.131 194.63 106.579 194.385 105.848 194.347C105.022 194.303 104.355 194.521 103.85 194.999C103.344 195.465 103.067 196.166 103.018 197.1L102.764 201.954L100.517 201.836L101.02 192.237L103.159 192.349L103.094 193.59C103.489 193.166 103.974 192.855 104.549 192.656C105.124 192.458 105.765 192.378 106.472 192.415ZM118.62 202.262C118.345 202.464 118.013 202.609 117.624 202.696C117.247 202.785 116.848 202.818 116.429 202.796C115.374 202.741 114.574 202.422 114.028 201.841C113.481 201.26 113.236 200.442 113.291 199.387L113.533 194.767L111.951 194.685L112.046 192.887L113.627 192.97L113.742 190.777L115.989 190.895L115.874 193.088L118.445 193.222L118.351 195.02L115.78 194.885L115.541 199.451C115.516 199.918 115.611 200.284 115.826 200.547C116.041 200.799 116.364 200.936 116.796 200.959C117.299 200.985 117.725 200.875 118.075 200.629L118.62 202.262ZM129.397 198.591C129.389 198.747 129.366 198.968 129.327 199.254L121.795 198.859C121.89 199.573 122.202 200.155 122.731 200.603C123.273 201.04 123.957 201.28 124.784 201.323C125.839 201.379 126.726 201.077 127.445 200.417L128.577 201.865C128.118 202.357 127.553 202.718 126.88 202.947C126.207 203.176 125.457 203.269 124.63 203.226C123.576 203.171 122.658 202.912 121.877 202.451C121.096 201.989 120.503 201.375 120.099 200.609C119.707 199.832 119.536 198.969 119.586 198.023C119.635 197.088 119.888 196.26 120.347 195.539C120.818 194.807 121.442 194.251 122.219 193.871C122.995 193.491 123.857 193.326 124.804 193.375C125.739 193.424 126.561 193.678 127.27 194.136C127.991 194.582 128.536 195.193 128.904 195.97C129.284 196.735 129.449 197.608 129.397 198.591ZM124.71 195.173C123.991 195.135 123.368 195.319 122.842 195.724C122.329 196.118 122 196.665 121.855 197.367L127.302 197.652C127.242 196.952 126.978 196.373 126.509 195.916C126.041 195.459 125.441 195.211 124.71 195.173ZM133.876 195.365C134.575 194.392 135.74 193.949 137.37 194.034L137.258 196.173C137.068 196.127 136.895 196.1 136.739 196.092C135.865 196.046 135.168 196.268 134.65 196.757C134.132 197.235 133.848 197.953 133.798 198.912L133.554 203.567L131.307 203.45L131.81 193.851L133.949 193.963L133.876 195.365ZM147.952 199.563C147.944 199.719 147.92 199.94 147.881 200.227L140.349 199.832C140.444 200.546 140.756 201.127 141.286 201.575C141.827 202.012 142.512 202.252 143.339 202.296C144.393 202.351 145.28 202.049 146 201.39L147.131 202.837C146.673 203.33 146.107 203.691 145.435 203.92C144.762 204.149 144.012 204.242 143.185 204.198C142.13 204.143 141.213 203.885 140.432 203.423C139.651 202.962 139.058 202.348 138.654 201.582C138.262 200.804 138.091 199.942 138.14 198.995C138.189 198.06 138.443 197.233 138.901 196.512C139.372 195.779 139.996 195.223 140.773 194.843C141.55 194.463 142.412 194.298 143.359 194.348C144.293 194.397 145.115 194.65 145.824 195.108C146.546 195.554 147.091 196.166 147.458 196.942C147.839 197.707 148.003 198.581 147.952 199.563ZM143.264 196.145C142.545 196.108 141.923 196.291 141.397 196.696C140.884 197.09 140.555 197.638 140.41 198.339L145.856 198.624C145.797 197.924 145.533 197.346 145.064 196.889C144.595 196.431 143.995 196.184 143.264 196.145ZM152.821 204.703C152.042 204.662 151.286 204.521 150.554 204.278C149.822 204.035 149.242 203.747 148.815 203.412L149.767 201.749C150.184 202.06 150.687 202.32 151.276 202.531C151.879 202.731 152.474 202.847 153.061 202.877C154.403 202.948 155.093 202.629 155.13 201.922C155.147 201.587 154.986 201.344 154.645 201.194C154.316 201.045 153.778 200.89 153.029 200.731C152.244 200.569 151.605 200.398 151.109 200.216C150.626 200.034 150.209 199.742 149.858 199.339C149.519 198.925 149.368 198.37 149.404 197.675C149.452 196.764 149.867 196.059 150.65 195.559C151.446 195.048 152.491 194.826 153.786 194.894C154.445 194.929 155.1 195.041 155.751 195.232C156.402 195.41 156.931 195.636 157.337 195.91L156.385 197.572C155.595 197.05 154.691 196.762 153.672 196.709C153.013 196.674 152.505 196.75 152.147 196.935C151.801 197.109 151.62 197.358 151.603 197.682C151.584 198.041 151.75 198.308 152.101 198.483C152.465 198.646 153.027 198.814 153.787 198.986C154.548 199.146 155.17 199.317 155.653 199.498C156.136 199.68 156.542 199.966 156.87 200.355C157.21 200.746 157.362 201.282 157.326 201.965C157.279 202.864 156.852 203.563 156.045 204.061C155.238 204.56 154.163 204.774 152.821 204.703ZM162.072 205.188C161.293 205.147 160.537 205.006 159.805 204.763C159.073 204.52 158.493 204.231 158.066 203.897L159.018 202.234C159.435 202.544 159.938 202.805 160.527 203.016C161.13 203.216 161.725 203.331 162.312 203.362C163.654 203.432 164.344 203.114 164.381 202.407C164.398 202.072 164.237 201.829 163.896 201.679C163.567 201.529 163.029 201.375 162.28 201.216C161.495 201.054 160.856 200.883 160.36 200.7C159.877 200.519 159.46 200.227 159.109 199.824C158.77 199.409 158.619 198.855 158.655 198.16C158.703 197.249 159.118 196.544 159.901 196.044C160.697 195.533 161.742 195.311 163.037 195.379C163.696 195.414 164.351 195.526 165.002 195.716C165.653 195.895 166.182 196.121 166.588 196.394L165.636 198.057C164.846 197.535 163.942 197.247 162.923 197.194C162.264 197.159 161.756 197.235 161.397 197.42C161.052 197.594 160.871 197.843 160.854 198.167C160.835 198.526 161.001 198.793 161.352 198.968C161.716 199.131 162.278 199.299 163.038 199.471C163.799 199.631 164.421 199.802 164.904 199.983C165.387 200.165 165.793 200.45 166.121 200.84C166.461 201.23 166.613 201.767 166.577 202.45C166.53 203.349 166.103 204.048 165.296 204.546C164.489 205.044 163.414 205.258 162.072 205.188ZM177.636 201.119C177.628 201.275 177.604 201.496 177.565 201.782L170.033 201.388C170.128 202.101 170.44 202.683 170.969 203.131C171.511 203.568 172.196 203.808 173.022 203.851C174.077 203.907 174.964 203.605 175.684 202.945L176.815 204.393C176.357 204.885 175.791 205.246 175.118 205.475C174.445 205.704 173.696 205.797 172.869 205.754C171.814 205.699 170.896 205.44 170.116 204.979C169.335 204.517 168.742 203.903 168.337 203.137C167.946 202.36 167.774 201.497 167.824 200.551C167.873 199.616 168.127 198.788 168.585 198.067C169.056 197.335 169.68 196.779 170.457 196.399C171.234 196.019 172.096 195.854 173.042 195.904C173.977 195.953 174.799 196.206 175.508 196.664C176.23 197.11 176.774 197.721 177.142 198.498C177.523 199.263 177.687 200.136 177.636 201.119ZM172.948 197.701C172.229 197.663 171.607 197.847 171.081 198.252C170.568 198.646 170.238 199.193 170.094 199.895L175.54 200.18C175.481 199.48 175.217 198.901 174.748 198.444C174.279 197.987 173.679 197.739 172.948 197.701ZM182.114 197.893C182.814 196.92 183.979 196.477 185.609 196.562L185.496 198.701C185.307 198.655 185.134 198.628 184.978 198.62C184.103 198.574 183.407 198.796 182.888 199.285C182.371 199.763 182.087 200.481 182.036 201.44L181.792 206.095L179.545 205.978L180.048 196.379L182.188 196.491L182.114 197.893ZM193.154 206.168C192.879 206.37 192.547 206.515 192.158 206.603C191.781 206.691 191.383 206.724 190.963 206.702C189.909 206.647 189.108 206.329 188.562 205.747C188.016 205.166 187.77 204.348 187.826 203.293L188.068 198.674L186.486 198.591L186.58 196.793L188.162 196.876L188.277 194.683L190.524 194.801L190.409 196.994L192.979 197.129L192.885 198.926L190.315 198.791L190.075 203.357C190.051 203.825 190.146 204.19 190.36 204.454C190.575 204.705 190.899 204.842 191.33 204.865C191.833 204.891 192.26 204.781 192.609 204.535L193.154 206.168Z" fill="#1A0733"/>
<path d="M303.39 92.6108C302.515 93.0195 302.226 95.4071 303.812 96.8587M313.732 90.032C314.32 90.3077 315.365 91.8903 315.094 93.5792M319.825 85.0926C319.909 83.5167 320.655 82.7583 322.395 82.6323M315.094 93.5792C314.867 95.0006 313.812 96.4709 309.719 97.5625C306.255 98.4863 304.812 97.7742 303.812 96.8587M315.094 93.5792C315.094 93.5792 319.704 92.2718 320.64 92.1964C321.577 92.1211 325.575 92.8317 326.762 88.6491C327.323 86.6697 326.511 85.1133 325.63 84.1115C324.65 82.9965 323.504 82.5521 322.395 82.6323M322.395 82.6323C322.395 82.6323 320.804 78.1632 316.537 78.294C315.172 78.3359 314.295 78.7021 313.733 79.1807M312.774 81.7198C312.774 81.7198 312.542 80.1969 313.733 79.1807M313.733 79.1807C313.733 79.1807 311.405 77.2415 307.288 79.5118C306.182 80.1215 305.423 80.9404 305.022 81.7871M306.054 85.4166C304.678 84.6903 304.352 83.1999 305.022 81.7871M305.022 81.7871C305.022 81.7871 302.338 81.368 300.245 84.8438C298.152 88.3196 299.212 90.5429 299.212 90.5429C299.212 90.5429 297.815 92.6014 299.444 95.3047C301.073 98.008 303.812 96.8587 303.812 96.8587M307.319 92.4083C307.319 92.4083 306.772 90.2127 308.907 89.8358M311.303 85.3979C311.303 85.3979 313.322 83.9154 315.068 85.812M321.782 89.1132C321.782 89.1132 321.345 87.3567 323.143 86.9082" stroke="#F3A447" stroke-width="2" stroke-linecap="round"/>
<path d="M112.837 11.772L111.837 11.7764L111.845 13.5621L113.363 12.6224L112.837 11.772ZM108.206 4.8743L108.557 3.93807L108.206 4.8743ZM121.141 12.0444L121.749 11.2503L121.141 12.0444ZM104.53 26.758L103.735 27.3639L104.001 27.7132L104.438 27.7537L104.53 26.758ZM112.837 11.772C113.837 11.7677 113.837 11.7672 113.837 11.7668C113.837 11.7666 113.837 11.7661 113.837 11.7657C113.837 11.765 113.837 11.7642 113.837 11.7633C113.837 11.7615 113.837 11.7593 113.837 11.7569C113.837 11.752 113.837 11.7459 113.837 11.7385C113.836 11.7238 113.836 11.7042 113.835 11.6799C113.834 11.6314 113.831 11.5641 113.825 11.4803C113.814 11.3129 113.792 11.0783 113.751 10.7941C113.669 10.228 113.507 9.45212 113.183 8.61201C112.532 6.92584 111.206 4.93238 108.557 3.93807L107.854 5.81053C109.814 6.54611 110.804 8.00152 111.317 9.33175C111.574 9.99984 111.706 10.6241 111.772 11.0809C111.805 11.3082 111.821 11.491 111.829 11.6129C111.833 11.6738 111.835 11.7193 111.836 11.7473C111.837 11.7612 111.837 11.7708 111.837 11.7758C111.837 11.7783 111.837 11.7796 111.837 11.7797C111.837 11.7797 111.837 11.7795 111.837 11.7789C111.837 11.7787 111.837 11.7783 111.837 11.7779C111.837 11.7777 111.837 11.7773 111.837 11.7772C111.837 11.7768 111.837 11.7764 112.837 11.772ZM112.837 11.772C113.363 12.6224 113.363 12.6226 113.363 12.6228C113.363 12.6229 113.362 12.6231 113.362 12.6232C113.362 12.6234 113.361 12.6236 113.361 12.6237C113.361 12.624 113.36 12.6241 113.361 12.6241C113.361 12.6241 113.362 12.6234 113.364 12.6221C113.368 12.6196 113.376 12.6147 113.388 12.6076C113.413 12.5936 113.452 12.5712 113.506 12.5424C113.614 12.4846 113.777 12.4017 113.988 12.3091C114.41 12.1232 115.009 11.9037 115.712 11.7682C117.112 11.4984 118.871 11.5663 120.533 12.8385L121.749 11.2503C119.502 9.53061 117.108 9.46235 115.334 9.80434C114.45 9.97473 113.706 10.2482 113.182 10.4786C112.919 10.5943 112.709 10.7004 112.561 10.7797C112.487 10.8194 112.428 10.8525 112.386 10.8768C112.365 10.889 112.348 10.899 112.336 10.9066C112.329 10.9103 112.324 10.9135 112.32 10.9161C112.318 10.9173 112.316 10.9184 112.315 10.9194C112.314 10.9198 112.313 10.9203 112.313 10.9207C112.312 10.9209 112.312 10.9211 112.312 10.9212C112.311 10.9215 112.311 10.9217 112.837 11.772ZM120.533 12.8385C122.119 14.0521 122.838 16.3333 122.439 18.685C122.045 21.0066 120.58 23.2193 118.031 24.2398L118.775 26.0965C122.058 24.7815 123.917 21.9283 124.411 19.0199C124.9 16.1415 124.072 13.0286 121.749 11.2503L120.533 12.8385ZM118.031 24.2398C115.273 25.3446 111.938 25.7357 109.241 25.8396C107.903 25.8912 106.742 25.8714 105.917 25.8388C105.505 25.8225 105.178 25.803 104.955 25.7878C104.844 25.7802 104.759 25.7736 104.703 25.7691C104.675 25.7668 104.654 25.765 104.64 25.7638C104.633 25.7632 104.629 25.7628 104.626 25.7625C104.624 25.7624 104.623 25.7623 104.623 25.7623C104.622 25.7622 104.622 25.7622 104.622 25.7622C104.622 25.7622 104.622 25.7622 104.622 25.7622C104.622 25.7622 104.623 25.7623 104.53 26.758C104.438 27.7537 104.438 27.7537 104.438 27.7538C104.438 27.7538 104.439 27.7538 104.439 27.7538C104.439 27.7539 104.44 27.7539 104.441 27.754C104.442 27.7541 104.444 27.7543 104.447 27.7545C104.451 27.7549 104.458 27.7555 104.467 27.7563C104.484 27.7578 104.509 27.7599 104.541 27.7625C104.606 27.7677 104.699 27.7749 104.819 27.7831C105.059 27.7996 105.405 27.8201 105.838 27.8372C106.704 27.8714 107.918 27.8921 109.318 27.8381C112.1 27.731 115.702 27.3271 118.775 26.0965L118.031 24.2398ZM97.5428 14.3273C98.1274 17.5853 99.6938 20.854 101.077 23.2698C101.773 24.4863 102.434 25.5049 102.922 26.2206C103.166 26.5787 103.367 26.8617 103.508 27.0564C103.578 27.1539 103.634 27.2293 103.673 27.2811C103.692 27.3069 103.707 27.3269 103.717 27.3408C103.723 27.3478 103.727 27.3532 103.73 27.357C103.731 27.359 103.732 27.3605 103.733 27.3617C103.733 27.3622 103.734 27.3627 103.734 27.3631C103.734 27.3633 103.734 27.3635 103.735 27.3636C103.735 27.3638 103.735 27.3639 104.53 26.758C105.326 26.152 105.326 26.1522 105.326 26.1522C105.326 26.1522 105.326 26.1523 105.326 26.1523C105.326 26.1523 105.326 26.1522 105.326 26.152C105.325 26.1516 105.325 26.1508 105.324 26.1496C105.322 26.1472 105.319 26.1433 105.315 26.1379C105.307 26.1271 105.294 26.1103 105.277 26.0876C105.244 26.0423 105.193 25.9736 105.128 25.8833C104.997 25.7026 104.807 25.4353 104.575 25.0945C104.11 24.4124 103.478 23.4384 102.813 22.276C101.471 19.9338 100.036 16.8988 99.5113 13.974L97.5428 14.3273ZM108.557 3.93807C105.818 2.90985 102.739 3.85789 100.558 5.79786C98.3529 7.75804 96.9181 10.8462 97.5428 14.3273L99.5113 13.974C99.0265 11.2722 100.127 8.85725 101.886 7.29251C103.669 5.70756 105.985 5.10887 107.854 5.81053L108.557 3.93807Z" fill="#F3A447"/>
<path d="M359.424 304.207L358.458 303.948C358.315 304.481 358.631 305.028 359.163 305.172L359.424 304.207ZM359.424 304.207L360.39 304.465C360.459 304.209 360.423 303.936 360.29 303.707C360.157 303.477 359.939 303.309 359.683 303.241L359.424 304.207ZM358.895 304.065L358.637 305.031L358.895 304.065ZM347.854 309.323L348.768 309.727L347.854 309.323ZM348.909 319.95L349.811 319.518L349.811 319.518L348.909 319.95ZM349.953 322.635L348.965 322.79L348.965 322.79L349.953 322.635ZM349.788 325.376L348.823 325.111L349.788 325.376ZM349.632 325.948L348.666 325.69L349.632 325.948ZM349.419 326.741L348.453 326.483C348.31 327.016 348.627 327.564 349.161 327.707L349.419 326.741ZM352.557 327.582L353.523 327.841C353.666 327.308 353.349 326.759 352.816 326.616L352.557 327.582ZM352.557 327.583L351.591 327.324C351.448 327.857 351.765 328.406 352.298 328.549L352.557 327.583ZM356.258 328.574L355.999 329.54C356.532 329.683 357.081 329.367 357.224 328.833L356.258 328.574ZM356.622 327.207L357.589 327.461L357.589 327.461L356.622 327.207ZM357.849 324.751L358.626 325.38L357.849 324.751ZM360.096 322.948L360.662 323.772L360.096 322.948ZM366.323 314.272L367.317 314.379L367.317 314.379L366.323 314.272ZM360.39 304.466L360.39 304.465L358.458 303.948L358.458 303.948L360.39 304.466ZM359.683 303.241L359.154 303.099L358.637 305.031L359.165 305.172L359.683 303.241ZM359.154 303.099C357.329 302.61 355.025 302.366 352.777 303.121C350.487 303.89 348.385 305.651 346.939 308.918L348.768 309.727C350.013 306.915 351.714 305.587 353.413 305.017C355.154 304.433 357.025 304.599 358.637 305.031L359.154 303.099ZM346.939 308.918C344.801 313.748 346.741 317.734 348.007 320.381L349.811 319.518C348.53 316.839 347.036 313.641 348.768 309.727L346.939 308.918ZM348.007 320.381C348.529 321.474 348.875 322.221 348.965 322.79L350.941 322.479C350.795 321.554 350.282 320.504 349.811 319.518L348.007 320.381ZM348.965 322.79C349.075 323.486 349.1 323.74 349.085 323.965C349.069 324.198 349.008 324.435 348.823 325.111L350.752 325.64C350.918 325.033 351.048 324.578 351.08 324.101C351.113 323.615 351.045 323.14 350.941 322.479L348.965 322.79ZM348.823 325.111C348.777 325.28 348.724 325.471 348.666 325.69L350.598 326.207C350.655 325.995 350.706 325.809 350.752 325.64L348.823 325.111ZM348.666 325.69L348.453 326.483L350.385 327L350.598 326.207L348.666 325.69ZM349.161 327.707L352.298 328.548L352.816 326.616L349.678 325.776L349.161 327.707ZM353.523 327.841L353.523 327.841L351.591 327.323L351.591 327.324L353.523 327.841ZM356.517 327.608L352.816 326.617L352.298 328.549L355.999 329.54L356.517 327.608ZM355.504 327.522L355.292 328.315L357.224 328.833L357.436 328.04L355.504 327.522ZM355.654 326.954C355.61 327.123 355.561 327.31 355.504 327.522L357.436 328.04C357.495 327.822 357.545 327.63 357.589 327.461L355.654 326.954ZM357.071 324.122C356.65 324.643 356.354 325.02 356.14 325.457C355.929 325.887 355.814 326.345 355.654 326.954L357.589 327.461C357.767 326.783 357.833 326.547 357.936 326.337C358.035 326.135 358.184 325.927 358.626 325.38L357.071 324.122ZM359.53 322.123C358.629 322.741 357.66 323.394 357.071 324.122L358.626 325.38C358.989 324.931 359.662 324.458 360.662 323.772L359.53 322.123ZM365.329 314.165C364.873 318.421 361.979 320.443 359.53 322.123L360.662 323.772C363.081 322.113 366.754 319.631 367.317 314.379L365.329 314.165ZM359.163 305.172C360.771 305.608 362.466 306.402 363.673 307.777C364.853 309.12 365.656 311.117 365.329 314.165L367.317 314.379C367.697 310.839 366.766 308.268 365.176 306.457C363.615 304.68 361.507 303.735 359.685 303.242L359.163 305.172Z" fill="#F3A447"/>
<path d="M361.487 313.707C361.43 314.256 361.83 314.747 362.379 314.804C362.929 314.86 363.42 314.461 363.476 313.911L361.487 313.707ZM359.832 307.146C359.341 306.894 358.738 307.089 358.487 307.581C358.235 308.072 358.43 308.675 358.921 308.926L359.832 307.146ZM363.476 313.911C363.609 312.625 363.484 311.32 362.904 310.122C362.319 308.914 361.312 307.903 359.832 307.146L358.921 308.926C360.07 309.514 360.735 310.231 361.104 310.994C361.479 311.768 361.593 312.677 361.487 313.707L363.476 313.911Z" fill="#F3A447"/>
<path d="M349.064 330.046L354.88 331.605M348.748 333.363L353.528 334.644" stroke="#F3A447" stroke-width="2" stroke-linecap="round"/>
<path fill-rule="evenodd" clip-rule="evenodd" d="M156.021 273.689C157.053 275.01 156.819 276.917 155.498 277.949C154.178 278.98 152.271 278.746 151.239 277.426C150.207 276.105 150.441 274.198 151.762 273.166C153.082 272.134 154.989 272.369 156.021 273.689ZM158.149 279.558C160.044 277.422 160.206 274.173 158.385 271.842C156.333 269.216 152.541 268.75 149.915 270.802C147.289 272.854 146.823 276.646 148.875 279.273C149.384 279.924 150 280.442 150.678 280.823L147.515 289.364C145.933 289.127 144.261 289.514 142.901 290.577C140.275 292.628 139.809 296.421 141.861 299.047C143.913 301.673 147.705 302.139 150.332 300.087C151.613 299.086 152.38 297.67 152.591 296.178L161.884 295.06C162.081 295.867 162.448 296.646 162.993 297.343C165.044 299.969 168.837 300.434 171.463 298.383C174.089 296.331 174.555 292.538 172.503 289.912C170.682 287.581 167.49 286.952 164.959 288.275L158.149 279.558ZM162.722 290.284L155.658 281.243C154.988 281.482 154.289 281.597 153.593 281.592L150.28 290.535C150.68 290.841 151.047 291.202 151.372 291.617C151.756 292.108 152.052 292.641 152.262 293.196L161.927 292.033C162.095 291.418 162.361 290.826 162.722 290.284ZM149.008 293.464C150.039 294.784 149.805 296.691 148.485 297.723C147.164 298.755 145.257 298.521 144.225 297.2C143.193 295.879 143.428 293.972 144.748 292.941C146.069 291.909 147.976 292.143 149.008 293.464ZM169.616 296.019C170.937 294.987 171.171 293.08 170.139 291.759C169.107 290.438 167.2 290.204 165.88 291.236C164.559 292.268 164.325 294.175 165.357 295.496C166.388 296.816 168.295 297.05 169.616 296.019Z" fill="#F3A345"/>
<defs>
<filter id="filter0_d" x="76.4668" y="32.4882" width="355.859" height="333.306" filterUnits="userSpaceOnUse" color-interpolation-filters="sRGB">
<feFlood flood-opacity="0" result="BackgroundImageFix"/>
<feColorMatrix in="SourceAlpha" type="matrix" values="0 0 0 0 0 0 0 0 0 0 0 0 0 0 0 0 0 0 127 0"/>
<feOffset dx="4" dy="4"/>
<feGaussianBlur stdDeviation="8"/>
<feColorMatrix type="matrix" values="0 0 0 0 0.173927 0 0 0 0 0.0527778 0 0 0 0 0.333333 0 0 0 1 0"/>
<feBlend mode="normal" in2="BackgroundImageFix" result="effect1_dropShadow"/>
<feBlend mode="normal" in="SourceGraphic" in2="effect1_dropShadow" result="shape"/>
</filter>
<filter id="filter1_bdi" x="-11" y="18" width="316.204" height="260.6" filterUnits="userSpaceOnUse" color-interpolation-filters="sRGB">
<feFlood flood-opacity="0" result="BackgroundImageFix"/>
<feGaussianBlur in="BackgroundImage" stdDeviation="9.5"/>
<feComposite in2="SourceAlpha" operator="in" result="effect1_backgroundBlur"/>
<feColorMatrix in="SourceAlpha" type="matrix" values="0 0 0 0 0 0 0 0 0 0 0 0 0 0 0 0 0 0 127 0"/>
<feOffset/>
<feGaussianBlur stdDeviation="4"/>
<feColorMatrix type="matrix" values="0 0 0 0 1 0 0 0 0 0.7855 0 0 0 0 0.025 0 0 0 0.3 0"/>
<feBlend mode="normal" in2="effect1_backgroundBlur" result="effect2_dropShadow"/>
<feBlend mode="normal" in="SourceGraphic" in2="effect2_dropShadow" result="shape"/>
<feColorMatrix in="SourceAlpha" type="matrix" values="0 0 0 0 0 0 0 0 0 0 0 0 0 0 0 0 0 0 127 0" result="hardAlpha"/>
<feOffset dx="8" dy="8"/>
<feGaussianBlur stdDeviation="64"/>
<feComposite in2="hardAlpha" operator="arithmetic" k2="-1" k3="1"/>
<feColorMatrix type="matrix" values="0 0 0 0 1 0 0 0 0 1 0 0 0 0 1 0 0 0 0.25 0"/>
<feBlend mode="normal" in2="shape" result="effect3_innerShadow"/>
</filter>
<radialGradient id="paint0_radial" cx="0" cy="0" r="1" gradientUnits="userSpaceOnUse" gradientTransform="translate(373.817 149.382) rotate(163.026) scale(256.647 320.756)">
<stop stop-color="#F19A2D"/>
<stop offset="1" stop-color="#F3A64D"/>
</radialGradient>
<radialGradient id="paint1_radial" cx="0" cy="0" r="1" gradientUnits="userSpaceOnUse" gradientTransform="translate(51 44) rotate(43.9744) scale(276.523 345.597)">
<stop stop-color="#FFE5A4"/>
<stop offset="1" stop-color="#FDEFCA" stop-opacity="0"/>
</radialGradient>
</defs>
</svg>
