<svg width="63" height="81" viewBox="0 0 63 81" fill="none" xmlns="http://www.w3.org/2000/svg">
<g filter="url(#filter0_bdi)">
<path d="M47.5589 71C43.367 71 39.6097 68.787 36.2868 64.361C32.964 59.9351 29.6156 53.6821 26.2417 45.6021C19.2382 53.785 14.2796 62.1995 11.3657 70.8456C7.17387 68.118 5.05238 65.2617 5.00126 62.2767C4.95014 59.2918 6.45818 55.8951 9.5254 52.0867C12.5926 48.2783 17.1168 43.4921 23.0978 37.728C22.7911 36.9046 22.2288 35.4636 21.4109 33.405C20.5929 31.3464 19.8772 29.5451 19.2638 28.0012C18.6504 26.4058 18.1903 25.2993 17.8836 24.6817C17.628 24.0641 17.219 23.0863 16.6567 21.7482C16.0943 20.4101 15.6343 19.4066 15.2764 18.7375C14.9186 18.017 14.4585 17.0907 13.8962 15.9584C13.385 14.8262 12.9249 13.8998 12.5159 13.1793C11.2379 11.0693 10.2411 9.52534 9.5254 8.54751C12.4393 7.15796 14.8163 6.46318 16.6567 6.46318C18.497 6.46318 19.9539 6.9521 21.0274 7.92993C22.1521 8.85629 23.3534 10.7348 24.6314 13.5653C25.9606 16.3444 26.9063 18.4545 27.4686 19.8955C28.0309 21.3365 28.7466 23.3436 29.6156 25.9169C30.5358 28.4386 31.047 29.8282 31.1493 30.0855C36.3124 24.9905 40.3509 20.5131 43.2648 16.6532C46.1786 12.7933 47.7122 9.24228 47.8656 6C49.9104 6.8749 51.444 8.00712 52.4664 9.39667C53.4888 10.7862 54 12.1243 54 13.4109C54 14.6461 53.6677 15.9842 53.0032 17.4252C52.3897 18.8147 51.3162 20.3587 49.7826 22.057C48.3001 23.7553 46.8943 25.2478 45.5652 26.5344C44.2872 27.8211 42.3957 29.6223 39.8908 31.9382C37.3859 34.2542 35.3922 36.1326 33.9097 37.5736C39.6352 52.4984 45.8208 63.5119 52.4664 70.614C51.1373 70.8713 49.5014 71 47.5589 71Z" fill="url(#paint0_radial)"/>
<path d="M11.8395 71.0053C14.6565 62.6469 19.4044 54.4936 26.0962 46.5461C29.3718 54.2839 32.6338 60.328 35.887 64.6612C39.2713 69.1692 43.1619 71.5 47.5589 71.5C49.5208 71.5 51.1907 71.3703 52.5614 71.1049L53.4496 70.9329L52.8315 70.2724C46.2947 63.2866 40.1769 52.4438 34.495 37.7025C35.9466 36.2974 37.858 34.4986 40.2302 32.3054C42.7344 29.9901 44.6309 28.1843 45.9165 26.8903C47.2556 25.5937 48.669 24.0929 50.1564 22.389C51.7068 20.6717 52.8162 19.0852 53.4589 17.6308C54.1443 16.1435 54.5 14.7348 54.5 13.4109C54.5 11.9866 53.9334 10.5468 52.8691 9.10035C51.7806 7.62099 50.1659 6.44036 48.0623 5.54031L47.4002 5.25702L47.3661 5.97638C47.2193 9.07998 45.7469 12.5353 42.8657 16.352C40.0751 20.0485 36.2374 24.3263 31.3462 29.1869C31.0942 28.5055 30.6751 27.3618 30.0874 25.7512C29.2183 23.1779 28.5004 21.1643 27.9344 19.7137C27.3654 18.2557 26.414 16.1337 25.0849 13.3545C23.8074 10.5261 22.5712 8.55876 21.355 7.55194C20.1677 6.47528 18.5821 5.96318 16.6567 5.96318C14.7054 5.96318 12.2479 6.69527 9.31018 8.0962L8.76555 8.35591L9.12192 8.84281C9.82347 9.80133 10.8099 11.3279 12.0846 13.4323C12.4824 14.1338 12.9343 15.0431 13.4405 16.1642L13.4443 16.1726L13.4484 16.1808L14.8286 18.9599L14.832 18.9667L14.8355 18.9733C15.1821 19.6214 15.635 20.6078 16.1957 21.9419C16.758 23.2799 17.1665 24.2567 17.4216 24.8729L17.4281 24.8888L17.4357 24.9041C17.7308 25.4983 18.1835 26.5848 18.7971 28.1806L18.7971 28.1806L18.7991 28.1858L20.9462 33.5896C21.6702 35.4119 22.1925 36.7466 22.5142 37.5963C16.6437 43.2649 12.1815 47.9916 9.13599 51.7731C6.03886 55.6186 4.44727 59.1289 4.50133 62.2853C4.5568 65.5241 6.8566 68.5081 11.093 71.2647L11.6336 71.6164L11.8395 71.0053Z" stroke="url(#paint1_radial)"/>
</g>
<defs>
<filter id="filter0_bdi" x="-2" y="-1.48596" width="65" height="81.8732" filterUnits="userSpaceOnUse" color-interpolation-filters="sRGB">
<feFlood flood-opacity="0" result="BackgroundImageFix"/>
<feGaussianBlur in="BackgroundImage" stdDeviation="3"/>
<feComposite in2="SourceAlpha" operator="in" result="effect1_backgroundBlur"/>
<feColorMatrix in="SourceAlpha" type="matrix" values="0 0 0 0 0 0 0 0 0 0 0 0 0 0 0 0 0 0 127 0"/>
<feOffset dx="2" dy="2"/>
<feGaussianBlur stdDeviation="3"/>
<feColorMatrix type="matrix" values="0 0 0 0 0.725146 0 0 0 0 0.60809 0 0 0 0 0.879167 0 0 0 0.25 0"/>
<feBlend mode="normal" in2="effect1_backgroundBlur" result="effect2_dropShadow"/>
<feBlend mode="normal" in="SourceGraphic" in2="effect2_dropShadow" result="shape"/>
<feColorMatrix in="SourceAlpha" type="matrix" values="0 0 0 0 0 0 0 0 0 0 0 0 0 0 0 0 0 0 127 0" result="hardAlpha"/>
<feOffset dx="2" dy="2"/>
<feGaussianBlur stdDeviation="2"/>
<feComposite in2="hardAlpha" operator="arithmetic" k2="-1" k3="1"/>
<feColorMatrix type="matrix" values="0 0 0 0 1 0 0 0 0 1 0 0 0 0 1 0 0 0 0.4 0"/>
<feBlend mode="normal" in2="shape" result="effect3_innerShadow"/>
</filter>
<radialGradient id="paint0_radial" cx="0" cy="0" r="1" gradientUnits="userSpaceOnUse" gradientTransform="translate(10.5 9) rotate(61.9052) scale(75.3824 56.8267)">
<stop stop-color="#F0BB34"/>
<stop offset="0.665244" stop-color="#F41B50"/>
<stop offset="1" stop-color="#A33FF2"/>
</radialGradient>
<radialGradient id="paint1_radial" cx="0" cy="0" r="1" gradientUnits="userSpaceOnUse" gradientTransform="translate(8.83402 7.92993) rotate(58.4704) scale(76.9825 58.2476)">
<stop stop-color="#F5C471"/>
<stop offset="0.538758" stop-color="#F4454A"/>
<stop offset="1" stop-color="#BF48CD"/>
</radialGradient>
</defs>
</svg>
