<svg width="27" height="27" viewBox="0 0 27 27" fill="none" xmlns="http://www.w3.org/2000/svg">
<path fill-rule="evenodd" clip-rule="evenodd" d="M1 3.5C1 2.11929 2.11929 1 3.5 1H23.5C24.8807 1 26 2.11929 26 3.5C26 4.88071 24.8807 6 23.5 6H3.5C2.11929 6 1 4.88071 1 3.5ZM1 13.5C1 12.1193 2.11929 11 3.5 11H23.5C24.8807 11 26 12.1193 26 13.5C26 14.8807 24.8807 16 23.5 16H3.5C2.11929 16 1 14.8807 1 13.5ZM3.5 21C2.11929 21 1 22.1193 1 23.5C1 24.8807 2.11929 26 3.5 26H23.5C24.8807 26 26 24.8807 26 23.5C26 22.1193 24.8807 21 23.5 21H3.5Z" fill="url(#paint0_radial)"/>
<path d="M3.5 0.5C1.84315 0.5 0.5 1.84315 0.5 3.5H1.5C1.5 2.39543 2.39543 1.5 3.5 1.5V0.5ZM23.5 0.5H3.5V1.5H23.5V0.5ZM26.5 3.5C26.5 1.84315 25.1569 0.5 23.5 0.5V1.5C24.6046 1.5 25.5 2.39543 25.5 3.5H26.5ZM23.5 6.5C25.1569 6.5 26.5 5.15685 26.5 3.5H25.5C25.5 4.60457 24.6046 5.5 23.5 5.5V6.5ZM3.5 6.5H23.5V5.5H3.5V6.5ZM0.5 3.5C0.5 5.15685 1.84315 6.5 3.5 6.5V5.5C2.39543 5.5 1.5 4.60457 1.5 3.5H0.5ZM3.5 10.5C1.84315 10.5 0.5 11.8431 0.5 13.5H1.5C1.5 12.3954 2.39543 11.5 3.5 11.5V10.5ZM23.5 10.5H3.5V11.5H23.5V10.5ZM26.5 13.5C26.5 11.8431 25.1569 10.5 23.5 10.5V11.5C24.6046 11.5 25.5 12.3954 25.5 13.5H26.5ZM23.5 16.5C25.1569 16.5 26.5 15.1569 26.5 13.5H25.5C25.5 14.6046 24.6046 15.5 23.5 15.5V16.5ZM3.5 16.5H23.5V15.5H3.5V16.5ZM0.5 13.5C0.5 15.1569 1.84315 16.5 3.5 16.5V15.5C2.39543 15.5 1.5 14.6046 1.5 13.5H0.5ZM1.5 23.5C1.5 22.3954 2.39543 21.5 3.5 21.5V20.5C1.84315 20.5 0.5 21.8431 0.5 23.5H1.5ZM3.5 25.5C2.39543 25.5 1.5 24.6046 1.5 23.5H0.5C0.5 25.1569 1.84315 26.5 3.5 26.5V25.5ZM23.5 25.5H3.5V26.5H23.5V25.5ZM25.5 23.5C25.5 24.6046 24.6046 25.5 23.5 25.5V26.5C25.1569 26.5 26.5 25.1569 26.5 23.5H25.5ZM23.5 21.5C24.6046 21.5 25.5 22.3954 25.5 23.5H26.5C26.5 21.8431 25.1569 20.5 23.5 20.5V21.5ZM3.5 21.5H23.5V20.5H3.5V21.5Z" fill="url(#paint1_radial)"/>
<defs>
<radialGradient id="paint0_radial" cx="0" cy="0" r="1" gradientUnits="userSpaceOnUse" gradientTransform="translate(1 -1) rotate(47.2026) scale(36.7967 34.0711)">
<stop stop-color="#F59F6D"/>
<stop offset="0.505208" stop-color="#F43A4F"/>
<stop offset="1" stop-color="#D63B91"/>
</radialGradient>
<radialGradient id="paint1_radial" cx="0" cy="0" r="1" gradientUnits="userSpaceOnUse" gradientTransform="translate(0.5 -0.500001) rotate(46.1017) scale(36.7764 34.0522)">
<stop stop-color="#F4854A"/>
<stop offset="0.552083" stop-color="#DD3283"/>
<stop offset="1" stop-color="#BA40CE"/>
</radialGradient>
</defs>
</svg>
