<svg width="342" height="242" viewBox="0 0 342 242" fill="none" xmlns="http://www.w3.org/2000/svg">
<path d="M68.6647 190.302C45.9609 168.12 35.2763 116.803 91.3675 47.7437C147.459 -21.3158 234.714 13.6021 253.411 22.8614C284.826 38.419 340.037 104.083 330.871 133.588C315.29 183.743 266.28 176.027 244.912 190.302C223.544 204.577 231.152 242 194.204 242C157.256 242 163.041 218.27 134.995 206.31C106.95 194.35 91.3685 212.483 68.6647 190.302Z" fill="#66B726" fill-opacity="0.2"/>
<path d="M37.5029 42.0532C62.1696 27.8662 115.036 31.0637 170.163 25.4634C224.475 19.946 257.417 -3.85788 296.147 18.1331C334.877 40.1241 323.827 86.0577 326.943 112.678C330.059 139.299 349.568 191.36 310.838 219.139C272.108 246.917 221.358 199.771 170.163 199.771C118.969 199.771 48.1866 204.092 21.4765 180.558C-5.23357 157.024 -11.4655 70.217 37.5029 42.0532Z" fill="url(#paint0_radial)" fill-opacity="0.6"/>
<g filter="url(#filter0_b)">
<path d="M82.5534 31.7214C129.783 14.4282 155.164 12.9161 209.498 2.31329C263.832 -8.28952 293.796 18.0566 325.275 71.0544C356.754 124.052 347.617 215.196 264.847 194.478C182.077 173.761 132.313 244.73 75.4404 227.098C5.91635 205.543 18.3989 55.2117 82.5534 31.7214Z" fill="url(#paint1_radial)" fill-opacity="0.8"/>
</g>
<defs>
<filter id="filter0_b" x="18.5996" y="-10" width="333.4" height="249.941" filterUnits="userSpaceOnUse" color-interpolation-filters="sRGB">
<feFlood flood-opacity="0" result="BackgroundImageFix"/>
<feGaussianBlur in="BackgroundImage" stdDeviation="5"/>
<feComposite in2="SourceAlpha" operator="in" result="effect1_backgroundBlur"/>
<feBlend mode="normal" in="SourceGraphic" in2="effect1_backgroundBlur" result="shape"/>
</filter>
<radialGradient id="paint0_radial" cx="0" cy="0" r="1" gradientUnits="userSpaceOnUse" gradientTransform="translate(232.984 34.3371) rotate(92.0919) scale(150.16 194.78)">
<stop stop-color="#DE8113"/>
<stop offset="1" stop-color="#BA4343"/>
</radialGradient>
<radialGradient id="paint1_radial" cx="0" cy="0" r="1" gradientUnits="userSpaceOnUse" gradientTransform="translate(151.191 1.53387) rotate(62.9271) scale(219.799 269.109)">
<stop stop-color="#6BFB79"/>
<stop offset="1" stop-color="#49FFA8"/>
</radialGradient>
</defs>
</svg>
